SplineFontDB: 3.2
FontName: Freedings
FullName: Freedings
FamilyName: Freedings
Weight: Regular
Copyright: Copyright (c) 2021, Jukka Laitinen
UComments: "2021-12-14: Created with FontForge (http://fontforge.org)"
Version: 001.000
ItalicAngle: 0
UnderlinePosition: -100
UnderlineWidth: 50
Ascent: 800
Descent: 200
InvalidEm: 0
LayerCount: 2
Layer: 0 0 "Back" 1
Layer: 1 0 "Fore" 0
XUID: [1021 636 -1429266161 1535771]
StyleMap: 0x0000
FSType: 0
OS2Version: 0
OS2_WeightWidthSlopeOnly: 0
OS2_UseTypoMetrics: 1
CreationTime: 1639494275
ModificationTime: 1639651874
PfmFamily: 17
TTFWeight: 400
TTFWidth: 5
LineGap: 90
VLineGap: 90
OS2TypoAscent: 0
OS2TypoAOffset: 1
OS2TypoDescent: 0
OS2TypoDOffset: 1
OS2TypoLinegap: 90
OS2WinAscent: 0
OS2WinAOffset: 1
OS2WinDescent: 0
OS2WinDOffset: 1
HheadAscent: 0
HheadAOffset: 1
HheadDescent: 0
HheadDOffset: 1
OS2Vendor: 'PfEd'
MarkAttachClasses: 1
DEI: 91125
LangName: 1033
Encoding: Mac
UnicodeInterp: none
NameList: AGL For New Fonts
DisplaySize: -48
AntiAlias: 1
FitToEm: 0
WinInfo: 0 38 14
BeginPrivate: 0
EndPrivate
BeginChars: 256 222

StartChar: exclam
Encoding: 33 33 0
Width: 1000
Flags: HW
LayerCount: 2
Fore
SplineSet
295 -7 m 0
 283 -7 275 -1.33333333333 271 10 c 0
 258.333333333 46.6666666667 249.166666667 82 243.5 116 c 128
 237.833333333 150 235 181.333333333 235 210 c 0
 235 247.333333333 237.333333333 279.166666667 242 305.5 c 128
 246.666666667 331.833333333 250.333333333 349.333333333 253 358 c 0
 255 365.333333333 259 372 265 378 c 2
 368 472 l 1
 206 415 l 1
 202 407.666666667 196.333333333 393.5 189 372.5 c 128
 181.666666667 351.5 178 323.333333333 178 288 c 0
 178 268 179.5 246 182.5 222 c 128
 185.5 198 191.333333333 172.333333333 200 145 c 0
 200.666666667 143 201 140.333333333 201 137 c 0
 201 131.666666667 199.333333333 126.5 196 121.5 c 128
 192.666666667 116.5 188 113.333333333 182 112 c 0
 179.333333333 110.666666667 177 110 175 110 c 0
 162.333333333 110 153.666666667 116.666666667 149 130 c 0
 139 160 132.5 188.333333333 129.5 215 c 128
 126.5 241.666666667 125 265.666666667 125 287 c 0
 125 331.666666667 129.833333333 367.166666667 139.5 393.5 c 128
 149.166666667 419.833333333 157 437.333333333 163 446 c 256
 169 454.666666667 176.333333333 460.333333333 185 463 c 2
 322 512 l 1
 221 518 l 2
 205.666666667 519.333333333 193.666666667 526.333333333 185 539 c 0
 180.333333333 548.333333333 174.333333333 563.833333333 167 585.5 c 128
 159.666666667 607.166666667 156 636.666666667 156 674 c 0
 156 694 157.5 716.333333333 160.5 741 c 128
 163.5 765.666666667 168.333333333 792.666666667 175 822 c 0
 178.333333333 836 187.333333333 843 202 843 c 0
 204 843 205.666666667 842.666666667 207 842 c 0
 213.666666667 840.666666667 218.833333333 837.5 222.5 832.5 c 128
 226.166666667 827.5 228 822.333333333 228 817 c 0
 228 814.333333333 227.666666667 812 227 810 c 0
 218.333333333 782.666666667 213.166666667 757.5 211.5 734.5 c 128
 209.833333333 711.5 209 691.333333333 209 674 c 0
 209 645.333333333 211.5 622.666666667 216.5 606 c 128
 221.5 589.333333333 225.666666667 577.333333333 229 570 c 1
 367 563 l 1
 367 569 l 1
 297 594 l 2
 279 600.666666667 269 613 267 631 c 0
 266.333333333 634.333333333 265.833333333 638.5 265.5 643.5 c 128
 265.166666667 648.5 265 653.333333333 265 658 c 0
 265 678 267.833333333 703.833333333 273.5 735.5 c 128
 279.166666667 767.166666667 291.333333333 801.333333333 310 838 c 0
 314.666666667 847.333333333 322.666666667 852 334 852 c 0
 342 852 348.333333333 849.333333333 353 844 c 128
 357.666666667 838.666666667 360 832.666666667 360 826 c 0
 360 822 359 818 357 814 c 0
 341 782 330.666666667 752.5 326 725.5 c 128
 321.333333333 698.5 319 676.333333333 319 659 c 0
 319 655 319 655 319 650.5 c 128
 319 647.5 319.333333333 644.666666667 320 642 c 2
 384 620 l 1
 389.333333333 628.666666667 396.166666667 636 404.5 642 c 128
 412.833333333 648 421.666666667 653.333333333 431 658 c 1
 431 669.333333333 432.833333333 681.333333333 436.5 694 c 128
 440.166666667 706.666666667 448.333333333 713 461 713 c 0
 467.666666667 713 472.833333333 710.666666667 476.5 706 c 128
 480.166666667 701.333333333 483.666666667 696.5 487 691.5 c 128
 490.333333333 686.5 494.666666667 684 500 684 c 0
 506 684 510.666666667 686.5 514 691.5 c 128
 517.333333333 696.5 520.666666667 701.333333333 524 706 c 128
 527.333333333 710.666666667 532.333333333 713 539 713 c 0
 552.333333333 713 560.666666667 706.333333333 564 693 c 128
 567.333333333 679.666666667 569 667 569 655 c 1
 577.666666667 651 585.833333333 646 593.5 640 c 128
 601.166666667 634 607.333333333 626.666666667 612 618 c 1
 680 642 l 1
 680 659 l 2
 680 676.333333333 677.833333333 698.5 673.5 725.5 c 128
 669.166666667 752.5 659 782 643 814 c 0
 641 818 640 822 640 826 c 0
 640 837.333333333 644.666666667 845 654 849 c 0
 658 851 662 852 666 852 c 0
 677.333333333 852 685.333333333 847.333333333 690 838 c 0
 708 801.333333333 719.833333333 767.333333333 725.5 736 c 128
 731.166666667 704.666666667 734 679 734 659 c 0
 734 651 734 651 734 643.5 c 128
 734 638.5 733.666666667 634.333333333 733 631 c 0
 731 611.666666667 721 599.333333333 703 594 c 2
 628 568 l 1
 628 563 l 1
 771 570 l 1
 774.333333333 577.333333333 778.333333333 589.333333333 783 606 c 128
 787.666666667 622.666666667 790 645.333333333 790 674 c 0
 790 691.333333333 789.333333333 712 788 736 c 128
 786.666666667 760 781.666666667 784.666666667 773 810 c 0
 772.333333333 811.333333333 772 813.333333333 772 816 c 0
 772 823.333333333 774.5 829.666666667 779.5 835 c 128
 784.5 840.333333333 790.666666667 843 798 843 c 0
 812 843 820.666666667 836 824 822 c 0
 831.333333333 792 836.5 764.666666667 839.5 740 c 128
 842.5 715.333333333 844 693.333333333 844 674 c 0
 844 636.666666667 840.666666667 607.166666667 834 585.5 c 128
 827.333333333 563.833333333 821 548.333333333 815 539 c 0
 806.333333333 526.333333333 794 519.333333333 778 518 c 2
 678 512 l 1
 815 463 l 2
 824.333333333 459.666666667 831.333333333 454 836 446 c 0
 841.333333333 436.666666667 849.166666667 419 859.5 393 c 128
 869.833333333 367 875 331.666666667 875 287 c 0
 875 265.666666667 873.5 241.666666667 870.5 215 c 128
 867.5 188.333333333 861 160 851 130 c 0
 846.333333333 116.666666667 837.666666667 110 825 110 c 0
 823.666666667 110 821 110.666666667 817 112 c 0
 804.333333333 115.333333333 798 123.666666667 798 137 c 0
 798 140.333333333 798.333333333 143 799 145 c 0
 808.333333333 172.333333333 814.5 198 817.5 222 c 128
 820.5 246 822 268 822 288 c 0
 822 323.333333333 818.333333333 351.5 811 372.5 c 128
 803.666666667 393.5 798 407.666666667 794 415 c 1
 630 473 l 1
 734 378 l 2
 740 373.333333333 744 366.666666667 746 358 c 256
 748 349.333333333 751.666666667 331.833333333 757 305.5 c 128
 762.333333333 279.166666667 765 247.333333333 765 210 c 0
 765 181.333333333 762.333333333 149.833333333 757 115.5 c 128
 751.666666667 81.1666666667 742.333333333 46 729 10 c 0
 725 -1.33333333333 716.666666667 -7 704 -7 c 0
 702.666666667 -7 701.166666667 -6.66666666667 699.5 -6 c 128
 697.833333333 -5.33333333333 696.333333333 -4.66666666667 695 -4 c 0
 683 0.666666666667 677 8.66666666667 677 20 c 0
 677 23.3333333333 677.666666667 26.3333333333 679 29 c 0
 695 60.3333333333 704.666666667 91.8333333333 708 123.5 c 128
 711.333333333 155.166666667 713 184.333333333 713 211 c 0
 713 243 710.833333333 270.333333333 706.5 293 c 128
 702.166666667 315.666666667 698.666666667 331.333333333 696 340 c 1
 605 424 l 1
 600.333333333 419.333333333 595.333333333 414.666666667 590 410 c 128
 584.666666667 405.333333333 578.333333333 401.333333333 571 398 c 1
 589 395.333333333 605 387.833333333 619 375.5 c 128
 633 363.166666667 642.666666667 348 648 330 c 0
 651.333333333 320 653.833333333 308.666666667 655.5 296 c 128
 657.166666667 283.333333333 658 269 658 253 c 0
 658 244.333333333 657.666666667 235.166666667 657 225.5 c 128
 656.333333333 215.833333333 655.333333333 205.333333333 654 194 c 0
 648.666666667 154 638.833333333 122 624.5 98 c 128
 610.166666667 74 594.666666667 55.6666666667 578 43 c 128
 561.333333333 30.3333333333 545.666666667 22 531 18 c 128
 516.333333333 14 505.666666667 12 499 12 c 0
 493 12 482.5 14 467.5 18 c 128
 452.5 22 436.333333333 30.3333333333 419 43 c 128
 401.666666667 55.6666666667 385.666666667 74 371 98 c 128
 356.333333333 122 346.333333333 154 341 194 c 0
 339.666666667 205.333333333 338.666666667 215.833333333 338 225.5 c 128
 337.333333333 235.166666667 337 244.333333333 337 253 c 0
 337 269 338 283.333333333 340 296 c 128
 342 308.666666667 344.333333333 320 347 330 c 0
 352.333333333 348 362 363.166666667 376 375.5 c 128
 390 387.833333333 406 395.333333333 424 398 c 1
 410.666666667 404.666666667 400.333333333 412.666666667 393 422 c 1
 304 340 l 1
 301.333333333 331.333333333 297.833333333 315.666666667 293.5 293 c 128
 289.166666667 270.333333333 287 242.666666667 287 210 c 0
 287 184 288.666666667 155.166666667 292 123.5 c 128
 295.333333333 91.8333333333 305 60.3333333333 321 29 c 0
 321.666666667 27.6666666667 322 24.3333333333 322 19 c 0
 322 7 316.333333333 -0.666666666667 305 -4 c 0
 302.333333333 -6 299 -7 295 -7 c 0
456 672 m 0
 464.666666667 672 469 676.333333333 469 685 c 256
 469 693.666666667 464.666666667 698 456 698 c 0
 448.666666667 698 445 693.666666667 445 685 c 256
 445 676.333333333 448.666666667 672 456 672 c 0
542 672 m 0
 545.333333333 672 548.333333333 673.333333333 551 676 c 128
 553.666666667 678.666666667 555 681.666666667 555 685 c 256
 555 688.333333333 553.666666667 691.333333333 551 694 c 128
 548.333333333 696.666666667 545.333333333 698 542 698 c 0
 533.333333333 698 529 693.666666667 529 685 c 256
 529 676.333333333 533.333333333 672 542 672 c 0
EndSplineSet
Validated: 524289
EndChar

StartChar: quotedbl
Encoding: 34 34 1
Width: 1000
Flags: HW
LayerCount: 2
Fore
SplineSet
499 -90 m 0
 494.333333333 -90 489.833333333 -88.3333333333 485.5 -85 c 128
 481.166666667 -81.6666666667 478.333333333 -77.3333333333 477 -72 c 0
 438.333333333 -5.33333333333 384.833333333 43 316.5 73 c 128
 248.166666667 103 172.666666667 118 90 118 c 0
 89.3333333333 118 88.8333333333 117.833333333 88.5 117.5 c 128
 88.1666666667 117.166666667 87.6666666667 117 87 117 c 2
 83 117 l 2
 76.3333333333 117 71.3333333333 118.666666667 68 122 c 0
 62 126 59 132 59 140 c 0
 59 145.333333333 61 150 65 154 c 0
 105.666666667 224 126 299.666666667 126 381 c 0
 126 419.666666667 121.166666667 458 111.5 496 c 128
 101.833333333 534 86.6666666667 570.333333333 66 605 c 0
 63.3333333333 607.666666667 61.3333333333 611.666666667 60 617 c 0
 58.6666666667 621 58 623.333333333 58 624 c 0
 58 632.666666667 61.6666666667 639 69 643 c 0
 71 643.666666667 72.8333333333 644.166666667 74.5 644.5 c 128
 76.1666666667 644.833333333 77.6666666667 645 79 645 c 2
 90 645 l 2
 173.333333333 645 249.166666667 660.166666667 317.5 690.5 c 128
 385.833333333 720.833333333 439.333333333 769.333333333 478 836 c 0
 481.333333333 846.666666667 488.333333333 852 499 852 c 0
 510.333333333 852 517.666666667 846.666666667 521 836 c 0
 559.666666667 769.333333333 613.333333333 720.833333333 682 690.5 c 128
 750.666666667 660.166666667 826.333333333 645 909 645 c 2
 920 645 l 2
 922 645 922 645 925 645 c 128
 927 645 928.666666667 644.333333333 930 643 c 0
 937.333333333 639 941 632.666666667 941 624 c 0
 941 620.666666667 940 617 938 613 c 0
 937.333333333 612.333333333 936.666666667 611.166666667 936 609.5 c 128
 935.333333333 607.833333333 934.333333333 606.333333333 933 605 c 0
 913 570.333333333 898 534 888 496 c 128
 878 458 873 419.666666667 873 381 c 0
 873 341 878.333333333 301.666666667 889 263 c 128
 899.666666667 224.333333333 915 187.666666667 935 153 c 0
 936.333333333 151.666666667 937.5 149.333333333 938.5 146 c 128
 939.5 142.666666667 940 140.333333333 940 139 c 0
 940 129.666666667 935.666666667 123 927 119 c 0
 924.333333333 117.666666667 921.333333333 117 918 117 c 0
 916 117 914.333333333 117.166666667 913 117.5 c 128
 911.666666667 117.833333333 910.333333333 118 909 118 c 0
 826.333333333 118 750.833333333 103 682.5 73 c 128
 614.166666667 43 560.666666667 -5.33333333333 522 -72 c 1
 520 -84 512.333333333 -90 499 -90 c 0
303 521 m 1
 334.333333333 532.333333333 364.666666667 546.666666667 394 564 c 128
 423.333333333 581.333333333 451 600.333333333 477 621 c 1
 477 760 l 1
 438.333333333 713.333333333 391.5 677.333333333 336.5 652 c 128
 281.5 626.666666667 221.333333333 611 156 605 c 1
 303 521 l 1
697 521 m 1
 843 605 l 1
 778.333333333 611.666666667 718.333333333 627.5 663 652.5 c 128
 607.666666667 677.5 560.666666667 713.333333333 522 760 c 1
 522 621 l 1
 548 600.333333333 575.666666667 581.333333333 605 564 c 128
 634.333333333 546.666666667 665 532.333333333 697 521 c 1
477 420 m 1
 477 569 l 1
 457 554.333333333 436.166666667 540.666666667 414.5 528 c 128
 392.833333333 515.333333333 370.333333333 504.333333333 347 495 c 1
 477 420 l 1
522 420 m 1
 651 495 l 1
 628.333333333 504.333333333 606.166666667 515.333333333 584.5 528 c 128
 562.833333333 540.666666667 542 554.333333333 522 569 c 1
 522 420 l 1
132 195 m 1
 280 280 l 1
 282.666666667 296.666666667 284.666666667 313.5 286 330.5 c 128
 287.333333333 347.5 288 364.333333333 288 381 c 256
 288 397.666666667 287.333333333 414.333333333 286 431 c 128
 284.666666667 447.666666667 282.666666667 464.333333333 280 481 c 1
 133 566 l 1
 157 506 169 444.666666667 169 382 c 0
 169 349.333333333 165.833333333 317.333333333 159.5 286 c 128
 153.166666667 254.666666667 144 224.333333333 132 195 c 1
867 194 m 1
 842.333333333 254.666666667 830 317 830 381 c 0
 830 443 842.333333333 504.666666667 867 566 c 1
 719 481 l 1
 716.333333333 464.333333333 714.333333333 447.666666667 713 431 c 128
 711.666666667 414.333333333 711 397.333333333 711 380 c 0
 711 363.333333333 711.666666667 346.666666667 713 330 c 128
 714.333333333 313.333333333 716.333333333 296.666666667 719 280 c 1
 867 194 l 1
324 306 m 1
 454 380 l 1
 325 455 l 1
 326.333333333 443 327.333333333 431 328 419 c 128
 328.666666667 407 329 395 329 383 c 0
 329 370.333333333 328.5 357.666666667 327.5 345 c 128
 326.5 332.333333333 325.333333333 319.333333333 324 306 c 1
675 306 m 1
 673.666666667 318.666666667 672.5 331.333333333 671.5 344 c 128
 670.5 356.666666667 670 369.333333333 670 382 c 0
 670 394 670.5 406.166666667 671.5 418.5 c 128
 672.5 430.833333333 673.333333333 443 674 455 c 1
 545 380 l 1
 675 306 l 1
477 193 m 1
 477 341 l 1
 348 267 l 1
 392.666666667 247.666666667 435.666666667 223 477 193 c 1
522 193 m 1
 563.333333333 223 606.333333333 247.666666667 651 267 c 1
 522 341 l 1
 522 193 l 1
477 3 m 1
 477 141 l 1
 451 162.333333333 423.5 181.333333333 394.5 198 c 128
 365.5 214.666666667 335 229 303 241 c 1
 157 157 l 1
 222.333333333 151 282.333333333 135.333333333 337 110 c 128
 391.666666667 84.6666666667 438.333333333 49 477 3 c 1
522 2 m 1
 560.666666667 48.6666666667 607.333333333 84.6666666667 662 110 c 128
 716.666666667 135.333333333 776.333333333 151 841 157 c 1
 696 241 l 1
 631.333333333 217 573.333333333 183.666666667 522 141 c 1
 522 2 l 1
EndSplineSet
Validated: 524289
EndChar

StartChar: numbersign
Encoding: 35 35 2
Width: 1061
Flags: HW
LayerCount: 2
Fore
SplineSet
531 -122 m 0
 473.666666667 -122 418.666666667 -112.333333333 366 -93 c 128
 313.333333333 -73.6666666667 265.666666667 -46 223 -10 c 128
 180.333333333 26 144.666666667 68.3333333333 116 117 c 0
 72.6666666667 190.333333333 51 270.333333333 51 357 c 0
 51 415 60.8333333333 470.166666667 80.5 522.5 c 128
 100.166666667 574.833333333 128 622.5 164 665.5 c 128
 200 708.5 242.333333333 744.333333333 291 773 c 0
 363.666666667 815.666666667 443.666666667 837 531 837 c 0
 589 837 644.166666667 827.333333333 696.5 808 c 128
 748.833333333 788.666666667 796.333333333 761.166666667 839 725.5 c 128
 881.666666667 689.833333333 917.333333333 647.333333333 946 598 c 0
 988.666666667 524.666666667 1010 444.333333333 1010 357 c 0
 1010 299.666666667 1000.33333333 244.833333333 981 192.5 c 128
 961.666666667 140.166666667 934.166666667 92.6666666667 898.5 50 c 128
 862.833333333 7.33333333333 820.333333333 -28.3333333333 771 -57 c 0
 697.666666667 -100.333333333 617.666666667 -122 531 -122 c 0
832 154 m 1
 873.333333333 214.666666667 894 282.333333333 894 357 c 0
 894 423 877.833333333 483.833333333 845.5 539.5 c 128
 813.166666667 595.166666667 769.666666667 639 715 671 c 0
 658.333333333 704.333333333 597 721 531 721 c 0
 457 721 389.333333333 700 328 658 c 1
 384 601 l 1
 421.333333333 631 467.333333333 646 522 646 c 0
 608.666666667 646 673 613 715 547 c 0
 722.333333333 535.666666667 728 524.166666667 732 512.5 c 128
 736 500.833333333 738.333333333 488.666666667 739 476 c 0
 740.333333333 470 744 467 750 467 c 0
 755.333333333 467 760.333333333 471 765 479 c 0
 769 485 773.166666667 489.166666667 777.5 491.5 c 128
 781.833333333 493.833333333 789 495 799 495 c 256
 809 495 814 491.333333333 814 484 c 0
 814 478.666666667 811.666666667 471 807 461 c 1
 806.333333333 435 795.333333333 422 774 422 c 0
 766.666666667 422 759.666666667 423.166666667 753 425.5 c 128
 746.333333333 427.833333333 741.666666667 430.333333333 739 433 c 1
 737 417 l 1
 750.333333333 415.666666667 761 410.5 769 401.5 c 128
 777 392.5 781 380.333333333 781 365 c 0
 781 341 775 320.5 763 303.5 c 128
 751 286.5 735.666666667 278 717 278 c 1
 715 270 l 1
 832 154 l 1
491 479 m 256
 491.666666667 479 494 480 498 482 c 1
 499 485 l 2
 499 486.333333333 498.666666667 487.333333333 498 488 c 0
 498 492.666666667 500 497 504 501 c 2
 512 509 l 1
 513.333333333 501 518 497 526 497 c 2
 532 498 l 2
 538.666666667 498.666666667 543.666666667 499.833333333 547 501.5 c 128
 550.333333333 503.166666667 552 506.666666667 552 512 c 1
 554.666666667 510.666666667 557.666666667 508.333333333 561 505 c 128
 564.333333333 501.666666667 566 497.666666667 566 493 c 0
 566 491.666666667 567 490 569 488 c 128
 571 486 573 485 575 485 c 0
 577.666666667 485 579.666666667 485.666666667 581 487 c 2
 583 492 l 2
 583 494 582 496 580 498 c 1
 582 498 l 2
 583 497 583 497 584 496 c 128
 584.666666667 495.333333333 585 494.333333333 585 493 c 1
 588 495 l 2
 588.666666667 495.666666667 589 497.333333333 589 500 c 0
 589 503.333333333 588 505.333333333 586 506 c 0
 584.666666667 507.333333333 583.666666667 508 583 508 c 2
 580 508 l 2
 576 508 571.833333333 509.5 567.5 512.5 c 128
 563.166666667 515.5 560.333333333 518 559 520 c 0
 563.666666667 524.666666667 566 532 566 542 c 0
 566 549.333333333 564.333333333 557.333333333 561 566 c 1
 565 570 l 2
 567 572 570.333333333 573.666666667 575 575 c 0
 578.333333333 575 580 576 580 578 c 0
 582 580 583 582 583 584 c 0
 583 588.666666667 580.666666667 591 576 591 c 0
 573.333333333 591 571.333333333 590 570 588 c 1
 570 589.333333333 571.666666667 591.333333333 575 594 c 1
 573 597 l 1
 568 598 l 2
 566 598 564 597 562 595 c 0
 561.333333333 594.333333333 561 592.666666667 561 590 c 2
 561 588 l 2
 561 585.333333333 559.333333333 581.333333333 556 576 c 2
 553 572 l 1
 548.333333333 576.666666667 541.333333333 579 532 579 c 0
 518.666666667 579 509 575.666666667 503 569 c 1
 499 573 l 2
 495.666666667 576.333333333 493.666666667 580 493 584 c 0
 493 586.666666667 492 588.333333333 490 589 c 0
 488.666666667 590.333333333 487 591 485 591 c 0
 479.666666667 591 477 588.666666667 477 584 c 0
 477 582 478 580 480 578 c 2
 480 577 l 1
 480 578.333333333 479.333333333 579 478 579 c 0
 476 581 475 582.666666667 475 584 c 1
 472 582 l 2
 470.666666667 580.666666667 470 579 470 577 c 0
 470 573.666666667 471.333333333 571.666666667 474 571 c 0
 475.333333333 569 477.333333333 568 480 568 c 0
 484 568 488 567 492 565 c 2
 495 561 l 1
 493 555 492 549 492 543 c 0
 492 531 496 522 504 516 c 1
 500 512 l 2
 497 509 497 509 494 506 c 128
 492 504 489 502.333333333 485 501 c 0
 479 501 476 498.333333333 476 493 c 0
 476 488.333333333 478.666666667 486 484 486 c 0
 487.333333333 486 489.333333333 487 490 489 c 2
 491 489 l 1
 489.666666667 487.666666667 489 486.666666667 489 486 c 2
 485 483 l 1
 486 481 l 2
 488 480 488 480 489 479.5 c 128
 489.666666667 479.166666667 490.333333333 479 491 479 c 256
531 -6 m 0
 605 -6 672.333333333 14.6666666667 733 56 c 1
 677 112 l 1
 668.333333333 98 653.666666667 89 633 85 c 0
 613 81 579 79 531 79 c 0
 510.333333333 79 492.5 79.5 477.5 80.5 c 128
 462.5 81.5 450.333333333 82.6666666667 441 84 c 0
 422.333333333 87.3333333333 408.333333333 94.1666666667 399 104.5 c 128
 389.666666667 114.833333333 382 132.333333333 376 157 c 0
 373.333333333 169.666666667 370.5 183.166666667 367.5 197.5 c 128
 364.5 211.833333333 361.666666667 226.666666667 359 242 c 2
 353 278 l 1
 334.333333333 278 319 286.5 307 303.5 c 128
 295 320.5 289 341 289 365 c 0
 289 378.333333333 292.5 389.666666667 299.5 399 c 128
 306.5 408.333333333 317.333333333 414 332 416 c 1
 326 427.333333333 323 441 323 457 c 2
 323 467 l 1
 230 561 l 1
 188 499 167 431 167 357 c 0
 167 291.666666667 183.5 231.333333333 216.5 176 c 128
 249.5 120.666666667 293.666666667 76.3333333333 349 43 c 0
 403.666666667 10.3333333333 464.333333333 -6 531 -6 c 0
547 533 m 0
 541 533 537 536 535 542 c 2
 534 545 l 2
 534 550.333333333 537.333333333 553 544 553 c 0
 548 553 551.5 551.833333333 554.5 549.5 c 128
 557.5 547.166666667 559 544.666666667 559 542 c 0
 559 536 555 533 547 533 c 0
511 530 m 0
 504.333333333 530 501 533 501 539 c 0
 501 541 502.5 543.333333333 505.5 546 c 128
 508.5 548.666666667 511.333333333 550 514 550 c 2
 516 550 l 2
 522 550 525 547 525 541 c 0
 525 537.666666667 523.5 535 520.5 533 c 128
 517.5 531 514.333333333 530 511 530 c 0
532 515 m 0
 528 515 526 517.333333333 526 522 c 256
 526 526.666666667 527.666666667 529 531 529 c 0
 535 529 537 526.333333333 537 521 c 0
 537 517 535.333333333 515 532 515 c 0
705 402 m 1
 694.333333333 416 678.166666667 426.666666667 656.5 434 c 128
 634.833333333 441.333333333 611.333333333 445 586 445 c 0
 567.333333333 445 549 444 531 442 c 128
 513 440 495.333333333 437.333333333 478 434 c 1
 522 426.666666667 563 420.333333333 601 415 c 128
 639 409.666666667 673.666666667 405.333333333 705 402 c 1
531 235 m 0
 548.333333333 235 564.333333333 235.333333333 579 236 c 128
 593.666666667 236.666666667 607 237.666666667 619 239 c 0
 642.333333333 242.333333333 658.333333333 245.333333333 667 248 c 1
 679.666666667 261.333333333 690.833333333 278 700.5 298 c 128
 710.166666667 318 715 336 715 352 c 0
 715 359.333333333 714.666666667 366 714 372 c 128
 713.333333333 378 712.666666667 382.333333333 712 385 c 2
 692 388 l 1
 692 356.666666667 686.5 335.5 675.5 324.5 c 128
 664.5 313.5 648.666666667 308 628 308 c 0
 608 308 592.833333333 313.166666667 582.5 323.5 c 128
 572.166666667 333.833333333 567 352.333333333 567 379 c 2
 567 403 l 1
 441 425 l 1
 422 419 l 1
 497 377 l 2
 502.333333333 373.666666667 505 371 505 369 c 0
 505 363 502.333333333 360 497 360 c 0
 494.333333333 360 491.333333333 361.333333333 488 364 c 2
 470 374 l 1
 471.333333333 368.666666667 472 365 472 363 c 0
 472 356.333333333 469.666666667 350.5 465 345.5 c 128
 460.333333333 340.5 453.333333333 338 444 338 c 256
 434.666666667 338 427.5 340.666666667 422.5 346 c 128
 417.5 351.333333333 415 358.333333333 415 367 c 0
 415 379.666666667 421.666666667 388.666666667 435 394 c 1
 404 412 l 2
 401.333333333 411.333333333 396.166666667 409.5 388.5 406.5 c 128
 380.833333333 403.5 371.333333333 399.333333333 360 394 c 1
 357.333333333 382.666666667 356 368.333333333 356 351 c 0
 356 335.666666667 360.333333333 318.166666667 369 298.5 c 128
 377.666666667 278.833333333 387.666666667 262 399 248 c 1
 408.333333333 245.333333333 424.333333333 242.333333333 447 239 c 0
 458.333333333 237.666666667 471 236.666666667 485 236 c 128
 499 235.333333333 514.333333333 235 531 235 c 0
346 300 m 1
 339.333333333 316 336 336.333333333 336 361 c 0
 336 373 337 384 339 394 c 1
 319.666666667 394 310 384.333333333 310 365 c 256
 310 345.666666667 313.5 330 320.5 318 c 128
 327.5 306 336 300 346 300 c 1
724 300 m 1
 734 300 742.5 306 749.5 318 c 128
 756.5 330 760 345.666666667 760 365 c 256
 760 384.333333333 750.333333333 394 731 394 c 1
 733 384 734 373 734 361 c 0
 734 336.333333333 730.666666667 316 724 300 c 1
503 249 m 1
 503 263 l 1
 537 263 l 1
 537 378 l 1
 551 378 l 1
 551 249 l 1
 503 249 l 1
489 164 m 0
 495 164 500.333333333 165 505 167 c 256
 509.666666667 169 515.333333333 172.333333333 522 177 c 0
 525.333333333 179.666666667 528.666666667 182 532 184 c 128
 535.333333333 186 538.333333333 187.333333333 541 188 c 0
 547.666666667 191.333333333 556.666666667 193 568 193 c 0
 574.666666667 193 579.833333333 193.166666667 583.5 193.5 c 128
 587.166666667 193.833333333 589.666666667 194.333333333 591 195 c 0
 593.666666667 195.666666667 595 199.666666667 595 207 c 0
 595 211.666666667 589 214 577 214 c 0
 554.333333333 214 531 211 507 205 c 0
 482.333333333 199 470 194 470 190 c 0
 470 188.666666667 471 186.333333333 473 183 c 256
 475 179.666666667 476.666666667 176.333333333 478 173 c 0
 481.333333333 167 485 164 489 164 c 0
EndSplineSet
Validated: 524289
EndChar

StartChar: dollar
Encoding: 36 36 3
Width: 1066
Flags: HW
LayerCount: 2
Fore
SplineSet
265 164 m 0
 231 164 200.333333333 170.833333333 173 184.5 c 128
 145.666666667 198.166666667 124 220.666666667 108 252 c 128
 92 283.333333333 84 325.666666667 84 379 c 0
 84 391.666666667 82.5 399.666666667 79.5 403 c 128
 76.5 406.333333333 72 409.333333333 66 412 c 0
 59.3333333333 415.333333333 55.1666666667 418.166666667 53.5 420.5 c 128
 51.8333333333 422.833333333 51 427 51 433 c 0
 51 437.666666667 51.3333333333 445.666666667 52 457 c 128
 52.6666666667 468.333333333 53.3333333333 475.666666667 54 479 c 0
 55.3333333333 487.666666667 57.5 493 60.5 495 c 128
 63.5 497 68.3333333333 498.333333333 75 499 c 0
 112.333333333 504.333333333 145.666666667 508.333333333 175 511 c 128
 204.333333333 513.666666667 230.666666667 515 254 515 c 0
 284 515 310.666666667 513.666666667 334 511 c 128
 357.333333333 508.333333333 379.166666667 505 399.5 501 c 128
 419.833333333 497 440.666666667 493.666666667 462 491 c 128
 483.333333333 488.333333333 507 487 533 487 c 256
 559 487 582.5 488.5 603.5 491.5 c 128
 624.5 494.5 645 498.166666667 665 502.5 c 128
 685 506.833333333 706.5 510.5 729.5 513.5 c 128
 752.5 516.5 778.666666667 518 808 518 c 0
 832 518 858.833333333 516.833333333 888.5 514.5 c 128
 918.166666667 512.166666667 952.333333333 507.333333333 991 500 c 0
 999.666666667 498.666666667 1005.33333333 496.833333333 1008 494.5 c 128
 1010.66666667 492.166666667 1012.33333333 487 1013 479 c 0
 1013.66666667 475.666666667 1014.16666667 468.166666667 1014.5 456.5 c 128
 1014.83333333 444.833333333 1015 437.333333333 1015 434 c 0
 1015 428.666666667 1014.16666667 424.5 1012.5 421.5 c 128
 1010.83333333 418.5 1006.33333333 415.333333333 999 412 c 0
 993 409.333333333 988.666666667 406.333333333 986 403 c 128
 983.333333333 399.666666667 982 391.666666667 982 379 c 0
 982 323.666666667 974 280.333333333 958 249 c 128
 942 217.666666667 920.333333333 195.666666667 893 183 c 128
 865.666666667 170.333333333 834.666666667 164 800 164 c 0
 750 164 706.166666667 177.333333333 668.5 204 c 128
 630.833333333 230.666666667 603.333333333 266.333333333 586 311 c 0
 573.333333333 343 563 367 555 383 c 128
 547 399 539.333333333 407 532 407 c 0
 525.333333333 407 517.833333333 399 509.5 383 c 128
 501.166666667 367 490.666666667 343 478 311 c 0
 460.666666667 266.333333333 433.333333333 230.666666667 396 204 c 128
 358.666666667 177.333333333 315 164 265 164 c 0
137 309 m 1
 139 331 144 353.333333333 152 376 c 128
 160 398.666666667 170.666666667 419 184 437 c 128
 197.333333333 455 213 467.333333333 231 474 c 1
 211.666666667 472 192.333333333 469 173 465 c 0
 155 461 142.833333333 454.5 136.5 445.5 c 128
 130.166666667 436.5 127 419.333333333 127 394 c 0
 127 378.666666667 127.666666667 363.666666667 129 349 c 128
 130.333333333 334.333333333 133 321 137 309 c 1
659 288 m 1
 657.666666667 295.333333333 656.666666667 302.666666667 656 310 c 128
 655.333333333 317.333333333 655 325 655 333 c 0
 655 368.333333333 662 397.333333333 676 420 c 128
 690 442.666666667 707.333333333 459 728 469 c 1
 714.666666667 466.333333333 701.666666667 463.5 689 460.5 c 128
 676.333333333 457.5 665 453.666666667 655 449 c 0
 639.666666667 442.333333333 628.666666667 435.666666667 622 429 c 128
 615.333333333 422.333333333 612 415 612 407 c 0
 612 401 613.333333333 394.333333333 616 387 c 0
 622 371 628.333333333 354.333333333 635 337 c 128
 641.666666667 319.666666667 649.666666667 303.333333333 659 288 c 1
EndSplineSet
Validated: 524289
EndChar

StartChar: percent
Encoding: 37 37 4
Width: 1105
Flags: HW
LayerCount: 2
Fore
SplineSet
232 -103 m 2
 225.333333333 -103 219.5 -100.666666667 214.5 -96 c 128
 209.5 -91.3333333333 207 -85.6666666667 207 -79 c 2
 207 -10 l 2
 207 -3.33333333333 209.5 2.5 214.5 7.5 c 128
 219.5 12.5 225.333333333 15 232 15 c 2
 279 15 l 1
 324 183 l 2
 326 191.666666667 332 197.333333333 342 200 c 1
 342 210 l 2
 342 237.333333333 350.833333333 258 368.5 272 c 128
 386.166666667 286 405.333333333 297.666666667 426 307 c 1
 424.666666667 313 418.666666667 321.166666667 408 331.5 c 128
 397.333333333 341.833333333 385.833333333 352.333333333 373.5 363 c 128
 361.166666667 373.666666667 350.666666667 383 342 391 c 1
 326 363.666666667 303 350 273 350 c 0
 255 350 239.333333333 356.833333333 226 370.5 c 128
 212.666666667 384.166666667 206 401.333333333 206 422 c 0
 206 428.666666667 206.666666667 434.166666667 208 438.5 c 128
 209.333333333 442.833333333 210.333333333 447.333333333 211 452 c 1
 207 454 l 2
 205 455.333333333 202.5 456.5 199.5 457.5 c 128
 196.5 458.5 193 459.333333333 189 460 c 0
 146.333333333 473.333333333 112.666666667 495.333333333 88 526 c 128
 63.3333333333 556.666666667 51 592.333333333 51 633 c 0
 51 661 57.3333333333 686.166666667 70 708.5 c 128
 82.6666666667 730.833333333 100 748.333333333 122 761 c 128
 144 773.666666667 168.666666667 780 196 780 c 0
 218.666666667 780 239.333333333 776 258 768 c 1
 273.333333333 788 291.666666667 804.166666667 313 816.5 c 128
 334.333333333 828.833333333 356 838.5 378 845.5 c 128
 400 852.5 420.166666667 857.5 438.5 860.5 c 128
 456.833333333 863.5 471 865.333333333 481 866 c 0
 492.333333333 867.333333333 504 868 516 868 c 128
 534 868 534 868 556 868 c 0
 577 868 577 868 595.5 868 c 128
 607.833333333 868 619.666666667 867.333333333 631 866 c 0
 641 865.333333333 655 863.5 673 860.5 c 128
 691 857.5 710.833333333 852.666666667 732.5 846 c 128
 754.166666667 839.333333333 775.666666667 830 797 818 c 128
 818.333333333 806 837 790.333333333 853 771 c 1
 861 774.333333333 869.833333333 776.666666667 879.5 778 c 128
 889.166666667 779.333333333 899 780 909 780 c 0
 956.333333333 780 994 762.333333333 1022 727 c 0
 1043.33333333 700.333333333 1054 669 1054 633 c 0
 1054 598.333333333 1044 565.833333333 1024 535.5 c 128
 1004 505.166666667 976.666666667 483 942 469 c 0
 933.333333333 465.666666667 925.166666667 463 917.5 461 c 128
 909.833333333 459 903.333333333 456.666666667 898 454 c 2
 894 452 l 1
 895.333333333 448 896.5 443.5 897.5 438.5 c 128
 898.5 433.5 899 427.333333333 899 420 c 0
 899 399.333333333 892.166666667 382.5 878.5 369.5 c 128
 864.833333333 356.5 848.333333333 350 829 350 c 0
 803.666666667 350 782.333333333 362.333333333 765 387 c 1
 762.333333333 385 756.833333333 380.333333333 748.5 373 c 128
 740.166666667 365.666666667 731.333333333 357.5 722 348.5 c 128
 712.666666667 339.5 704.5 331.166666667 697.5 323.5 c 128
 690.5 315.833333333 686.666666667 310.333333333 686 307 c 1
 717.333333333 293.666666667 739 278.666666667 751 262 c 128
 763 245.333333333 769 227.333333333 769 208 c 0
 769 204.666666667 768.666666667 202 768 200 c 1
 779.333333333 198 786 192.333333333 788 183 c 2
 832 15 l 1
 879 15 l 2
 885 15 890.666666667 12.5 896 7.5 c 128
 901.333333333 2.5 904 -3.33333333333 904 -10 c 2
 904 -79 l 2
 904 -85.6666666667 901.5 -91.3333333333 896.5 -96 c 128
 891.5 -100.666666667 885.666666667 -103 879 -103 c 2
 232 -103 l 2
530 176 m 0
 549.333333333 176 568 176.333333333 586 177 c 128
 604 177.666666667 620.333333333 178 635 178 c 0
 645 178 656.833333333 178.5 670.5 179.5 c 128
 684.166666667 180.5 696.166666667 183.166666667 706.5 187.5 c 128
 716.833333333 191.833333333 722 198.666666667 722 208 c 0
 722 221.333333333 717.333333333 232 708 240 c 0
 698 249.333333333 687.5 256 676.5 260 c 128
 665.5 264 656.333333333 269 649 275 c 128
 641.666666667 281 638 290.666666667 638 304 c 0
 638 320.666666667 642.833333333 334.5 652.5 345.5 c 128
 662.166666667 356.5 672.333333333 366.333333333 683 375 c 0
 693.666666667 384.333333333 704.166666667 393.833333333 714.5 403.5 c 128
 724.833333333 413.166666667 735 423 745 433 c 0
 776.333333333 468.333333333 798 508.166666667 810 552.5 c 128
 822 596.833333333 828 643.333333333 828 692 c 0
 828 702.666666667 826.833333333 712.166666667 824.5 720.5 c 128
 822.166666667 728.833333333 818 737 812 745 c 0
 789.333333333 767.666666667 763.166666667 784.5 733.5 795.5 c 128
 703.833333333 806.5 673.666666667 813.666666667 643 817 c 128
 612.333333333 820.333333333 583.333333333 822 556 822 c 256
 528.666666667 822 500 820.333333333 470 817 c 128
 440 813.666666667 410.666666667 806.833333333 382 796.5 c 128
 353.333333333 786.166666667 327 770.666666667 303 750 c 0
 295 743.333333333 289.666666667 734.666666667 287 724 c 128
 284.333333333 713.333333333 283 702.666666667 283 692 c 0
 283 678 284 665 286 653 c 128
 288 641 289.666666667 628.333333333 291 615 c 0
 296.333333333 572.333333333 305 537.333333333 317 510 c 128
 329 482.666666667 344.333333333 458.833333333 363 438.5 c 128
 381.666666667 418.166666667 403.333333333 397 428 375 c 0
 438.666666667 366.333333333 448.833333333 356.5 458.5 345.5 c 128
 468.166666667 334.5 473 320.666666667 473 304 c 0
 473 291.333333333 468.666666667 281.5 460 274.5 c 128
 451.333333333 267.5 441.5 261.5 430.5 256.5 c 128
 419.5 251.5 409.666666667 245.5 401 238.5 c 128
 392.333333333 231.5 388 221.333333333 388 208 c 0
 388 207.333333333 388.166666667 205.833333333 388.5 203.5 c 128
 388.833333333 201.166666667 389.333333333 199.666666667 390 199 c 0
 393.333333333 190.333333333 399 184.833333333 407 182.5 c 128
 415 180.166666667 423.666666667 179 433 179 c 128
 442.333333333 179 450.333333333 178.666666667 457 178 c 0
 469.666666667 177.333333333 482.166666667 176.833333333 494.5 176.5 c 128
 506.833333333 176.166666667 518.666666667 176 530 176 c 0
556 654 m 256
 516.666666667 654 481 656.666666667 449 662 c 128
 417 667.333333333 391.5 674.5 372.5 683.5 c 128
 353.5 692.5 344 702.666666667 344 714 c 256
 344 725.333333333 353.5 735.5 372.5 744.5 c 128
 391.5 753.5 417 760.666666667 449 766 c 128
 481 771.333333333 516.666666667 774 556 774 c 256
 595.333333333 774 631 771.333333333 663 766 c 128
 695 760.666666667 720.5 753.5 739.5 744.5 c 128
 758.5 735.5 768 725.333333333 768 714 c 256
 768 702.666666667 758.5 692.5 739.5 683.5 c 128
 720.5 674.5 695 667.333333333 663 662 c 128
 631 656.666666667 595.333333333 654 556 654 c 256
274 397 m 0
 282.666666667 397 289.833333333 400 295.5 406 c 128
 301.166666667 412 305.666666667 419 309 427 c 1
 295.666666667 443 285 461.166666667 277 481.5 c 128
 269 501.833333333 262.333333333 522.666666667 257 544 c 1
 245.666666667 550 232.5 556.666666667 217.5 564 c 128
 202.5 571.333333333 189.666666667 580.333333333 179 591 c 128
 168.333333333 601.666666667 163 614.333333333 163 629 c 0
 163 638.333333333 165.666666667 646.333333333 171 653 c 128
 176.333333333 659.666666667 184.333333333 663 195 663 c 0
 203.666666667 663 211.833333333 660.333333333 219.5 655 c 128
 227.166666667 649.666666667 234.333333333 644 241 638 c 1
 240.333333333 647.333333333 239.5 656.166666667 238.5 664.5 c 128
 237.5 672.833333333 237 682 237 692 c 0
 237 704 238 715 240 725 c 1
 225.333333333 731 210.666666667 734 196 734 c 0
 166 734 142.166666667 724 124.5 704 c 128
 106.833333333 684 98 659.666666667 98 631 c 0
 98 604.333333333 105.833333333 580.333333333 121.5 559 c 128
 137.166666667 537.666666667 157 522.333333333 181 513 c 0
 188.333333333 510.333333333 196 508 204 506 c 128
 212 504 219.333333333 501.333333333 226 498 c 0
 234.666666667 493.333333333 242.5 487.166666667 249.5 479.5 c 128
 256.5 471.833333333 260 464.333333333 260 457 c 0
 260 451.666666667 258.833333333 445.833333333 256.5 439.5 c 128
 254.166666667 433.166666667 253 426.666666667 253 420 c 0
 253 414 255 408.666666667 259 404 c 128
 263 399.333333333 268 397 274 397 c 0
831 397 m 256
 838.333333333 397 843.666666667 399.5 847 404.5 c 128
 850.333333333 409.5 852 415.333333333 852 422 c 256
 852 428.666666667 851 435 849 441 c 128
 847 447 846 452.333333333 846 457 c 0
 846 462.333333333 847.333333333 467.333333333 850 472 c 0
 858 485.333333333 869.166666667 494 883.5 498 c 128
 897.833333333 502 911.333333333 507 924 513 c 0
 941.333333333 521 957.5 532.5 972.5 547.5 c 128
 987.5 562.5 997.333333333 579.333333333 1002 598 c 0
 1005.33333333 610 1007 621 1007 631 c 0
 1007 659.666666667 998.166666667 684 980.5 704 c 128
 962.833333333 724 939 734 909 734 c 0
 904.333333333 734 898.666666667 733.5 892 732.5 c 128
 885.333333333 731.5 878.666666667 729.666666667 872 727 c 1
 873.333333333 721.666666667 874.166666667 716 874.5 710 c 128
 874.833333333 704 875 698.333333333 875 693 c 0
 875 685.666666667 874.666666667 678.166666667 874 670.5 c 128
 873.333333333 662.833333333 872.666666667 656 872 650 c 2
 871 644 l 1
 877 649.333333333 883.333333333 653.833333333 890 657.5 c 128
 896.666666667 661.166666667 903.333333333 663 910 663 c 0
 921.333333333 663 929.5 659.833333333 934.5 653.5 c 128
 939.5 647.166666667 942 639.333333333 942 630 c 0
 942 615.333333333 937.166666667 603 927.5 593 c 128
 917.833333333 583 906.333333333 574.5 893 567.5 c 128
 879.666666667 560.5 867.666666667 554 857 548 c 1
 851.666666667 524.666666667 844.333333333 502.333333333 835 481 c 128
 825.666666667 459.666666667 813.333333333 440 798 422 c 1
 802 415.333333333 806.666666667 409.5 812 404.5 c 128
 817.333333333 399.5 823.666666667 397 831 397 c 256
612 358 m 0
 609.333333333 358 606.833333333 358.5 604.5 359.5 c 128
 602.166666667 360.5 601 362.333333333 601 365 c 0
 601 368.333333333 602.166666667 371.5 604.5 374.5 c 128
 606.833333333 377.5 608.333333333 379.666666667 609 381 c 0
 613 387 616.5 392.833333333 619.5 398.5 c 128
 622.5 404.166666667 625.333333333 409.666666667 628 415 c 0
 640.666666667 442.333333333 649.666666667 468 655 492 c 128
 660.333333333 516 664.666666667 542 668 570 c 0
 668.666666667 574 669.666666667 578.666666667 671 584 c 128
 672.333333333 589.333333333 674.333333333 594.333333333 677 599 c 0
 680.333333333 603 685 605.666666667 691 607 c 128
 697 608.333333333 702.333333333 609.333333333 707 610 c 0
 710.333333333 612 716.333333333 614.5 725 617.5 c 128
 733.666666667 620.5 740.333333333 622 745 622 c 2
 748 622 l 2
 751.333333333 622 753.5 620.166666667 754.5 616.5 c 128
 755.5 612.833333333 756 609.333333333 756 606 c 0
 755.333333333 595.333333333 753.833333333 586 751.5 578 c 128
 749.166666667 570 747 562 745 554 c 0
 739 530 730.833333333 505.166666667 720.5 479.5 c 128
 710.166666667 453.833333333 696.833333333 430.333333333 680.5 409 c 128
 664.166666667 387.666666667 643.666666667 371 619 359 c 0
 618.333333333 358.333333333 616 358 612 358 c 0
632 190 m 0
 628.666666667 190 624.833333333 190.5 620.5 191.5 c 128
 616.166666667 192.5 614 194.333333333 614 197 c 0
 614 200.333333333 616.333333333 203 621 205 c 128
 625.666666667 207 628 212.333333333 628 221 c 0
 628 228.333333333 626.333333333 234.333333333 623 239 c 128
 619.666666667 243.666666667 618 247 618 249 c 0
 618 251.666666667 620.333333333 253 625 253 c 0
 634.333333333 253 644.666666667 249.333333333 656 242 c 128
 667.333333333 234.666666667 673 224.666666667 673 212 c 0
 673 202 668.5 195.833333333 659.5 193.5 c 128
 650.5 191.166666667 641.333333333 190 632 190 c 0
435 7 m 2
 677 7 l 2
 679.666666667 7 682.833333333 8.16666666667 686.5 10.5 c 128
 690.166666667 12.8333333333 692 16.6666666667 692 22 c 2
 692 90 l 2
 692 94.6666666667 690.333333333 98.5 687 101.5 c 128
 683.666666667 104.5 680.333333333 106 677 106 c 2
 435 106 l 2
 431 106 427.5 104.333333333 424.5 101 c 128
 421.5 97.6666666667 420 94 420 90 c 2
 420 22 l 2
 420 18.6666666667 421.333333333 15.3333333333 424 12 c 128
 426.666666667 8.66666666667 430.333333333 7 435 7 c 2
EndSplineSet
Validated: 524289
EndChar

StartChar: ampersand
Encoding: 38 38 5
Width: 615
Flags: HW
LayerCount: 2
Fore
SplineSet
308 384 m 1
 69 521 l 2
 57 528.333333333 51 538 51 550 c 2
 51 774 l 2
 51 790.666666667 59.3333333333 799 76 799 c 2
 540 799 l 2
 556 799 564 790.666666667 564 774 c 2
 564 550 l 2
 564 537.333333333 558.333333333 527.666666667 547 521 c 2
 308 384 l 1
308 433 m 1
 388 482 l 2
 399.333333333 488.666666667 405 498.333333333 405 511 c 2
 405 765 l 1
 211 765 l 1
 211 511 l 2
 211 498.333333333 216.333333333 488.666666667 227 482 c 2
 308 433 l 1
308 -111 m 256
 264 -111 223.833333333 -100.166666667 187.5 -78.5 c 128
 151.166666667 -56.8333333333 122.333333333 -28 101 8 c 128
 79.6666666667 44 69 84 69 128 c 256
 69 172 79.6666666667 212 101 248 c 128
 122.333333333 284 151.166666667 312.833333333 187.5 334.5 c 128
 223.833333333 356.166666667 264 367 308 367 c 256
 352 367 392 356.166666667 428 334.5 c 128
 464 312.833333333 492.833333333 284 514.5 248 c 128
 536.166666667 212 547 172 547 128 c 256
 547 84 536.166666667 44 514.5 8 c 128
 492.833333333 -28 464 -56.8333333333 428 -78.5 c 128
 392 -100.166666667 352 -111 308 -111 c 256
308 -69 m 0
 344.666666667 -69 377.833333333 -60.1666666667 407.5 -42.5 c 128
 437.166666667 -24.8333333333 460.833333333 -1 478.5 29 c 128
 496.166666667 59 505 92 505 128 c 0
 505 164.666666667 496.166666667 197.833333333 478.5 227.5 c 128
 460.833333333 257.166666667 437.166666667 280.833333333 407.5 298.5 c 128
 377.833333333 316.166666667 344.666666667 325 308 325 c 0
 272 325 239 316.166666667 209 298.5 c 128
 179 280.833333333 155.166666667 257.166666667 137.5 227.5 c 128
 119.833333333 197.833333333 111 164.666666667 111 128 c 0
 111 92 119.833333333 59 137.5 29 c 128
 155.166666667 -1 179 -24.8333333333 209 -42.5 c 128
 239 -60.1666666667 272 -69 308 -69 c 0
308 -51 m 0
 275.333333333 -51 245.333333333 -43 218 -27 c 128
 190.666666667 -11 169 10.6666666667 153 38 c 128
 137 65.3333333333 129 95.3333333333 129 128 c 0
 129 161.333333333 137 191.5 153 218.5 c 128
 169 245.5 190.666666667 267 218 283 c 128
 245.333333333 299 275.333333333 307 308 307 c 0
 341.333333333 307 371.5 299 398.5 283 c 128
 425.5 267 447 245.5 463 218.5 c 128
 479 191.5 487 161.333333333 487 128 c 0
 487 95.3333333333 479 65.3333333333 463 38 c 128
 447 10.6666666667 425.5 -11 398.5 -27 c 128
 371.5 -43 341.333333333 -51 308 -51 c 0
285 9 m 1
 309 28 l 1
 332 9 l 1
 347 36 l 1
 376 27 l 1
 379 57 l 1
 409 60 l 1
 401 89 l 1
 427 104 l 1
 408 127 l 1
 427 151 l 1
 401 165 l 1
 409 195 l 1
 379 198 l 1
 376 228 l 1
 347 219 l 1
 332 246 l 1
 309 227 l 1
 285 246 l 1
 271 219 l 1
 242 228 l 1
 239 198 l 1
 208 195 l 1
 217 165 l 1
 190 151 l 1
 209 127 l 1
 190 104 l 1
 217 89 l 1
 208 60 l 1
 239 57 l 1
 242 27 l 1
 271 36 l 1
 285 9 l 1
EndSplineSet
Validated: 524289
EndChar

StartChar: quotesingle
Encoding: 39 39 6
Width: 1000
Flags: HW
LayerCount: 2
Fore
SplineSet
426 -103 m 0
 403.333333333 -103 381.666666667 -92.6666666667 361 -72 c 2
 333 -44 l 2
 313 -24 303 -2.66666666667 303 20 c 256
 303 42.6666666667 313 64 333 84 c 2
 482 233 l 1
 333 382 l 2
 313 402 303 423.666666667 303 447 c 0
 303 469 313 490 333 510 c 2
 334 511 l 1
 333 511 l 1
 313 531 303 552.333333333 303 575 c 256
 303 597.666666667 313 619 333 639 c 2
 510 816 l 2
 530 836 551.666666667 846 575 846 c 0
 597.666666667 846 619 836 639 816 c 2
 667 788 l 2
 687 768 697 746.666666667 697 724 c 0
 697 713.333333333 694.666666667 702.333333333 690 691 c 128
 685.333333333 679.666666667 677.666666667 669 667 659 c 2
 518 511 l 1
 667 362 l 2
 687.666666667 341.333333333 698 320 698 298 c 0
 698 275.333333333 687.666666667 253.666666667 667 233 c 1
 687 213 697 191.666666667 697 169 c 0
 697 158.333333333 694.666666667 147.333333333 690 136 c 128
 685.333333333 124.666666667 677.666666667 114 667 104 c 2
 490 -72 l 2
 468 -92.6666666667 446.666666667 -103 426 -103 c 0
341 575 m 256
 341 562.333333333 347.333333333 549.666666667 360 537 c 1
 362 539 l 2
 382.666666667 559.666666667 404 570 426 570 c 256
 448 570 469.333333333 559.666666667 490 539 c 1
 492 538 l 1
 640 686 l 2
 653.333333333 699.333333333 660 712 660 724 c 0
 660 735.333333333 653.333333333 747.666666667 640 761 c 2
 612 790 l 2
 599.333333333 802.666666667 586.666666667 809 574 809 c 0
 562 809 549.666666667 802.666666667 537 790 c 2
 360 613 l 2
 347.333333333 600.333333333 341 587.666666667 341 575 c 256
426 490 m 0
 438 490 450.333333333 496.333333333 463 509 c 2
 465 511 l 1
 463 513 l 2
 450.333333333 525.666666667 438 532 426 532 c 0
 413.333333333 532 400.666666667 525.666666667 388 513 c 2
 386 511 l 1
 388 509 l 2
 400.666666667 496.333333333 413.333333333 490 426 490 c 0
426 452 m 0
 403.333333333 452 381.666666667 462.333333333 361 483 c 2
 360 484 l 1
 347.333333333 471.333333333 341 459 341 447 c 0
 341 434.333333333 347.333333333 421.666666667 360 409 c 2
 509 260 l 1
 510 261 l 2
 530 281 551.666666667 291 575 291 c 0
 597.666666667 291 619 281 639 261 c 2
 640 260 l 1
 641 260 l 1
 653.666666667 272 660 284.666666667 660 298 c 0
 660 310 653.666666667 322.333333333 641 335 c 2
 492 484 l 1
 490 483 l 1
 468 462.333333333 446.666666667 452 426 452 c 0
574 212 m 0
 586 212 598.666666667 218.666666667 612 232 c 2
 613 233 l 1
 612 235 l 1
 599.333333333 247.666666667 586.666666667 254 574 254 c 0
 562 254 549.666666667 247.666666667 537 235 c 2
 536 234 l 1
 537 232 l 1
 550.333333333 218.666666667 562.666666667 212 574 212 c 0
426 -65 m 0
 438 -65 450.333333333 -58.6666666667 463 -46 c 2
 640 131 l 2
 653.333333333 144.333333333 660 157 660 169 c 0
 660 180.333333333 653.333333333 192.666666667 640 206 c 1
 639 205 l 2
 619 185 597.333333333 175 574 175 c 0
 552 175 531 185 511 205 c 2
 509 207 l 1
 360 58 l 2
 347.333333333 45.3333333333 341 32.6666666667 341 20 c 256
 341 7.33333333333 347.333333333 -5.33333333333 360 -18 c 2
 388 -46 l 2
 400.666666667 -58.6666666667 413.333333333 -65 426 -65 c 0
EndSplineSet
Validated: 524289
EndChar

StartChar: parenleft
Encoding: 40 40 7
Width: 1110
Flags: HW
LayerCount: 2
Fore
SplineSet
1059 -90 m 1
 1005 -86 959.166666667 -78.6666666667 921.5 -68 c 128
 883.833333333 -57.3333333333 852 -44.5 826 -29.5 c 128
 800 -14.5 777.833333333 2 759.5 20 c 128
 741.166666667 38 724.333333333 56.6666666667 709 76 c 1
 682.333333333 68.6666666667 654.5 62.8333333333 625.5 58.5 c 128
 596.5 54.1666666667 566.666666667 52 536 52 c 0
 469.333333333 52 406.666666667 61.3333333333 348 80 c 128
 289.333333333 98.6666666667 237.666666667 124.5 193 157.5 c 128
 148.333333333 190.5 113.5 228.666666667 88.5 272 c 128
 63.5 315.333333333 51 361.666666667 51 411 c 256
 51 460.333333333 63.5 506.666666667 88.5 550 c 128
 113.5 593.333333333 148.333333333 631.333333333 193 664 c 128
 237.666666667 696.666666667 289.333333333 722.333333333 348 741 c 128
 406.666666667 759.666666667 469.333333333 769 536 769 c 256
 602.666666667 769 665.333333333 759.666666667 724 741 c 128
 782.666666667 722.333333333 834.166666667 696.666666667 878.5 664 c 128
 922.833333333 631.333333333 957.5 593.333333333 982.5 550 c 128
 1007.5 506.666666667 1020 460.333333333 1020 411 c 0
 1020 363 1008.16666667 318 984.5 276 c 128
 960.833333333 234 928.333333333 197 887 165 c 1
 890.333333333 137.666666667 897 110.333333333 907 83 c 128
 917 55.6666666667 933.833333333 27.8333333333 957.5 -0.5 c 128
 981.166666667 -28.8333333333 1015 -58.6666666667 1059 -90 c 1
EndSplineSet
Validated: 524289
EndChar

StartChar: parenright
Encoding: 41 41 8
Width: 1110
Flags: HW
LayerCount: 2
Fore
SplineSet
51 -90 m 1
 95.6666666667 -58.6666666667 129.666666667 -28.8333333333 153 -0.5 c 128
 176.333333333 27.8333333333 193 55.6666666667 203 83 c 128
 213 110.333333333 219.666666667 137.666666667 223 165 c 1
 182.333333333 197 150 234 126 276 c 128
 102 318 90 363 90 411 c 0
 90 460.333333333 102.5 506.666666667 127.5 550 c 128
 152.5 593.333333333 187.166666667 631.333333333 231.5 664 c 128
 275.833333333 696.666666667 327.333333333 722.333333333 386 741 c 128
 444.666666667 759.666666667 507.333333333 769 574 769 c 0
 641.333333333 769 704.166666667 759.666666667 762.5 741 c 128
 820.833333333 722.333333333 872.333333333 696.666666667 917 664 c 128
 961.666666667 631.333333333 996.5 593.333333333 1021.5 550 c 128
 1046.5 506.666666667 1059 460.333333333 1059 411 c 256
 1059 361.666666667 1046.5 315.333333333 1021.5 272 c 128
 996.5 228.666666667 961.666666667 190.5 917 157.5 c 128
 872.333333333 124.5 820.833333333 98.6666666667 762.5 80 c 128
 704.166666667 61.3333333333 641.333333333 52 574 52 c 0
 543.333333333 52 513.666666667 54.1666666667 485 58.5 c 128
 456.333333333 62.8333333333 428.333333333 68.6666666667 401 76 c 1
 385.666666667 56.6666666667 368.833333333 38 350.5 20 c 128
 332.166666667 2 310 -14.5 284 -29.5 c 128
 258 -44.5 226.166666667 -57.3333333333 188.5 -68 c 128
 150.833333333 -78.6666666667 105 -86 51 -90 c 1
EndSplineSet
Validated: 524289
EndChar

StartChar: asterisk
Encoding: 42 42 9
Width: 1185
Flags: HW
LayerCount: 2
Fore
SplineSet
355 -111 m 1
 336 65 l 1
 115 1 l 1
 218 155 l 1
 102 159 l 1
 182 260 l 1
 57 313 l 1
 182 357 l 1
 51 502 l 1
 241 496 l 1
 164 735 l 1
 366 574 l 1
 480 754 l 1
 587 583 l 1
 830 793 l 1
 849 607 l 1
 1070 681 l 1
 967 527 l 1
 1083 523 l 1
 987 433 l 1
 1128 369 l 1
 1003 325 l 1
 1134 180 l 1
 944 186 l 1
 1021 -53 l 1
 819 108 l 1
 705 -72 l 1
 598 89 l 1
 355 -111 l 1
EndSplineSet
Validated: 1
EndChar

StartChar: plus
Encoding: 43 43 10
Width: 1185
Flags: HW
LayerCount: 2
Fore
SplineSet
355 -111 m 1
 336 65 l 1
 115 1 l 1
 218 155 l 1
 102 159 l 1
 182 260 l 1
 57 313 l 1
 182 357 l 1
 51 502 l 1
 241 496 l 1
 164 735 l 1
 366 574 l 1
 480 754 l 1
 587 583 l 1
 830 793 l 1
 849 607 l 1
 1070 681 l 1
 967 527 l 1
 1083 523 l 1
 987 433 l 1
 1128 369 l 1
 1003 325 l 1
 1134 180 l 1
 944 186 l 1
 1021 -53 l 1
 819 108 l 1
 705 -72 l 1
 598 89 l 1
 355 -111 l 1
388 -10 m 2
 390 -10 l 1
 813 346 l 2
 815 347.333333333 816 349.666666667 816 353 c 0
 816 355 814.333333333 356.666666667 811 358 c 2
 623 421 l 1
 807 689 l 2
 808.333333333 691 809 693.333333333 809 696 c 0
 809 700 807.333333333 702 804 702 c 0
 802 702 798 699.666666667 792 695 c 0
 785.333333333 689.666666667 774.166666667 680.666666667 758.5 668 c 128
 742.833333333 655.333333333 719.833333333 636.5 689.5 611.5 c 128
 659.166666667 586.5 618.833333333 553.5 568.5 512.5 c 128
 518.166666667 471.5 455 420 379 358 c 0
 377.666666667 357.333333333 377 356 377 354 c 0
 377 349.333333333 378 346.666666667 380 346 c 2
 569 270 l 1
 384 1 l 2
 383.333333333 -0.333333333333 383 -2 383 -4 c 0
 383 -8 384.666666667 -10 388 -10 c 2
EndSplineSet
Validated: 524289
EndChar

StartChar: comma
Encoding: 44 44 11
Width: 758
Flags: HW
LayerCount: 2
Fore
SplineSet
108 -99 m 0
 90.6666666667 -99 76.8333333333 -95.6666666667 66.5 -89 c 128
 56.1666666667 -82.3333333333 51 -70.6666666667 51 -54 c 0
 51 -48.6666666667 52.1666666667 -43.3333333333 54.5 -38 c 128
 56.8333333333 -32.6666666667 61.3333333333 -28.3333333333 68 -25 c 0
 104 -7 131.166666667 15.3333333333 149.5 42 c 128
 167.833333333 68.6666666667 182.666666667 93.6666666667 194 117 c 0
 201.333333333 131.666666667 208.333333333 149.666666667 215 171 c 128
 221.666666667 192.333333333 228.166666667 214.833333333 234.5 238.5 c 128
 240.833333333 262.166666667 246.833333333 284.666666667 252.5 306 c 128
 258.166666667 327.333333333 263.333333333 345.333333333 268 360 c 0
 273.333333333 376 281 395.5 291 418.5 c 128
 301 441.5 312.5 465 325.5 489 c 128
 338.5 513 351.666666667 534.5 365 553.5 c 128
 378.333333333 572.5 390.666666667 586 402 594 c 2
 405 597 l 1
 404.333333333 597.666666667 404 598.666666667 404 600 c 0
 404 605.333333333 407.166666667 610.166666667 413.5 614.5 c 128
 419.833333333 618.833333333 424.333333333 622 427 624 c 0
 437 630.666666667 447.666666667 635 459 637 c 128
 470.333333333 639 482 640 494 640 c 0
 502 640 502 640 508.5 640 c 128
 512.833333333 640 517.333333333 639.666666667 522 639 c 0
 525.333333333 639 531.666666667 642 541 648 c 128
 550.333333333 654 556.333333333 659 559 663 c 0
 561.666666667 666.333333333 563.833333333 669.833333333 565.5 673.5 c 128
 567.166666667 677.166666667 569 680.666666667 571 684 c 2
 575 692 l 2
 580.333333333 702 584.833333333 710.833333333 588.5 718.5 c 128
 592.166666667 726.166666667 594 732.333333333 594 737 c 2
 594 745 l 2
 594 755.666666667 591.333333333 764.333333333 586 771 c 0
 582 775.666666667 574.666666667 778 564 778 c 0
 561 778 561 778 558 778 c 128
 556 778 554 777.666666667 552 777 c 2
 548 777 l 2
 546.666666667 776.333333333 544.833333333 775.666666667 542.5 775 c 128
 540.166666667 774.333333333 537.666666667 774 535 774 c 0
 529.666666667 774 525 777.333333333 521 784 c 0
 520.333333333 785.333333333 520 787.666666667 520 791 c 0
 520 797 522.666666667 802.666666667 528 808 c 0
 537.333333333 817.333333333 550.333333333 822 567 822 c 0
 576.333333333 822 585.333333333 820 594 816 c 0
 604.666666667 811.333333333 613.333333333 804.333333333 620 795 c 128
 626.666666667 785.666666667 631.833333333 776.5 635.5 767.5 c 128
 639.166666667 758.5 641.666666667 751.666666667 643 747 c 0
 644.333333333 744.333333333 644.833333333 741.666666667 644.5 739 c 128
 644.166666667 736.333333333 644 733.333333333 644 730 c 0
 644 722 643.333333333 713.333333333 642 704 c 128
 640.666666667 694.666666667 638 684 634 672 c 0
 631.333333333 664.666666667 629.333333333 658.333333333 628 653 c 128
 626 645 626 645 624 637 c 0
 623.333333333 635 623 631.666666667 623 627 c 0
 623 615 625.333333333 607.333333333 630 604 c 0
 643.333333333 596 655.166666667 587.166666667 665.5 577.5 c 128
 675.833333333 567.833333333 684 557 690 545 c 0
 693.333333333 538.333333333 697 530 701 520 c 128
 705 510 707 501.333333333 707 494 c 0
 707 488 705.333333333 483.333333333 702 480 c 0
 701.333333333 480 700.833333333 479.833333333 700.5 479.5 c 128
 700.166666667 479.166666667 699.666666667 479 699 479 c 1
 699 471 l 2
 699 465.666666667 697.5 454.333333333 694.5 437 c 128
 691.5 419.666666667 681 390.333333333 663 349 c 0
 642.333333333 301 614.5 254.833333333 579.5 210.5 c 128
 544.5 166.166666667 505.666666667 125.166666667 463 87.5 c 128
 420.333333333 49.8333333333 377 17.1666666667 333 -10.5 c 128
 289 -38.1666666667 247.5 -59.8333333333 208.5 -75.5 c 128
 169.5 -91.1666666667 136 -99 108 -99 c 0
694 493 m 1
 694 511 686.833333333 529.166666667 672.5 547.5 c 128
 658.166666667 565.833333333 641.666666667 580.666666667 623 592 c 0
 619 594.666666667 615.666666667 599.5 613 606.5 c 128
 610.333333333 613.5 609 620.666666667 609 628 c 0
 609 634 609.333333333 638 610 640 c 0
 612 645.333333333 613.666666667 650.833333333 615 656.5 c 128
 616.333333333 662.166666667 618 668.666666667 620 676 c 0
 623.333333333 688 626 698.333333333 628 707 c 128
 630 715.666666667 631 723.333333333 631 730 c 0
 631 732.666666667 630.833333333 735.166666667 630.5 737.5 c 128
 630.166666667 739.833333333 629.666666667 742.333333333 629 745 c 0
 628.333333333 750.333333333 624.5 759.666666667 617.5 773 c 128
 610.5 786.333333333 600.333333333 796.333333333 587 803 c 0
 581.666666667 805.666666667 574.666666667 807 566 807 c 0
 552.666666667 807 543 804 537 798 c 0
 535 796 534 794.166666667 534 792.5 c 128
 534 790 534 790 534 789 c 2
 534 788 l 1
 536 788 l 2
 540 788 542.666666667 788.666666667 544 790 c 0
 545.333333333 790 546.5 790.166666667 547.5 790.5 c 128
 548.5 790.833333333 549.333333333 791 550 791 c 0
 552 791.666666667 554.166666667 792 556.5 792 c 128
 560 792 560 792 564 792 c 0
 578 792 588.666666667 788.333333333 596 781 c 0
 604 773 608 761 608 745 c 0
 608 743.666666667 608.166666667 742 608.5 740 c 128
 608.833333333 738 608.666666667 736.333333333 608 735 c 0
 606 728.333333333 603 720.333333333 599 711 c 128
 595 701.666666667 591.333333333 693.333333333 588 686 c 2
 584 677 l 2
 582.666666667 673.666666667 580.666666667 670.166666667 578 666.5 c 128
 575.333333333 662.833333333 573 659.333333333 571 656 c 0
 567.666666667 650 559.833333333 643.166666667 547.5 635.5 c 128
 535.166666667 627.833333333 526 624.333333333 520 625 c 0
 515.333333333 625.666666667 510.666666667 626.166666667 506 626.5 c 128
 501.333333333 626.833333333 497 627 493 627 c 0
 480.333333333 627 467.5 625 454.5 621 c 128
 441.5 617 432.333333333 612.333333333 427 607 c 1
 429 607 l 2
 439 607 446 606.333333333 450 605 c 128
 454 603.666666667 457 602 459 600 c 0
 461.666666667 597.333333333 463.333333333 594.333333333 464 591 c 128
 464.666666667 587.666666667 465 584.666666667 465 582 c 0
 465 576.666666667 463.333333333 571.666666667 460 567 c 0
 458 564.333333333 457 562.333333333 457 561 c 0
 457 560.333333333 458.833333333 559.5 462.5 558.5 c 128
 466.166666667 557.5 470 557 474 557 c 0
 482.666666667 557 489.333333333 558.833333333 494 562.5 c 128
 498.666666667 566.166666667 506.333333333 568 517 568 c 0
 532.333333333 568 546.666666667 563.5 560 554.5 c 128
 573.333333333 545.5 581.333333333 535.333333333 584 524 c 0
 585.333333333 518 587.666666667 515 591 515 c 0
 593 515 595 516 597 518 c 0
 602.333333333 523.333333333 608.166666667 526.833333333 614.5 528.5 c 128
 620.833333333 530.166666667 626.333333333 531 631 531 c 0
 637.666666667 531 644.333333333 530.166666667 651 528.5 c 128
 657.666666667 526.833333333 663.333333333 523.333333333 668 518 c 0
 670.666666667 515.333333333 673 512 675 508 c 0
 676.333333333 506 677.833333333 503.833333333 679.5 501.5 c 128
 681.166666667 499.166666667 683.333333333 497.333333333 686 496 c 0
 687.333333333 495.333333333 688.833333333 494.833333333 690.5 494.5 c 128
 692.166666667 494.166666667 693.333333333 493.666666667 694 493 c 1
386 319 m 0
 392.666666667 319 397.666666667 321.666666667 401 327 c 0
 408.333333333 339 414.166666667 352.833333333 418.5 368.5 c 128
 422.833333333 384.166666667 426 403.333333333 428 426 c 0
 429.333333333 442 431.5 454.833333333 434.5 464.5 c 128
 437.5 474.166666667 442.333333333 480.666666667 449 484 c 0
 458.333333333 489.333333333 463 495 463 501 c 0
 463 505 461.333333333 509.166666667 458 513.5 c 128
 454.666666667 517.833333333 450 520 444 520 c 0
 436.666666667 520 428.5 515.666666667 419.5 507 c 128
 410.5 498.333333333 404.333333333 489 401 479 c 0
 399 473 397.166666667 465 395.5 455 c 128
 393.833333333 445 392.333333333 434 391 422 c 0
 390.333333333 412.666666667 388.5 400.666666667 385.5 386 c 128
 382.5 371.333333333 377.333333333 358.666666667 370 348 c 0
 368 345.333333333 367 341.666666667 367 337 c 256
 367 332.333333333 368.833333333 328.166666667 372.5 324.5 c 128
 376.166666667 320.833333333 380.666666667 319 386 319 c 0
321 221 m 0
 325 221 328.666666667 222.333333333 332 225 c 0
 340 230.333333333 349 239.166666667 359 251.5 c 128
 369 263.833333333 374 274.333333333 374 283 c 0
 374 290.333333333 371.833333333 295.166666667 367.5 297.5 c 128
 363.166666667 299.833333333 359.333333333 301 356 301 c 0
 346.666666667 301 341 297.333333333 339 290 c 0
 337.666666667 284.666666667 334.333333333 278.666666667 329 272 c 128
 323.666666667 265.333333333 318.666666667 260.333333333 314 257 c 0
 306.666666667 251.666666667 303 246 303 240 c 0
 303 232.666666667 305.333333333 227.666666667 310 225 c 128
 314.666666667 222.333333333 318.333333333 221 321 221 c 0
EndSplineSet
Validated: 524289
EndChar

StartChar: hyphen
Encoding: 45 45 12
Width: 774
Flags: HW
LayerCount: 2
Fore
SplineSet
168 -47 m 1
 51 90 l 1
 70.3333333333 102 93.8333333333 118.166666667 121.5 138.5 c 128
 149.166666667 158.833333333 178.166666667 181.666666667 208.5 207 c 128
 238.833333333 232.333333333 267 258.666666667 293 286 c 1
 255.666666667 339.333333333 224.166666667 396.333333333 198.5 457 c 128
 172.833333333 517.666666667 160 579 160 641 c 0
 160 647.666666667 161.833333333 658.5 165.5 673.5 c 128
 169.166666667 688.5 176 705.333333333 186 724 c 128
 196 742.666666667 210.333333333 760.333333333 229 777 c 128
 247.666666667 793.666666667 271.666666667 806.666666667 301 816 c 0
 325 824 353.666666667 828 387 828 c 0
 419.666666667 828 448.333333333 824 473 816 c 0
 502.333333333 806.666666667 526.166666667 793.666666667 544.5 777 c 128
 562.833333333 760.333333333 577 742.666666667 587 724 c 128
 597 705.333333333 603.833333333 688.5 607.5 673.5 c 128
 611.166666667 658.5 613 647.666666667 613 641 c 0
 613 579 600.333333333 517.666666667 575 457 c 128
 549.666666667 396.333333333 518.333333333 339.333333333 481 286 c 1
 507.666666667 258.666666667 536 232.333333333 566 207 c 128
 596 181.666666667 624.833333333 158.833333333 652.5 138.5 c 128
 680.166666667 118.166666667 703.666666667 102 723 90 c 1
 606 -47 l 1
 590.666666667 -34.3333333333 571.166666667 -17.1666666667 547.5 4.5 c 128
 523.833333333 26.1666666667 498 51 470 79 c 128
 442 107 414.333333333 136.333333333 387 167 c 1
 359.666666667 136.333333333 332 107 304 79 c 128
 276 51 250.166666667 26.1666666667 226.5 4.5 c 128
 202.833333333 -17.1666666667 183.333333333 -34.3333333333 168 -47 c 1
387 396 m 1
 414.333333333 433.333333333 437.833333333 472.833333333 457.5 514.5 c 128
 477.166666667 556.166666667 490 598.333333333 496 641 c 0
 495.333333333 641.666666667 490.666666667 644.5 482 649.5 c 128
 473.333333333 654.5 461 659.5 445 664.5 c 128
 429 669.5 409.333333333 672 386 672 c 0
 363.333333333 672 344 669.5 328 664.5 c 128
 312 659.5 299.833333333 654.5 291.5 649.5 c 128
 283.166666667 644.5 278.333333333 641.666666667 277 641 c 0
 283 598.333333333 296 556.166666667 316 514.5 c 128
 336 472.833333333 359.666666667 433.333333333 387 396 c 1
EndSplineSet
Validated: 524289
EndChar

StartChar: period
Encoding: 46 46 13
Width: 1362
Flags: HW
LayerCount: 2
Fore
SplineSet
681 388 m 1
 681 1069 l 1
 1362 1069 l 1
 1362 388 l 1
 681 388 l 1
0 -293 m 1
 0 388 l 1
 681 388 l 1
 681 -293 l 1
 0 -293 l 1
EndSplineSet
Validated: 5
EndChar

StartChar: slash
Encoding: 47 47 14
Width: 1270
Flags: HW
LayerCount: 2
Fore
SplineSet
0 -293 m 1
 673 1069 l 1
 1270 1069 l 1
 597 -293 l 1
 0 -293 l 1
EndSplineSet
Validated: 1
EndChar

StartChar: zero
Encoding: 48 48 15
Width: 708
Flags: HW
LayerCount: 2
Fore
SplineSet
51 151 m 1
 51 293 l 1
 657 293 l 1
 657 151 l 1
 51 151 l 1
EndSplineSet
Validated: 1
EndChar

StartChar: one
Encoding: 49 49 16
Width: 950
Flags: HW
LayerCount: 2
Fore
SplineSet
51 -51 m 1
 51 796 l 1
 899 796 l 1
 899 -51 l 1
 51 -51 l 1
173 70 m 1
 777 70 l 1
 777 552 l 1
 173 552 l 1
 173 70 l 1
EndSplineSet
Validated: 1
EndChar

StartChar: two
Encoding: 50 50 17
Width: 939
Flags: HW
LayerCount: 2
Fore
SplineSet
51 -46 m 1
 51 528 l 1
 314 528 l 1
 314 792 l 1
 888 792 l 1
 888 218 l 1
 625 218 l 1
 625 -46 l 1
 51 -46 l 1
415 617 m 1
 415 528 l 1
 625 528 l 1
 625 318 l 1
 787 318 l 1
 787 617 l 1
 415 617 l 1
152 54 m 1
 524 54 l 1
 524 353 l 1
 152 353 l 1
 152 54 l 1
EndSplineSet
Validated: 1
EndChar

StartChar: three
Encoding: 51 51 18
Width: 490
Flags: HW
LayerCount: 2
Fore
SplineSet
439 -32 m 1
 51 357 l 1
 439 746 l 1
 439 -32 l 1
EndSplineSet
Validated: 1
EndChar

StartChar: four
Encoding: 52 52 19
Width: 490
Flags: HW
LayerCount: 2
Fore
SplineSet
51 -32 m 1
 51 746 l 1
 439 357 l 1
 51 -32 l 1
EndSplineSet
Validated: 1
EndChar

StartChar: five
Encoding: 53 53 20
Width: 880
Flags: HW
LayerCount: 2
Fore
SplineSet
51 200 m 1
 440 588 l 1
 829 200 l 1
 51 200 l 1
EndSplineSet
Validated: 1
EndChar

StartChar: six
Encoding: 54 54 21
Width: 880
Flags: HW
LayerCount: 2
Fore
SplineSet
440 200 m 1
 51 588 l 1
 829 588 l 1
 440 200 l 1
EndSplineSet
Validated: 1
EndChar

StartChar: seven
Encoding: 55 55 22
Width: 910
Flags: HW
LayerCount: 2
Fore
SplineSet
773 70 m 1
 476 338 l 1
 773 606 l 1
 773 70 l 1
434 70 m 1
 137 338 l 1
 434 606 l 1
 434 70 l 1
EndSplineSet
Validated: 1
EndChar

StartChar: eight
Encoding: 56 56 23
Width: 910
Flags: HW
LayerCount: 2
Fore
SplineSet
476 70 m 1
 476 606 l 1
 773 338 l 1
 476 70 l 1
137 70 m 1
 137 606 l 1
 434 338 l 1
 137 70 l 1
EndSplineSet
Validated: 1
EndChar

StartChar: nine
Encoding: 57 57 24
Width: 910
Flags: HW
LayerCount: 2
Fore
SplineSet
858 70 m 1
 561 339 l 1
 858 606 l 1
 858 70 l 1
52 70 m 1
 52 606 l 1
 181 606 l 1
 181 70 l 1
 52 70 l 1
521 70 m 1
 226 339 l 1
 521 606 l 1
 521 70 l 1
EndSplineSet
Validated: 1
EndChar

StartChar: colon
Encoding: 58 58 25
Width: 910
Flags: HW
LayerCount: 2
Fore
SplineSet
100 70 m 1
 100 606 l 1
 397 339 l 1
 100 70 l 1
437 70 m 1
 437 606 l 1
 566 606 l 1
 566 70 l 1
 437 70 l 1
681 70 m 1
 681 606 l 1
 810 606 l 1
 810 70 l 1
 681 70 l 1
EndSplineSet
Validated: 1
EndChar

StartChar: semicolon
Encoding: 59 59 26
Width: 910
Flags: HW
LayerCount: 2
Fore
SplineSet
517 10 m 1
 517 666 l 1
 670 666 l 1
 670 10 l 1
 517 10 l 1
240 10 m 1
 240 666 l 1
 392 666 l 1
 392 10 l 1
 240 10 l 1
EndSplineSet
Validated: 1
EndChar

StartChar: less
Encoding: 60 60 27
Width: 910
Flags: HW
LayerCount: 2
Fore
SplineSet
188 70 m 1
 188 605 l 1
 723 605 l 1
 723 70 l 1
 188 70 l 1
EndSplineSet
Validated: 1
EndChar

StartChar: equal
Encoding: 61 61 28
Width: 910
Flags: HW
LayerCount: 2
Fore
SplineSet
455 38 m 256
 412.333333333 38 372.333333333 46 335 62 c 128
 297.666666667 78 264.666666667 100.333333333 236 129 c 128
 207.333333333 157.666666667 185 190.666666667 169 228 c 128
 153 265.333333333 145 305.333333333 145 348 c 256
 145 390.666666667 153 430.666666667 169 468 c 128
 185 505.333333333 207.333333333 538.333333333 236 567 c 128
 264.666666667 595.666666667 297.666666667 618 335 634 c 128
 372.333333333 650 412.333333333 658 455 658 c 256
 497.666666667 658 537.666666667 650 575 634 c 128
 612.333333333 618 645.333333333 595.666666667 674 567 c 128
 702.666666667 538.333333333 725 505.333333333 741 468 c 128
 757 430.666666667 765 390.666666667 765 348 c 256
 765 305.333333333 757 265.333333333 741 228 c 128
 725 190.666666667 702.666666667 157.666666667 674 129 c 128
 645.333333333 100.333333333 612.333333333 78 575 62 c 128
 537.666666667 46 497.666666667 38 455 38 c 256
EndSplineSet
Validated: 524289
EndChar

StartChar: greater
Encoding: 62 62 29
Width: 1220
Flags: HW
LayerCount: 2
Fore
SplineSet
545 0 m 2
 534.333333333 0 529 5.33333333333 529 16 c 0
 529 17.3333333333 529.166666667 18.3333333333 529.5 19 c 128
 529.833333333 19.6666666667 530 20.3333333333 530 21 c 2
 794 725 l 2
 797.333333333 732.333333333 802.333333333 736 809 736 c 2
 934 736 l 2
 941.333333333 736 946.333333333 732 949 724 c 2
 1213 21 l 2
 1214.33333333 19.6666666667 1215 18 1215 16 c 0
 1215 11.3333333333 1213.33333333 7.5 1210 4.5 c 128
 1206.66666667 1.5 1203 0 1199 0 c 2
 1068 0 l 2
 1060 0 1054.66666667 4.66666666667 1052 14 c 2
 1010 142 l 1
 732 142 l 1
 690 11 l 2
 688 3.66666666667 682.666666667 0 674 0 c 2
 545 0 l 2
773 267 m 1
 969 267 l 1
 870 567 l 1
 773 267 l 1
16 0 m 2
 8.66666666667 0 5 3.66666666667 5 11 c 0
 5 12.3333333333 5.16666666667 13.1666666667 5.5 13.5 c 128
 5.83333333333 13.8333333333 6 14.3333333333 6 15 c 2
 193 515 l 2
 195 520.333333333 198.666666667 523 204 523 c 2
 281 523 l 2
 285.666666667 523 289 520.333333333 291 515 c 2
 479 15 l 2
 479.666666667 14.3333333333 480 13 480 11 c 0
 480 3.66666666667 476.333333333 0 469 0 c 2
 373 0 l 2
 367.666666667 0 364 2.66666666667 362 8 c 2
 330 105 l 1
 152 105 l 1
 120 8 l 2
 118 2.66666666667 114.333333333 0 109 0 c 2
 16 0 l 2
183 199 m 1
 300 199 l 1
 242 375 l 1
 183 199 l 1
EndSplineSet
Validated: 524289
EndChar

StartChar: question
Encoding: 63 63 30
Width: 1058
Flags: HW
LayerCount: 2
Fore
SplineSet
571 -220 m 0
 569 -220 566 -219.333333333 562 -218 c 2
 60 62 l 2
 54 65.3333333333 51 70.6666666667 51 78 c 2
 51 518 l 2
 51 525.333333333 54.3333333333 531 61 535 c 2
 436 721 l 1
 436.666666667 741 439.333333333 762.333333333 444 785 c 128
 448.666666667 807.666666667 454.666666667 828.833333333 462 848.5 c 128
 469.333333333 868.166666667 477.333333333 883.666666667 486 895 c 0
 492.666666667 904.333333333 502.833333333 915.5 516.5 928.5 c 128
 530.166666667 941.5 547.5 954.166666667 568.5 966.5 c 128
 589.5 978.833333333 614 988.666666667 642 996 c 0
 646 997 646 997 650 998 c 128
 652.666666667 998.666666667 655 999 657 999 c 256
 660 999 660 999 664 999 c 128
 666.666666667 999 669.666666667 998.333333333 673 997 c 0
 682.333333333 995.666666667 692.333333333 995 703 995 c 0
 714.333333333 994.333333333 725.166666667 993 735.5 991 c 128
 745.833333333 989 756.333333333 987 767 985 c 256
 777.666666667 983 788 981.166666667 798 979.5 c 128
 808 977.833333333 818 977 828 977 c 0
 838.666666667 977 844 972 844 962 c 0
 844 958.666666667 843.666666667 956.333333333 843 955 c 0
 840.333333333 952.333333333 837.333333333 944 834 930 c 128
 830.666666667 916 827.166666667 900 823.5 882 c 128
 819.833333333 864 816 847.666666667 812 833 c 0
 805.333333333 805 799.666666667 779.166666667 795 755.5 c 128
 790.333333333 731.833333333 786 708.5 782 685.5 c 128
 778 662.5 772.666666667 637.333333333 766 610 c 1
 997 497 l 2
 1000.33333333 495.666666667 1002.83333333 493.333333333 1004.5 490 c 128
 1006.16666667 486.666666667 1007 483.333333333 1007 480 c 2
 1007 40 l 2
 1007 33.3333333333 1004 28 998 24 c 2
 581 -218 l 2
 577 -219.333333333 573.666666667 -220 571 -220 c 0
533 902 m 1
 606 907 l 1
 628 962 l 1
 608.666666667 951.333333333 590.833333333 940.833333333 574.5 930.5 c 128
 558.166666667 920.166666667 544.333333333 910.666666667 533 902 c 1
554 599 m 2
 559 600 l 2
 561 600 564.333333333 606 569 618 c 2
 571 625 l 2
 571.666666667 626.333333333 574 629.833333333 578 635.5 c 128
 582 641.166666667 587.333333333 649.333333333 594 660 c 2
 605 677 l 1
 616.333333333 662.333333333 626 650.5 634 641.5 c 128
 642 632.5 648 626 652 622 c 0
 654.666666667 621.333333333 657.666666667 621 661 621 c 0
 661.666666667 621 662.666666667 621.666666667 664 623 c 0
 664.666666667 623.666666667 665 625.666666667 665 629 c 2
 665 631 l 2
 666.333333333 632.333333333 667.333333333 633 668 633 c 0
 669.333333333 633 670.5 632.833333333 671.5 632.5 c 128
 672.5 632.166666667 673.333333333 632 674 632 c 0
 675.333333333 630.666666667 676.333333333 630 677 630 c 0
 680.333333333 630 682 631.333333333 682 634 c 0
 683.333333333 637.333333333 684.666666667 639 686 639 c 2
 691 640 l 1
 692 641 l 1
 688 650 l 1
 698 652 l 2
 700 652 702 654.666666667 704 660 c 128
 706 665.333333333 707 669.333333333 707 672 c 256
 707 674.666666667 704.666666667 678.333333333 700 683 c 0
 697.333333333 685 691.5 690.833333333 682.5 700.5 c 128
 673.5 710.166666667 661.333333333 723.333333333 646 740 c 1
 652.666666667 749.333333333 659.333333333 758.5 666 767.5 c 128
 672.666666667 776.5 678.666666667 784 684 790 c 2
 717 829 l 1
 714 833 l 1
 717.333333333 834.333333333 719 837 719 841 c 2
 717 846 l 1
 713 847 l 1
 714 852 l 1
 712 852 l 2
 710 852 708.666666667 851.666666667 708 851 c 0
 706.666666667 849.666666667 705.666666667 849 705 849 c 0
 704.333333333 849.666666667 703.166666667 851.333333333 701.5 854 c 128
 699.833333333 856.666666667 699 858.333333333 699 859 c 2
 700 863 l 1
 694 865 l 1
 694 867 l 2
 692.666666667 869 690.333333333 871 687 873 c 2
 686 874 l 1
 675 863 l 2
 673.666666667 861.666666667 672.333333333 860 671 858 c 128
 669.666666667 856 667.666666667 853.666666667 665 851 c 0
 663 848.333333333 661 845.833333333 659 843.5 c 128
 657 841.166666667 654.333333333 838.333333333 651 835 c 0
 648.333333333 832.333333333 643.333333333 826.333333333 636 817 c 128
 628.666666667 807.666666667 620 796.333333333 610 783 c 1
 604.666666667 790.333333333 600 796.5 596 801.5 c 128
 590 809 590 809 586 814 c 0
 581.333333333 821.333333333 575.333333333 829.166666667 568 837.5 c 128
 560.666666667 845.833333333 555.666666667 851 553 853 c 2
 552 853 l 2
 550.666666667 853 550 852.333333333 550 851 c 2
 549 848 l 1
 547 847 l 1
 543 849 l 1
 543 844.333333333 541.666666667 841 539 839 c 0
 538.333333333 839 536 840 532 842 c 0
 531.333333333 842 530.166666667 841 528.5 839 c 128
 526.833333333 837 525.666666667 835.333333333 525 834 c 0
 525 833.333333333 524.166666667 832 522.5 830 c 128
 520.833333333 828 519.333333333 827 518 827 c 0
 517.333333333 827 517 826.666666667 517 826 c 256
 517 825.333333333 518 822.666666667 520 818 c 128
 522 813.333333333 523.333333333 810.333333333 524 809 c 2
 526 807 l 1
 533.333333333 791.666666667 540.666666667 777.5 548 764.5 c 128
 555.333333333 751.5 562.333333333 739.333333333 569 728 c 1
 555 710 543.666666667 694.666666667 535 682 c 128
 526.333333333 669.333333333 520.666666667 659.333333333 518 652 c 1
 520 646 521 642 521 640 c 256
 521 638 520.333333333 635 519 631 c 1
 524 629 l 1
 527 623 l 1
 527 617 l 1
 530 616 l 1
 533 618 l 1
 533 612 l 2
 533 611.333333333 533.666666667 611 535 611 c 0
 537 611 538.333333333 611.666666667 539 613 c 0
 543 615 543 615 543 615 c 257
 543 615 543 615 544 613 c 0
 544 612.333333333 543.833333333 611.5 543.5 610.5 c 128
 543.166666667 609.5 543 608.333333333 543 607 c 2
 549 600 l 2
 549.666666667 599.333333333 551.333333333 599 554 599 c 2
628 417 m 1
 347 559 l 1
 401 585 l 1
 413 603 421.333333333 619.333333333 426 634 c 128
 430.666666667 648.666666667 433.666666667 664.333333333 435 681 c 1
 110 518 l 1
 571 287 l 1
 944 480 l 1
 756 572 l 1
 753.333333333 561.333333333 750.333333333 550.333333333 747 539 c 0
 740.333333333 516.333333333 734.333333333 502.5 729 497.5 c 128
 723.666666667 492.5 716.333333333 490 707 490 c 0
 695.666666667 490 676.5 492.166666667 649.5 496.5 c 128
 622.5 500.833333333 596.333333333 505.666666667 571 511 c 1
 693 450 l 1
 628 417 l 1
397 421 m 256
 389 421 382.166666667 423 376.5 427 c 128
 370.833333333 431 368 435.666666667 368 441 c 0
 368 447 370.833333333 451.833333333 376.5 455.5 c 128
 382.166666667 459.166666667 389 461 397 461 c 256
 405 461 411.833333333 459.166666667 417.5 455.5 c 128
 423.166666667 451.833333333 426 447 426 441 c 0
 426 435.666666667 423.166666667 431 417.5 427 c 128
 411.833333333 423 405 421 397 421 c 256
EndSplineSet
Validated: 524289
EndChar

StartChar: at
Encoding: 64 64 31
Width: 982
Flags: HW
LayerCount: 2
Fore
SplineSet
308 -56 m 0
 292 -56 276 -53.3333333333 260 -48 c 0
 255.333333333 -46.6666666667 254.333333333 -44 257 -40 c 2
 350 48 l 2
 353.333333333 51.3333333333 355 55 355 59 c 0
 355 63.6666666667 353.666666667 67 351 69 c 2
 272 151 l 2
 269.333333333 153.666666667 266 155 262 155 c 0
 257.333333333 155 253.666666667 153.666666667 251 151 c 2
 160 61 l 2
 159.333333333 60.3333333333 158 60 156 60 c 0
 153.333333333 60 152 61.3333333333 152 64 c 0
 149.333333333 71.3333333333 147.5 79 146.5 87 c 128
 145.5 95 145 103.333333333 145 112 c 0
 145 132.666666667 148.833333333 152.666666667 156.5 172 c 128
 164.166666667 191.333333333 176 208.333333333 192 223 c 0
 207.333333333 237.666666667 224.833333333 248.5 244.5 255.5 c 128
 264.166666667 262.5 284.333333333 266 305 266 c 0
 313 266 321 265.166666667 329 263.5 c 128
 337 261.833333333 345.333333333 260.333333333 354 259 c 1
 373.333333333 270.333333333 392.333333333 283 411 297 c 128
 429.666666667 311 448.333333333 325.666666667 467 341 c 1
 466 342 l 1
 310 498 l 1
 271 461 l 2
 269.666666667 459.666666667 268.333333333 459 267 459 c 256
 265.666666667 459 263.666666667 459.666666667 261 461 c 2
 240 482 l 2
 239.333333333 484 237.666666667 485 235 485 c 0
 231 485 228 482.166666667 226 476.5 c 128
 224 470.833333333 222.666666667 464.666666667 222 458 c 0
 221.333333333 454.666666667 221 451.5 221 448.5 c 128
 221 444 221 444 221 439 c 2
 221 426 l 2
 221.666666667 424.666666667 222 423.333333333 222 422 c 0
 222 415.333333333 219.333333333 409.333333333 214 404 c 2
 184 374 l 2
 183.333333333 372.666666667 181.666666667 372 179 372 c 0
 175.666666667 372 173.666666667 372.666666667 173 374 c 2
 53 494 l 2
 51.6666666667 494.666666667 51 496.333333333 51 499 c 256
 51 501.666666667 51.6666666667 503.333333333 53 504 c 2
 84 535 l 2
 88 539.666666667 93.6666666667 542 101 542 c 0
 103.666666667 542 106.333333333 541.833333333 109 541.5 c 128
 111.666666667 541.166666667 114 541 116 541 c 0
 129.333333333 541 141.333333333 542.333333333 152 545 c 0
 156.666666667 547 159.833333333 548.5 161.5 549.5 c 128
 163.166666667 550.5 164 552.333333333 164 555 c 0
 164 557 163 559 161 561 c 2
 141 582 l 2
 139.666666667 582.666666667 139 584.333333333 139 587 c 256
 139 589.666666667 139.666666667 591.333333333 141 592 c 2
 217 666 l 2
 249.666666667 698 281.166666667 722.5 311.5 739.5 c 128
 341.833333333 756.5 374.5 768.166666667 409.5 774.5 c 128
 444.5 780.833333333 484.333333333 784 529 784 c 0
 540.333333333 784 550.5 782.833333333 559.5 780.5 c 128
 568.5 778.166666667 573 774.666666667 573 770 c 0
 573 763.333333333 566.333333333 757.333333333 553 752 c 0
 530.333333333 743.333333333 507.5 733.166666667 484.5 721.5 c 128
 461.5 709.833333333 442.333333333 696 427 680 c 128
 411.666666667 664 404 645.666666667 404 625 c 0
 404 619 404.833333333 613.166666667 406.5 607.5 c 128
 408.166666667 601.833333333 409.666666667 597.333333333 411 594 c 1
 362 548 l 1
 521 392 l 1
 558.333333333 432.666666667 589.666666667 473.333333333 615 514 c 1
 613.666666667 522 612.333333333 529.666666667 611 537 c 128
 609.666666667 544.333333333 609 551.333333333 609 558 c 0
 609 579.333333333 612.666666667 600 620 620 c 128
 627.333333333 640 639.333333333 658.333333333 656 675 c 0
 671.333333333 690.333333333 688.666666667 701.333333333 708 708 c 128
 727.333333333 714.666666667 747.333333333 718 768 718 c 0
 784 718 800 715.333333333 816 710 c 0
 820.666666667 708.666666667 821.666666667 706 819 702 c 2
 726 614 l 2
 722.666666667 610.666666667 721 607 721 603 c 0
 721 598.333333333 722.333333333 595 725 593 c 2
 804 511 l 2
 806.666666667 508.333333333 810 507 814 507 c 0
 818.666666667 507 822.333333333 508.333333333 825 511 c 2
 916 601 l 2
 916.666666667 601.666666667 918 602 920 602 c 0
 922.666666667 602 924 600.666666667 924 598 c 0
 927.333333333 590.666666667 929.333333333 583 930 575 c 128
 930.666666667 567 931 558.666666667 931 550 c 0
 931 529.333333333 927.166666667 509.5 919.5 490.5 c 128
 911.833333333 471.5 900 454.333333333 884 439 c 0
 868.666666667 424.333333333 851.166666667 413.5 831.5 406.5 c 128
 811.833333333 399.5 791.666666667 396 771 396 c 0
 763 396 755 396.833333333 747 398.5 c 128
 739 400.166666667 730.666666667 401.666666667 722 403 c 1
 703.333333333 391 684.666666667 377.833333333 666 363.5 c 128
 647.333333333 349.166666667 628.666666667 334 610 318 c 1
 620 310 629.666666667 302 639 294 c 128
 653 282 653 282 660 276 c 0
 669.333333333 268 683 255.333333333 701 238 c 128
 719 220.666666667 738.333333333 201.833333333 759 181.5 c 128
 779.666666667 161.166666667 798.833333333 142.166666667 816.5 124.5 c 128
 834.166666667 106.833333333 847 93.6666666667 855 85 c 0
 858.333333333 83 864.666666667 76.6666666667 874 66 c 0
 880.666666667 59.3333333333 884 51.3333333333 884 42 c 0
 884 36 882 31 878 27 c 2
 834 -18 l 2
 829.333333333 -22 824 -24 818 -24 c 0
 808.666666667 -24 801 -20.6666666667 795 -14 c 0
 790.333333333 -9.33333333333 786.166666667 -5.33333333333 782.5 -2 c 128
 778.833333333 1.33333333333 776.333333333 3.66666666667 775 5 c 0
 766.333333333 13.6666666667 753.333333333 26.8333333333 736 44.5 c 128
 718.666666667 62.1666666667 699.833333333 81.5 679.5 102.5 c 128
 659.166666667 123.5 640.333333333 143 623 161 c 128
 605.666666667 179 593 192.333333333 585 201 c 0
 580.333333333 205 574.833333333 211 568.5 219 c 128
 562.166666667 227 555.333333333 235.333333333 548 244 c 2
 541 252 l 1
 509.666666667 218.666666667 483 184 461 148 c 1
 462.333333333 140 463.666666667 132.5 465 125.5 c 128
 466.333333333 118.5 467 111.333333333 467 104 c 0
 467 82.6666666667 463.333333333 62 456 42 c 128
 448.666666667 22 436.666666667 3.66666666667 420 -13 c 0
 405.333333333 -27.6666666667 388.166666667 -38.5 368.5 -45.5 c 128
 348.833333333 -52.5 328.666666667 -56 308 -56 c 0
EndSplineSet
Validated: 524289
EndChar

StartChar: A
Encoding: 65 65 32
Width: 1140
Flags: HW
LayerCount: 2
Fore
SplineSet
249 -17 m 2
 238.333333333 -17 233 -11.6666666667 233 -1 c 2
 233 24 l 2
 233 34 238.333333333 39 249 39 c 2
 277 39 l 1
 277 521 l 1
 120 521 l 2
 115.333333333 521 111.333333333 522.666666667 108 526 c 128
 104.666666667 529.333333333 103 533.333333333 103 538 c 2
 103 656 l 2
 103 662 106.333333333 666.666666667 113 670 c 2
 361 789 l 2
 365.666666667 791.666666667 371 793 377 793 c 0
 381 793 385.666666667 792.333333333 391 791 c 2
 907 671 l 2
 909 670.333333333 910.833333333 669.666666667 912.5 669 c 128
 914.166666667 668.333333333 915.333333333 667.666666667 916 667 c 2
 1028 554 l 2
 1032.66666667 549.333333333 1035.5 546 1036.5 544 c 128
 1037.5 542 1038 540 1038 538 c 0
 1038 533.333333333 1036.66666667 529.333333333 1034 526 c 128
 1031.33333333 522.666666667 1027.33333333 521 1022 521 c 2
 811 521 l 1
 811 430 l 1
 815.666666667 430 819.666666667 428.333333333 823 425 c 128
 826.333333333 421.666666667 828 418 828 414 c 2
 828 364 l 2
 828 359.333333333 826.333333333 355.5 823 352.5 c 128
 819.666666667 349.5 815.666666667 348 811 348 c 1
 811 308 l 2
 811 304.666666667 810 302 808 300 c 0
 806 296.666666667 802.666666667 295 798 295 c 0
 790 295 783.166666667 292.166666667 777.5 286.5 c 128
 771.833333333 280.833333333 769 274 769 266 c 256
 769 258 771.833333333 251 777.5 245 c 128
 783.166666667 239 790 236 798 236 c 256
 806 236 813 239 819 245 c 128
 825 251 828 258 828 266 c 0
 828 273.333333333 831.666666667 277 839 277 c 0
 847 277 851 273.333333333 851 266 c 0
 851 251.333333333 846 238.833333333 836 228.5 c 128
 826 218.166666667 813.333333333 213 798 213 c 0
 783.333333333 213 771 218.166666667 761 228.5 c 128
 751 238.833333333 746 251.333333333 746 266 c 0
 746 278.666666667 749.833333333 289.666666667 757.5 299 c 128
 765.166666667 308.333333333 775 314.333333333 787 317 c 1
 787 348 l 1
 782.333333333 348 778.333333333 349.5 775 352.5 c 128
 771.666666667 355.5 770 359.333333333 770 364 c 2
 770 414 l 2
 770 418 771.666666667 421.666666667 775 425 c 128
 778.333333333 428.333333333 782.333333333 430 787 430 c 1
 787 521 l 1
 478 521 l 1
 478 39 l 1
 503 39 l 2
 507 39 510.5 37.5 513.5 34.5 c 128
 516.5 31.5 518 28 518 24 c 2
 518 -1 l 2
 518 -11.6666666667 513 -17 503 -17 c 2
 249 -17 l 2
329 672 m 1
 426 672 l 1
 377 755 l 1
 329 672 l 1
463 672 m 1
 762 672 l 1
 416 752 l 1
 463 672 l 1
189 672 m 1
 291 672 l 1
 331 739 l 1
 189 672 l 1
800 555 m 1
 884 640 l 1
 716 640 l 1
 800 555 l 1
578 556 m 1
 662 640 l 1
 495 640 l 1
 578 556 l 1
351 554 m 1
 445 554 l 1
 445 640 l 1
 436 640 l 1
 351 554 l 1
310 554 m 1
 316 554 l 1
 402 640 l 1
 310 640 l 1
 310 554 l 1
136 584 m 1
 190 639 l 1
 190 640 l 1
 136 640 l 1
 136 584 l 1
277 585 m 1
 277 640 l 1
 226 640 l 1
 224 638 l 1
 277 585 l 1
610 554 m 1
 767 554 l 1
 688 632 l 1
 610 554 l 1
833 554 m 1
 983 554 l 1
 908 629 l 1
 833 554 l 1
478 554 m 1
 546 554 l 1
 478 622 l 1
 478 554 l 1
140 554 m 1
 274 554 l 1
 207 621 l 1
 140 554 l 1
376 470 m 1
 428 521 l 1
 324 521 l 1
 376 470 l 1
445 400 m 1
 445 505 l 1
 393 453 l 1
 445 400 l 1
310 403 m 1
 359 453 l 1
 310 502 l 1
 310 403 l 1
324 383 m 1
 428 383 l 1
 376 436 l 1
 324 383 l 1
376 304 m 1
 431 359 l 1
 321 359 l 1
 376 304 l 1
445 234 m 1
 445 339 l 1
 393 287 l 1
 445 234 l 1
310 237 m 1
 359 287 l 1
 310 336 l 1
 310 237 l 1
323 217 m 1
 429 217 l 1
 376 270 l 1
 323 217 l 1
664 -18 m 256
 658.666666667 -18 654 -16 650 -12 c 128
 646 -8 644 -3.33333333333 644 2 c 2
 644 24 l 1
 619 24 l 2
 614.333333333 24 610.5 25.6666666667 607.5 29 c 128
 604.5 32.3333333333 603 36.3333333333 603 41 c 0
 603 51.6666666667 608.333333333 57 619 57 c 2
 644 57 l 1
 644 157 l 1
 619 157 l 2
 608.333333333 157 603 162.333333333 603 173 c 256
 603 183.666666667 608.333333333 189 619 189 c 2
 644 189 l 1
 644 218 l 2
 644 223.333333333 646 228 650 232 c 128
 654 236 658.666666667 238 664 238 c 256
 669.333333333 238 674 236 678 232 c 128
 682 228 684 223.333333333 684 218 c 2
 684 189 l 1
 902 189 l 1
 902 218 l 2
 902 223.333333333 904 228 908 232 c 128
 912 236 916.666666667 238 922 238 c 256
 927.333333333 238 932 236 936 232 c 128
 940 228 942 223.333333333 942 218 c 2
 942 189 l 1
 980 189 l 2
 990.666666667 189 996 183.666666667 996 173 c 256
 996 162.333333333 990.666666667 157 980 157 c 2
 942 157 l 1
 942 57 l 1
 980 57 l 2
 990.666666667 57 996 51.6666666667 996 41 c 0
 996 36.3333333333 994.5 32.3333333333 991.5 29 c 128
 988.5 25.6666666667 984.666666667 24 980 24 c 2
 942 24 l 1
 942 2 l 2
 942 -3.33333333333 940 -8 936 -12 c 128
 932 -16 927.333333333 -18 922 -18 c 256
 916.666666667 -18 912 -16 908 -12 c 128
 904 -8 902 -3.33333333333 902 2 c 2
 902 24 l 1
 684 24 l 1
 684 2 l 2
 684 -3.33333333333 682 -8 678 -12 c 128
 674 -16 669.333333333 -18 664 -18 c 256
376 137 m 1
 432 192 l 1
 320 192 l 1
 376 137 l 1
445 67 m 1
 445 172 l 1
 393 120 l 1
 445 67 l 1
310 70 m 1
 359 120 l 1
 310 169 l 1
 310 70 l 1
684 57 m 1
 902 57 l 1
 902 157 l 1
 684 157 l 1
 684 57 l 1
312 39 m 1
 439 39 l 1
 376 103 l 1
 312 39 l 1
EndSplineSet
Validated: 524289
EndChar

StartChar: B
Encoding: 66 66 33
Width: 1140
Flags: HW
LayerCount: 2
Fore
SplineSet
977 284 m 1
 977 322 l 2
 977 329.333333333 975 337.333333333 971 346 c 128
 967 354.666666667 962.333333333 361.333333333 957 366 c 2
 910 410 l 1
 910 438 l 1
 878 438 l 1
 763 543 l 2
 756.333333333 549 748.666666667 552 740 552 c 256
 731.333333333 552 724 549 718 543 c 2
 556 396 l 1
 552.666666667 405.333333333 548 412.666666667 542 418 c 2
 356 587 l 2
 350.666666667 592.333333333 343.666666667 595 335 595 c 0
 331.666666667 595 328 594.5 324 593.5 c 128
 320 592.5 316.333333333 590.333333333 313 587 c 2
 251 530 l 1
 251 599 l 2
 251 604.333333333 252.5 610.166666667 255.5 616.5 c 128
 258.5 622.833333333 261.666666667 627.666666667 265 631 c 2
 429 780 l 2
 433 784 437.666666667 786 443 786 c 0
 447 786 451.666666667 784 457 780 c 2
 621 631 l 2
 624.333333333 627.666666667 627.5 622.833333333 630.5 616.5 c 128
 633.5 610.166666667 635 604.333333333 635 599 c 2
 635 572 l 1
 636 573 636 573 636 573 c 129
 636 573 636 573 637 574 c 2
 807 729 l 2
 811.666666667 732.333333333 816.666666667 734 822 734 c 256
 827.333333333 734 832.333333333 732.333333333 837 729 c 2
 1007 574 l 2
 1011 570 1014.5 564.666666667 1017.5 558 c 128
 1020.5 551.333333333 1022 545.333333333 1022 540 c 2
 1022 304 l 2
 1022 298.666666667 1020 294 1016 290 c 128
 1012 286 1007.33333333 284 1002 284 c 2
 977 284 l 1
140 98 m 2
 133.333333333 98 128 100.166666667 124 104.5 c 128
 120 108.833333333 118 114 118 120 c 2
 118 366 l 2
 118 381.333333333 123.333333333 393.666666667 134 403 c 2
 324 576 l 2
 326.666666667 578.666666667 330.333333333 580 335 580 c 256
 339.666666667 580 343.333333333 578.666666667 346 576 c 2
 531 407 l 2
 534.333333333 404.333333333 537 401 539 397 c 128
 541 393 542.333333333 389 543 385 c 1
 523 366 l 2
 518.333333333 361.333333333 514 354.666666667 510 346 c 128
 506 337.333333333 504 329.333333333 504 322 c 2
 504 98 l 1
 325 98 l 1
 325 249 l 2
 325 253.666666667 323.333333333 257.666666667 320 261 c 128
 316.666666667 264.333333333 312.666666667 266 308 266 c 2
 241 266 l 2
 236.333333333 266 232.5 264.333333333 229.5 261 c 128
 226.5 257.666666667 225 253.666666667 225 249 c 2
 225 98 l 1
 140 98 l 2
488 518 m 1
 527 518 l 1
 527 561 l 1
 506 561 l 2
 501.333333333 561 497.166666667 559.166666667 493.5 555.5 c 128
 489.833333333 551.833333333 488 547.333333333 488 542 c 2
 488 518 l 1
544 518 m 1
 583 518 l 1
 583 542 l 2
 583 547.333333333 581.333333333 551.833333333 578 555.5 c 128
 574.666666667 559.166666667 570.333333333 561 565 561 c 2
 544 561 l 1
 544 518 l 1
542 30 m 2
 536 30 530.666666667 32.3333333333 526 37 c 128
 521.333333333 41.6666666667 519 47 519 53 c 2
 519 322 l 2
 519 335.333333333 524 346.333333333 534 355 c 2
 728 532 l 2
 731.333333333 534.666666667 735.333333333 536 740 536 c 0
 745.333333333 536 749.333333333 534.666666667 752 532 c 2
 946 355 l 2
 956 346.333333333 961 335.333333333 961 322 c 2
 961 53 l 2
 961 47 958.833333333 41.6666666667 954.5 37 c 128
 950.166666667 32.3333333333 944.666666667 30 938 30 c 2
 729 30 l 1
 729 188 l 2
 729 200 723.333333333 206 712 206 c 2
 642 206 l 2
 637.333333333 206 633.166666667 204.333333333 629.5 201 c 128
 625.833333333 197.666666667 624 193.333333333 624 188 c 2
 624 30 l 1
 542 30 l 2
506 465 m 2
 527 465 l 1
 527 501 l 1
 488 501 l 1
 488 483 l 2
 488 478.333333333 489.833333333 474.166666667 493.5 470.5 c 128
 497.166666667 466.833333333 501.333333333 465 506 465 c 2
544 465 m 1
 565 465 l 2
 570.333333333 465 574.666666667 466.833333333 578 470.5 c 128
 581.333333333 474.166666667 583 478.333333333 583 483 c 2
 583 501 l 1
 544 501 l 1
 544 465 l 1
869 456 m 1
 910 456 l 1
 910 500 l 1
 887 500 l 2
 882.333333333 500 878.166666667 498.166666667 874.5 494.5 c 128
 870.833333333 490.833333333 869 486.333333333 869 481 c 2
 869 456 l 1
927 456 m 1
 968 456 l 1
 968 481 l 2
 968 486.333333333 966.166666667 490.833333333 962.5 494.5 c 128
 958.833333333 498.166666667 954.333333333 500 949 500 c 2
 927 500 l 1
 927 456 l 1
927 400 m 1
 949 400 l 2
 954.333333333 400 958.833333333 402 962.5 406 c 128
 966.166666667 410 968 414.333333333 968 419 c 2
 968 438 l 1
 927 438 l 1
 927 400 l 1
386 285 m 1
 430 285 l 1
 430 332 l 1
 406 332 l 2
 400.666666667 332 396 330 392 326 c 128
 388 322 386 317.333333333 386 312 c 2
 386 285 l 1
450 285 m 1
 494 285 l 1
 494 312 l 2
 494 317.333333333 492 322 488 326 c 128
 484 330 479.333333333 332 474 332 c 2
 450 332 l 1
 450 285 l 1
793 226 m 1
 840 226 l 1
 840 276 l 1
 815 276 l 2
 809 276 803.833333333 274 799.5 270 c 128
 795.166666667 266 793 261 793 255 c 2
 793 226 l 1
860 226 m 1
 907 226 l 1
 907 255 l 2
 907 261 904.833333333 266 900.5 270 c 128
 896.166666667 274 891.333333333 276 886 276 c 2
 860 276 l 1
 860 226 l 1
406 225 m 2
 430 225 l 1
 430 265 l 1
 386 265 l 1
 386 245 l 2
 386 239 388 234.166666667 392 230.5 c 128
 396 226.833333333 400.666666667 225 406 225 c 2
450 225 m 1
 474 225 l 2
 479.333333333 225 484 226.833333333 488 230.5 c 128
 492 234.166666667 494 239 494 245 c 2
 494 265 l 1
 450 265 l 1
 450 225 l 1
815 163 m 2
 840 163 l 1
 840 206 l 1
 793 206 l 1
 793 184 l 2
 793 178 795.166666667 173 799.5 169 c 128
 803.833333333 165 809 163 815 163 c 2
860 163 m 1
 886 163 l 2
 891.333333333 163 896.166666667 165 900.5 169 c 128
 904.833333333 173 907 178 907 184 c 2
 907 206 l 1
 860 206 l 1
 860 163 l 1
523 -209 m 2
 511.666666667 -209 504.5 -205.833333333 501.5 -199.5 c 128
 498.5 -193.166666667 500 -185 506 -175 c 2
 624 30 l 1
 729 30 l 1
 840 -175 l 2
 852 -197.666666667 846.333333333 -209 823 -209 c 2
 523 -209 l 2
EndSplineSet
Validated: 524325
EndChar

StartChar: C
Encoding: 67 67 34
Width: 1140
Flags: HW
LayerCount: 2
Fore
SplineSet
398 -61 m 1
 398 550 l 2
 398 564.666666667 392.333333333 577.333333333 381 588 c 128
 369.666666667 598.666666667 356.333333333 604 341 604 c 2
 321 604 l 1
 321 615 l 2
 321 624.333333333 318.166666667 632.666666667 312.5 640 c 128
 306.833333333 647.333333333 299.333333333 652 290 654 c 1
 290 785 l 2
 290 794.333333333 293.833333333 802.333333333 301.5 809 c 128
 309.166666667 815.666666667 317.666666667 819 327 819 c 2
 364 819 l 1
 364 833 l 2
 364 842.333333333 367 850 373 856 c 128
 379 862 386.333333333 865 395 865 c 2
 474 865 l 2
 482.666666667 865 490 862 496 856 c 128
 502 850 505 842.333333333 505 833 c 2
 505 819 l 1
 531 819 l 2
 540.333333333 819 548.833333333 815.666666667 556.5 809 c 128
 564.166666667 802.333333333 568 794.333333333 568 785 c 2
 568 580 l 1
 643 580 l 1
 643 851 l 2
 643 859.666666667 646.5 867 653.5 873 c 128
 660.5 879 668.333333333 882 677 882 c 2
 864 882 l 2
 872.666666667 882 880.5 879 887.5 873 c 128
 894.5 867 898 859.666666667 898 851 c 2
 898 641 l 1
 799 641 l 2
 783.666666667 641 770.333333333 635.666666667 759 625 c 128
 747.666666667 614.333333333 742 601.666666667 742 587 c 2
 742 251 l 1
 695 251 l 1
 695 458 l 2
 695 469.333333333 690.5 479.333333333 681.5 488 c 128
 672.5 496.666666667 662 501 650 501 c 2
 482 501 l 2
 469.333333333 501 458.666666667 496.666666667 450 488 c 128
 441.333333333 479.333333333 437 469.333333333 437 458 c 2
 437 -61 l 1
 398 -61 l 1
752 752 m 1
 794 752 l 1
 794 804 l 1
 752 804 l 1
 752 752 l 1
679 752 m 1
 721 752 l 1
 721 804 l 1
 679 804 l 1
 679 752 l 1
488 721 m 1
 534 721 l 1
 534 779 l 1
 488 779 l 1
 488 721 l 1
409 721 m 1
 455 721 l 1
 455 779 l 1
 409 779 l 1
 409 721 l 1
70 585 m 1
 70 755 l 2
 70 761 72.3333333333 766 77 770 c 128
 81.6666666667 774 87 776 93 776 c 2
 219 776 l 2
 224.333333333 776 229.5 774 234.5 770 c 128
 239.5 766 242 761 242 755 c 2
 242 655 l 1
 209 655 l 1
 209 665 l 1
 170 665 l 1
 170 653 l 1
 162 650.333333333 155.333333333 645.666666667 150 639 c 128
 144.666666667 632.333333333 142 624.333333333 142 615 c 2
 142 602 l 1
 111 602 l 2
 95 602 81.3333333333 596.333333333 70 585 c 1
101 685 m 1
 141 685 l 1
 141 734 l 1
 101 734 l 1
 101 685 l 1
825 674 m 1
 867 674 l 1
 867 726 l 1
 825 726 l 1
 825 674 l 1
679 674 m 1
 721 674 l 1
 721 726 l 1
 679 726 l 1
 679 674 l 1
1070 625 m 1
 1059.33333333 635.666666667 1045.66666667 641 1029 641 c 2
 945 641 l 1
 945 664 l 2
 945 672.666666667 948.666666667 680 956 686 c 128
 963.333333333 692 971.333333333 695 980 695 c 2
 1070 695 l 1
 1070 625 l 1
488 635 m 1
 534 635 l 1
 534 692 l 1
 488 692 l 1
 488 635 l 1
330 635 m 1
 375 635 l 1
 375 692 l 1
 330 692 l 1
 330 635 l 1
101 615 m 1
 141 615 l 1
 141 665 l 1
 101 665 l 1
 101 615 l 1
70 -61 m 1
 70 549 l 2
 70 560.333333333 73.8333333333 569.333333333 81.5 576 c 128
 89.1666666667 582.666666667 99 586 111 586 c 2
 158 586 l 1
 158 615 l 2
 158 620.333333333 159.833333333 625.666666667 163.5 631 c 128
 167.166666667 636.333333333 173.666666667 639 183 639 c 2
 282 639 l 2
 287.333333333 639 292.5 637 297.5 633 c 128
 302.5 629 305 623 305 615 c 2
 305 588 l 1
 341 588 l 2
 351.666666667 588 361.166666667 584.333333333 369.5 577 c 128
 377.833333333 569.666666667 382 560.666666667 382 550 c 2
 382 -61 l 1
 70 -61 l 1
453 -61 m 1
 453 458 l 2
 453 466 456 472.5 462 477.5 c 128
 468 482.5 474.666666667 485 482 485 c 2
 650 485 l 2
 657.333333333 485 664 482.5 670 477.5 c 128
 676 472.5 679 466 679 458 c 2
 679 235 l 1
 757 235 l 1
 757 587 l 2
 757 597.666666667 761.333333333 606.666666667 770 614 c 128
 778.666666667 621.333333333 788.333333333 625 799 625 c 2
 1029 625 l 2
 1039.66666667 625 1049.16666667 621.666666667 1057.5 615 c 128
 1065.83333333 608.333333333 1070 599.333333333 1070 588 c 2
 1070 -61 l 1
 453 -61 l 1
409 548 m 1
 455 548 l 1
 455 606 l 1
 409 606 l 1
 409 548 l 1
898 478 m 1
 945 478 l 1
 945 532 l 1
 898 532 l 1
 898 478 l 1
812 478 m 1
 859 478 l 1
 859 532 l 1
 812 532 l 1
 812 478 l 1
296 474 m 1
 343 474 l 1
 343 528 l 1
 296 528 l 1
 296 474 l 1
210 473 m 1
 257 473 l 1
 257 527 l 1
 210 527 l 1
 210 473 l 1
492 376 m 1
 546 376 l 1
 546 446 l 1
 492 446 l 1
 492 376 l 1
585 376 m 1
 640 376 l 1
 640 446 l 1
 585 446 l 1
 585 376 l 1
898 392 m 1
 945 392 l 1
 945 446 l 1
 898 446 l 1
 898 392 l 1
984 392 m 1
 1031 392 l 1
 1031 446 l 1
 984 446 l 1
 984 392 l 1
124 388 m 1
 171 388 l 1
 171 442 l 1
 124 442 l 1
 124 388 l 1
210 387 m 1
 257 387 l 1
 257 441 l 1
 210 441 l 1
 210 387 l 1
812 306 m 1
 859 306 l 1
 859 360 l 1
 812 360 l 1
 812 306 l 1
898 306 m 1
 945 306 l 1
 945 360 l 1
 898 360 l 1
 898 306 l 1
210 301 m 1
 257 301 l 1
 257 355 l 1
 210 355 l 1
 210 301 l 1
585 274 m 1
 640 274 l 1
 640 345 l 1
 585 345 l 1
 585 274 l 1
812 220 m 1
 859 220 l 1
 859 274 l 1
 812 274 l 1
 812 220 l 1
898 220 m 1
 945 220 l 1
 945 274 l 1
 898 274 l 1
 898 220 l 1
984 220 m 1
 1031 220 l 1
 1031 274 l 1
 984 274 l 1
 984 220 l 1
296 215 m 1
 343 215 l 1
 343 270 l 1
 296 270 l 1
 296 215 l 1
124 215 m 1
 171 215 l 1
 171 270 l 1
 124 270 l 1
 124 215 l 1
585 173 m 1
 640 173 l 1
 640 243 l 1
 585 243 l 1
 585 173 l 1
492 173 m 1
 546 173 l 1
 546 243 l 1
 492 243 l 1
 492 173 l 1
812 134 m 1
 859 134 l 1
 859 188 l 1
 812 188 l 1
 812 134 l 1
124 129 m 1
 171 129 l 1
 171 184 l 1
 124 184 l 1
 124 129 l 1
492 71 m 1
 546 71 l 1
 546 142 l 1
 492 142 l 1
 492 71 l 1
898 48 m 1
 945 48 l 1
 945 103 l 1
 898 103 l 1
 898 48 l 1
296 43 m 1
 343 43 l 1
 343 98 l 1
 296 98 l 1
 296 43 l 1
210 43 m 1
 257 43 l 1
 257 98 l 1
 210 98 l 1
 210 43 l 1
EndSplineSet
Validated: 524289
EndChar

StartChar: D
Encoding: 68 68 35
Width: 1140
Flags: HW
LayerCount: 2
Fore
SplineSet
219 0 m 2
 208.333333333 0 199 4 191 12 c 128
 183 20 179 29.3333333333 179 40 c 2
 179 163 l 1
 184.333333333 163 187.833333333 164.166666667 189.5 166.5 c 128
 191.166666667 168.833333333 192 172.666666667 192 178 c 2
 192 221 l 1
 215 221 l 2
 220.333333333 221 223 223.666666667 223 229 c 2
 223 252 l 2
 223 257.333333333 220.333333333 260 215 260 c 2
 199 260 l 1
 199 307 l 1
 215 307 l 2
 220.333333333 307 223 309.666666667 223 315 c 2
 223 330 l 2
 223 335.333333333 220.333333333 338 215 338 c 2
 192 338 l 1
 192 354 l 1
 205 367 l 2
 206.333333333 369.666666667 207 371.666666667 207 373 c 2
 207 389 l 2
 207 393 205.5 396 202.5 398 c 128
 199.5 400 191.666666667 401 179 401 c 1
 179 450 l 2
 179 461.333333333 181.833333333 473.666666667 187.5 487 c 128
 193.166666667 500.333333333 200 510.333333333 208 517 c 2
 304 604 l 1
 383 591 l 1
 390 660 l 1
 418 682 l 1
 418 707 l 1
 542 820 l 2
 548.666666667 826.666666667 558 830 570 830 c 0
 582.666666667 830 592.666666667 826.666666667 600 820 c 2
 753 681 l 1
 753 587 l 1
 837 605 l 1
 933 517 l 2
 940.333333333 510.333333333 947 500.333333333 953 487 c 128
 959 473.666666667 962 461.333333333 962 450 c 2
 962 40 l 2
 962 29.3333333333 958.166666667 20 950.5 12 c 128
 942.833333333 4 933.333333333 0 922 0 c 2
 553 0 l 1
 553 28 l 1
 456 59 l 1
 372 16 l 1
 372 0 l 1
 219 0 l 2
855 368 m 1
 855 378.666666667 849 384 837 384 c 2
 682 384 l 2
 677.333333333 384 672.833333333 383.333333333 668.5 382 c 128
 664.166666667 380.666666667 662 378 662 374 c 1
 855 368 l 1
662 305 m 1
 856 321 l 1
 856 336 l 1
 662 342 l 1
 662 305 l 1
553 265 m 1
 553.666666667 278.333333333 551.833333333 287.666666667 547.5 293 c 128
 543.166666667 298.333333333 535.666666667 301 525 301 c 2
 396 301 l 2
 390 301 384.5 299 379.5 295 c 128
 374.5 291 372 284 372 274 c 1
 553 265 l 1
856 240 m 1
 856 286 l 1
 662 269 l 1
 662 261 l 1
 856 240 l 1
372 185 m 1
 553 200 l 1
 553 227 l 1
 372 236 l 1
 372 185 l 1
682 190 m 2
 837 190 l 2
 842.333333333 190 846.833333333 191.666666667 850.5 195 c 128
 854.166666667 198.333333333 856 202.333333333 856 207 c 1
 662 228 l 1
 662 205 l 2
 662 201 664 197.5 668 194.5 c 128
 672 191.5 676.666666667 190 682 190 c 2
454 107 m 1
 553 154 l 1
 553 162 l 1
 372 148 l 1
 372 135 l 1
 454 107 l 1
553 65 m 1
 553 115 l 1
 489 85 l 1
 553 65 l 1
372 63 m 1
 414 79 l 1
 372 93 l 1
 372 63 l 1
261 -209 m 2
 249.666666667 -209 242.333333333 -205.666666667 239 -199 c 128
 235.666666667 -192.333333333 237.333333333 -184.333333333 244 -175 c 2
 372 0 l 1
 553 0 l 1
 674 -175 l 2
 680.666666667 -184.333333333 682.333333333 -192.333333333 679 -199 c 128
 675.666666667 -205.666666667 668.333333333 -209 657 -209 c 2
 261 -209 l 2
EndSplineSet
Validated: 524293
EndChar

StartChar: E
Encoding: 69 69 36
Width: 1140
Flags: HW
LayerCount: 2
Fore
SplineSet
338 619 m 0
 313.333333333 619 290.666666667 625 270 637 c 128
 249.333333333 649 233 665.333333333 221 686 c 128
 209 706.666666667 203 729.333333333 203 754 c 0
 203 779.333333333 209 802.166666667 221 822.5 c 128
 233 842.833333333 249.333333333 859 270 871 c 128
 290.666666667 883 313.333333333 889 338 889 c 0
 363.333333333 889 386.166666667 883 406.5 871 c 128
 426.833333333 859 443 842.833333333 455 822.5 c 128
 467 802.166666667 473 779.333333333 473 754 c 0
 473 729.333333333 467 706.666666667 455 686 c 128
 443 665.333333333 426.833333333 649 406.5 637 c 128
 386.166666667 625 363.333333333 619 338 619 c 0
192 0 m 2
 164.666666667 0 141.333333333 9.66666666667 122 29 c 128
 102.666666667 48.3333333333 93 71.6666666667 93 99 c 2
 93 375 l 2
 93 382.333333333 95.6666666667 388 101 392 c 1
 102 394 l 1
 107.333333333 398 114.666666667 403.666666667 124 411 c 128
 133.333333333 418.333333333 142.833333333 425.833333333 152.5 433.5 c 128
 162.166666667 441.166666667 169.333333333 447 174 451 c 0
 181.333333333 457.666666667 187.5 463.166666667 192.5 467.5 c 128
 197.5 471.833333333 202 475.333333333 206 478 c 0
 209.333333333 480.666666667 213 482.833333333 217 484.5 c 128
 221 486.166666667 225.333333333 487.333333333 230 488 c 0
 235.333333333 488.666666667 239.666666667 488.833333333 243 488.5 c 128
 246.333333333 488.166666667 249.333333333 487.666666667 252 487 c 0
 254 486.333333333 256.666666667 486 260 486 c 0
 261.333333333 486 262.666666667 486.333333333 264 487 c 2
 265 487 l 1
 269 490 l 2
 273.666666667 494.666666667 280.666666667 498 290 500 c 0
 300 502 309 501.5 317 498.5 c 128
 325 495.5 331.666666667 492.333333333 337 489 c 0
 338.333333333 488.333333333 340.833333333 486.666666667 344.5 484 c 128
 348.166666667 481.333333333 353.333333333 477.333333333 360 472 c 2
 371 463 l 1
 386.333333333 471.666666667 394.666666667 476.666666667 396 478 c 0
 398.666666667 479.333333333 401.833333333 480.166666667 405.5 480.5 c 128
 409.166666667 480.833333333 412.666666667 481.333333333 416 482 c 0
 419.333333333 482 423.166666667 481.5 427.5 480.5 c 128
 431.833333333 479.5 435 478.333333333 437 477 c 2
 479 446 l 1
 483.666666667 454 490 460.666666667 498 466 c 0
 511.333333333 475.333333333 526.333333333 478 543 474 c 1
 544 474 l 1
 559.333333333 470 569.666666667 462.333333333 575 451 c 0
 581.666666667 439 586 426.333333333 588 413 c 0
 588.666666667 410.333333333 589.333333333 407.833333333 590 405.5 c 128
 590.666666667 403.166666667 591.333333333 400.666666667 592 398 c 1
 617 398 l 1
 608 459 l 2
 603.333333333 490.333333333 601.833333333 521.666666667 603.5 553 c 128
 605.166666667 584.333333333 615.333333333 610 634 630 c 0
 654 652 681.333333333 663 716 663 c 2
 717 663 l 2
 749 663 773.333333333 654 790 636 c 0
 808 616.666666667 818.833333333 591 822.5 559 c 128
 826.166666667 527 827.333333333 495.333333333 826 464 c 1
 827.333333333 465.333333333 828.666666667 466.333333333 830 467 c 0
 835.333333333 471.666666667 839.833333333 476 843.5 480 c 128
 847.166666667 484 850 488.333333333 852 493 c 0
 854 498.333333333 855.166666667 503.5 855.5 508.5 c 128
 855.833333333 513.5 856 519 856 525 c 2
 856 535 l 2
 856 537.666666667 855.833333333 540.666666667 855.5 544 c 128
 855.166666667 547.333333333 855 550.666666667 855 554 c 0
 855 571 855 571 855 588.5 c 128
 855 600.166666667 856.333333333 610.333333333 859 619 c 0
 863 631 870.833333333 641 882.5 649 c 128
 894.166666667 657 907.333333333 661 922 661 c 0
 939.333333333 661 953.666666667 656 965 646 c 128
 976.333333333 636 984 622.333333333 988 605 c 0
 990.666666667 594.333333333 991.666666667 579.666666667 991 561 c 128
 990.333333333 542.333333333 989.166666667 524 987.5 506 c 128
 985.833333333 488 984 474.666666667 982 466 c 0
 980.666666667 459.333333333 978.333333333 449.666666667 975 437 c 128
 971.666666667 424.333333333 965 411.333333333 955 398 c 1
 1023 398 l 2
 1029.66666667 398 1035.33333333 395.833333333 1040 391.5 c 128
 1044.66666667 387.166666667 1047 381.666666667 1047 375 c 2
 1047 99 l 2
 1047 71.6666666667 1037.16666667 48.3333333333 1017.5 29 c 128
 997.833333333 9.66666666667 974.333333333 0 947 0 c 2
 192 0 l 2
731 158 m 0
 748.333333333 158 761.333333333 161.5 770 168.5 c 128
 778.666666667 175.5 784.666666667 182.333333333 788 189 c 0
 790 193 792.333333333 201.166666667 795 213.5 c 128
 797.666666667 225.833333333 799.333333333 242.333333333 800 263 c 0
 800.666666667 272.333333333 801.5 282.5 802.5 293.5 c 128
 803.5 304.5 804.333333333 315.666666667 805 327 c 2
 805 332 l 1
 809 334 l 2
 813.666666667 336.666666667 821.833333333 340.333333333 833.5 345 c 128
 845.166666667 349.666666667 858 355.166666667 872 361.5 c 128
 886 367.833333333 899 374.333333333 911 381 c 0
 931 392.333333333 944.5 406.166666667 951.5 422.5 c 128
 958.5 438.833333333 963.333333333 454.333333333 966 469 c 0
 968 477.666666667 969.833333333 490.833333333 971.5 508.5 c 128
 973.166666667 526.166666667 974.333333333 543.833333333 975 561.5 c 128
 975.666666667 579.166666667 975 592.666666667 973 602 c 0
 970.333333333 615.333333333 964.5 626 955.5 634 c 128
 946.5 642 935.333333333 646 922 646 c 0
 911.333333333 646 901.333333333 643 892 637 c 128
 882.666666667 631 876.333333333 623.333333333 873 614 c 0
 871 606 870.166666667 596.666666667 870.5 586 c 128
 870.833333333 575.333333333 871 565 871 555 c 0
 871 551 871.166666667 547.5 871.5 544.5 c 128
 871.833333333 541.5 872 538.333333333 872 535 c 2
 872 526 l 2
 872 516 872 516 872 507 c 128
 872 501 870.333333333 494.333333333 867 487 c 0
 861.666666667 474.333333333 852.333333333 463.333333333 839 454 c 0
 835 451 835 451 831 448 c 128
 828.333333333 446 825.333333333 444.333333333 822 443 c 2
 809 434 l 1
 810 449 l 2
 811.333333333 469.666666667 811.833333333 491.166666667 811.5 513.5 c 128
 811.166666667 535.833333333 808.666666667 557 804 577 c 128
 799.333333333 597 791 613 779 625 c 0
 765 639.666666667 744.333333333 647 717 647 c 2
 716 647 l 2
 684.666666667 647 661 638 645 620 c 0
 629 601.333333333 620.333333333 577 619 547 c 128
 617.666666667 517 619 488.333333333 623 461 c 0
 624.333333333 450.333333333 626.666666667 437 630 421 c 128
 633.333333333 405 636.333333333 386 639 364 c 2
 640 355 l 1
 624 355 l 2
 622 355 620 354.833333333 618 354.5 c 128
 616 354.166666667 614.333333333 354.333333333 613 355 c 0
 603 355.666666667 594.666666667 359.333333333 588 366 c 0
 585.333333333 369.333333333 583.666666667 372.666666667 583 376 c 128
 582.333333333 379.333333333 581.333333333 382.333333333 580 385 c 2
 578 391 l 2
 577.333333333 394.333333333 576.666666667 397.5 576 400.5 c 128
 575.333333333 403.5 574.333333333 406.333333333 573 409 c 0
 571 415 569.333333333 420.833333333 568 426.5 c 128
 566.666666667 432.166666667 564.333333333 437.333333333 561 442 c 0
 556.333333333 450 549 455.333333333 539 458 c 0
 533.666666667 459.333333333 528.166666667 459.833333333 522.5 459.5 c 128
 516.833333333 459.166666667 511.666666667 457.333333333 507 454 c 0
 501 449.333333333 495.833333333 443.333333333 491.5 436 c 128
 487.166666667 428.666666667 484.333333333 420.333333333 483 411 c 0
 481.666666667 399 482.333333333 386.5 485 373.5 c 128
 487.666666667 360.5 491.666666667 348 497 336 c 0
 501.666666667 326.666666667 506.833333333 317.666666667 512.5 309 c 128
 518.166666667 300.333333333 525 293.333333333 533 288 c 0
 549 278 567.833333333 273.166666667 589.5 273.5 c 128
 611.166666667 273.833333333 630 275.333333333 646 278 c 2
 653 279 l 1
 655 271 l 1
 656 264 l 2
 657.333333333 259.333333333 658.333333333 254.5 659 249.5 c 128
 659.666666667 244.5 660.333333333 239.333333333 661 234 c 0
 662.333333333 223.333333333 663.833333333 213.333333333 665.5 204 c 128
 667.166666667 194.666666667 669.333333333 188.333333333 672 185 c 0
 678 178.333333333 686.333333333 172.166666667 697 166.5 c 128
 707.666666667 160.833333333 719 158 731 158 c 0
774 185 m 0
 770.666666667 182.333333333 768.666666667 183 768 187 c 128
 767.333333333 191 767 194 767 196 c 0
 768.333333333 223.333333333 769.333333333 253.666666667 770 287 c 128
 770.666666667 320.333333333 771.166666667 351.833333333 771.5 381.5 c 128
 771.833333333 411.166666667 771.666666667 433.666666667 771 449 c 0
 770.333333333 474.333333333 768.833333333 498.666666667 766.5 522 c 128
 764.166666667 545.333333333 758 569.666666667 748 595 c 0
 746 600.333333333 744.166666667 605.5 742.5 610.5 c 128
 740.833333333 615.5 738.333333333 620.333333333 735 625 c 0
 732.333333333 629 731.333333333 632 732 634 c 2
 734 636 l 2
 736.666666667 637.333333333 739.5 636.666666667 742.5 634 c 128
 745.5 631.333333333 747.333333333 629 748 627 c 0
 761.333333333 611 771.166666667 591.666666667 777.5 569 c 128
 783.833333333 546.333333333 787.333333333 521.666666667 788 495 c 0
 788.666666667 466.333333333 789 440.666666667 789 418 c 128
 789 395.333333333 788.333333333 370 787 342 c 0
 786.333333333 317.333333333 784.666666667 293 782 269 c 128
 779.333333333 245 778 220.666666667 778 196 c 0
 778 194 777.833333333 192 777.5 190 c 128
 777.166666667 188 776 186.333333333 774 185 c 0
696 175 m 0
 694 176.333333333 692.833333333 178.166666667 692.5 180.5 c 128
 692.166666667 182.833333333 691.666666667 184.666666667 691 186 c 0
 689 193.333333333 686.333333333 206.666666667 683 226 c 128
 679.666666667 245.333333333 676.666666667 263 674 279 c 2
 668 329 l 2
 663 372 663 372 658 415 c 128
 653 458 653 458 648 501 c 0
 646 521.666666667 645.5 543.333333333 646.5 566 c 128
 647.5 588.666666667 654.333333333 608.333333333 667 625 c 0
 668.333333333 627 670.333333333 629.666666667 673 633 c 128
 675.666666667 636.333333333 678.333333333 637.333333333 681 636 c 2
 683 634 l 2
 683.666666667 631.333333333 683 628.333333333 681 625 c 0
 677 615.666666667 674 605.333333333 672 594 c 0
 667.333333333 568.666666667 665.5 543.333333333 666.5 518 c 128
 667.5 492.666666667 669 467.333333333 671 442 c 0
 672.333333333 426.666666667 674.833333333 404 678.5 374 c 128
 682.166666667 344 686.166666667 312.333333333 690.5 279 c 128
 694.833333333 245.666666667 699 215.333333333 703 188 c 0
 703 185.333333333 702.833333333 182 702.5 178 c 128
 702.166666667 174 700 173 696 175 c 0
733 175 m 0
 731 176.333333333 729.833333333 177.833333333 729.5 179.5 c 128
 729.166666667 181.166666667 729 182.666666667 729 184 c 0
 729 203.333333333 727.833333333 222.666666667 725.5 242 c 128
 723.166666667 261.333333333 721 280.333333333 719 299 c 0
 718.333333333 309 717.666666667 318.833333333 717 328.5 c 128
 716.333333333 338.166666667 715.333333333 348 714 358 c 0
 710.666666667 394 708.333333333 430 707 466 c 128
 705 520 705 520 703 574 c 0
 702.333333333 577.333333333 702 580.666666667 702 584 c 128
 702 589 702 589 702 594 c 0
 702 599.333333333 702.166666667 604.833333333 702.5 610.5 c 128
 702.833333333 616.166666667 703.333333333 621.666666667 704 627 c 0
 705.333333333 631 707 633.333333333 709 634 c 0
 712.333333333 635.333333333 714.833333333 634.5 716.5 631.5 c 128
 718.166666667 628.5 719.333333333 625.666666667 720 623 c 0
 722.666666667 610.333333333 724.333333333 596.666666667 725 582 c 128
 725.666666667 567.333333333 726 553.333333333 726 540 c 0
 726.666666667 505.333333333 727.5 470.5 728.5 435.5 c 128
 729.5 400.5 731 365.666666667 733 331 c 0
 735 296 735 296 737 261 c 128
 738.333333333 237.666666667 739.333333333 214.333333333 740 191 c 0
 740.666666667 189.666666667 740.666666667 186.333333333 740 181 c 128
 739.333333333 175.666666667 737 173.666666667 733 175 c 0
814 361 m 256
 810.666666667 361 809 363 809 367 c 0
 809 370.333333333 810.333333333 373 813 375 c 2
 815 375 l 1
 824 379 l 1
 851 393 l 2
 861.666666667 398.333333333 872.666666667 404.166666667 884 410.5 c 128
 895.333333333 416.833333333 905 424.666666667 913 434 c 2
 914 435 l 2
 915.333333333 436.333333333 916.5 438 917.5 440 c 128
 918.5 442 919.333333333 444 920 446 c 0
 928.666666667 460.666666667 933.666666667 477.666666667 935 497 c 0
 935.666666667 509 936 521.333333333 936 534 c 128
 936 553 936 553 936 572 c 0
 936 576.666666667 935.5 581.166666667 934.5 585.5 c 128
 933.5 589.833333333 933 594 933 598 c 0
 933 599.333333333 932.333333333 601.333333333 931 604 c 0
 930.333333333 606.666666667 929.5 609.333333333 928.5 612 c 128
 927.5 614.666666667 927.333333333 617 928 619 c 0
 929.333333333 623.666666667 931.333333333 625.666666667 934 625 c 0
 941.333333333 623 945.833333333 616.5 947.5 605.5 c 128
 949.166666667 594.5 950.333333333 586.333333333 951 581 c 0
 952.333333333 572.333333333 953 563.5 953 554.5 c 128
 953 545.5 952.666666667 536.333333333 952 527 c 0
 951.333333333 512.333333333 950.5 497.666666667 949.5 483 c 128
 948.5 468.333333333 944.333333333 454 937 440 c 0
 933.666666667 433.333333333 929.333333333 427.333333333 924 422 c 128
 918.666666667 416.666666667 912.666666667 411.333333333 906 406 c 0
 895.333333333 397.333333333 883.666666667 390 871 384 c 128
 858.333333333 378 845.333333333 372.333333333 832 367 c 0
 830.666666667 366.333333333 828.166666667 365.166666667 824.5 363.5 c 128
 820.833333333 361.833333333 817.333333333 361 814 361 c 256
810 410 m 0
 808.666666667 411.333333333 808 412.333333333 808 413 c 2
 808 417 l 1
 808 417 808 417 808 417.5 c 128
 808 417.833333333 808.333333333 418 809 418 c 0
 811 421.333333333 812.666666667 423 814 423 c 256
 815.333333333 423 816 423.333333333 816 424 c 0
 828 430.666666667 841.166666667 437.333333333 855.5 444 c 128
 869.833333333 450.666666667 880 460.333333333 886 473 c 0
 889.333333333 480.333333333 890.666666667 488.5 890 497.5 c 128
 889.333333333 506.5 889.333333333 515.333333333 890 524 c 0
 890.666666667 534.666666667 891.166666667 545.333333333 891.5 556 c 128
 891.833333333 566.666666667 892 577.333333333 892 588 c 0
 892 589.333333333 892.5 593.166666667 893.5 599.5 c 128
 894.5 605.833333333 896 611.5 898 616.5 c 128
 900 621.5 902.333333333 622.333333333 905 619 c 0
 907 617 907.833333333 614.166666667 907.5 610.5 c 128
 907.166666667 606.833333333 906.666666667 603.666666667 906 601 c 0
 905.333333333 597 905 593 905 589 c 128
 905 583 905 583 905 577 c 0
 905 569 905.166666667 561 905.5 553 c 128
 905.833333333 545 906 537 906 529 c 2
 906 505 l 2
 906 489 903 475.166666667 897 463.5 c 128
 891 451.833333333 880.666666667 442.333333333 866 435 c 0
 859.333333333 431.666666667 852.5 428 845.5 424 c 128
 838.5 420 831 416.333333333 823 413 c 0
 822.333333333 413 821.333333333 412.666666667 820 412 c 128
 818 411 818 411 816 410 c 0
 815.333333333 410 814.333333333 409.833333333 813 409.5 c 128
 811.666666667 409.166666667 810.666666667 409.333333333 810 410 c 0
598 290 m 0
 589.333333333 291.333333333 580.333333333 291.833333333 571 291.5 c 128
 561.666666667 291.166666667 553.333333333 293.333333333 546 298 c 0
 538 302.666666667 531.666666667 307.666666667 527 313 c 0
 516.333333333 326.333333333 509 340 505 354 c 0
 500.333333333 370.666666667 498 388.666666667 498 408 c 0
 498.666666667 410.666666667 499 413.333333333 499 416 c 128
 499 418.666666667 499.333333333 421.333333333 500 424 c 256
 501 428 501 428 502 432 c 128
 502.666666667 434.666666667 503.666666667 437.333333333 505 440 c 0
 505.666666667 441.333333333 506.833333333 443 508.5 445 c 128
 510.166666667 447 512 448 514 448 c 0
 517.333333333 449.333333333 518.333333333 446.833333333 517 440.5 c 128
 515.666666667 434.166666667 514.666666667 430.333333333 514 429 c 0
 512 423 511.166666667 416.666666667 511.5 410 c 128
 511.833333333 403.333333333 512.333333333 396.666666667 513 390 c 0
 514.333333333 374 517.666666667 360 523 348 c 0
 527 339.333333333 532 331.333333333 538 324 c 128
 544 316.666666667 551.333333333 311.333333333 560 308 c 0
 570.666666667 304 581.5 302 592.5 302 c 128
 609 302 609 302 625 302 c 2
 647 302 l 1
 648.333333333 298 649 295 649 293 c 0
 647.666666667 292.333333333 645.666666667 292 643 292 c 2
 629 291 l 2
 624.333333333 290.333333333 619.333333333 289.833333333 614 289.5 c 128
 608.666666667 289.166666667 603.333333333 289.333333333 598 290 c 0
610 324 m 0
 603.333333333 324 596.333333333 324.666666667 589 326 c 128
 581.666666667 327.333333333 574.333333333 329.333333333 567 332 c 0
 551.666666667 338.666666667 542.666666667 350.166666667 540 366.5 c 128
 537.333333333 382.833333333 536 398.333333333 536 413 c 0
 536 415.666666667 535.833333333 420.5 535.5 427.5 c 128
 535.166666667 434.5 536.333333333 438.666666667 539 440 c 0
 539.666666667 440.666666667 541 440.666666667 543 440 c 0
 545.666666667 438.666666667 547 435.333333333 547 430 c 0
 547 426 547.333333333 422.166666667 548 418.5 c 128
 548.666666667 414.833333333 549.333333333 411.333333333 550 408 c 0
 551.333333333 397.333333333 552.666666667 386.5 554 375.5 c 128
 555.333333333 364.5 560 355.333333333 568 348 c 0
 573.333333333 343.333333333 579.166666667 340.166666667 585.5 338.5 c 128
 591.833333333 336.833333333 598 336 604 336 c 2
 635 338 l 1
 646 338 l 1
 646 336.666666667 646.166666667 335.5 646.5 334.5 c 128
 646.833333333 333.5 647 332.666666667 647 332 c 0
 647 330 646.333333333 328.666666667 645 328 c 0
 642.333333333 326.666666667 639.666666667 326 637 326 c 0
 632.333333333 325.333333333 627.666666667 324.833333333 623 324.5 c 128
 618.333333333 324.166666667 614 324 610 324 c 0
EndSplineSet
Validated: 524321
EndChar

StartChar: F
Encoding: 70 70 37
Width: 1140
Flags: HW
LayerCount: 2
Fore
SplineSet
123 -18 m 1
 123 270 l 2
 123 276.666666667 125.666666667 281.666666667 131 285 c 2
 165 304 l 1
 177 614 l 2
 177 618.666666667 178 621 180 621 c 1
 174 629.666666667 168.833333333 639.5 164.5 650.5 c 128
 160.166666667 661.5 158 674 158 688 c 0
 158 710.666666667 165.833333333 731.166666667 181.5 749.5 c 128
 197.166666667 767.833333333 217.333333333 778 242 780 c 1
 244 793.333333333 249 808.833333333 257 826.5 c 128
 265 844.166666667 278.166666667 859.666666667 296.5 873 c 128
 314.833333333 886.333333333 340 893 372 893 c 0
 379.333333333 893 387 892.5 395 891.5 c 128
 403 890.5 410.333333333 888.333333333 417 885 c 1
 422.333333333 893.666666667 429.833333333 903 439.5 913 c 128
 449.166666667 923 462.333333333 931.833333333 479 939.5 c 128
 495.666666667 947.166666667 516.666666667 951 542 951 c 0
 570 951 592.833333333 947.5 610.5 940.5 c 128
 628.166666667 933.5 641.666666667 926.333333333 651 919 c 1
 660.333333333 929 675 939.5 695 950.5 c 128
 715 961.5 742.666666667 967 778 967 c 0
 810.666666667 967 839.166666667 959.666666667 863.5 945 c 128
 887.833333333 930.333333333 907 910.5 921 885.5 c 128
 935 860.5 942 831.666666667 942 799 c 0
 942 767.666666667 934.333333333 739 919 713 c 128
 903.666666667 687 882.666666667 666.333333333 856 651 c 128
 829.333333333 635.666666667 798.666666667 628 764 628 c 0
 734 628 707.833333333 633.333333333 685.5 644 c 128
 663.166666667 654.666666667 646.333333333 664.333333333 635 673 c 1
 627.666666667 663 615 652.833333333 597 642.5 c 128
 579 632.166666667 554.333333333 627 523 627 c 0
 497.666666667 627 476.166666667 631 458.5 639 c 128
 440.833333333 647 427.333333333 654.333333333 418 661 c 1
 411.333333333 653.666666667 402.5 646 391.5 638 c 128
 380.5 630 367 626 351 626 c 0
 338.333333333 626 325 629 311 635 c 1
 309 632.333333333 307 629.166666667 305 625.5 c 128
 303 621.833333333 300.333333333 618.333333333 297 615 c 1
 297 614 l 1
 305 381 l 1
 418 444 l 2
 419.333333333 444.666666667 420.666666667 445.166666667 422 445.5 c 128
 423.333333333 445.833333333 425 446 427 446 c 0
 432.333333333 446 436.333333333 444.333333333 439 441 c 128
 441.666666667 437.666666667 443 433.666666667 443 429 c 2
 443 300 l 1
 705 444 l 2
 707.666666667 445.333333333 710.333333333 446 713 446 c 0
 718.333333333 446 722.5 444.333333333 725.5 441 c 128
 728.5 437.666666667 730 433.666666667 730 429 c 2
 730 300 l 1
 991 444 l 2
 995 445.333333333 998 446 1000 446 c 0
 1005.33333333 446 1009.5 444.333333333 1012.5 441 c 128
 1015.5 437.666666667 1017 433.666666667 1017 429 c 2
 1017 -18 l 1
 123 -18 l 1
223 628 m 1
 260 628 l 1
 273.333333333 641.333333333 281.666666667 653 285 663 c 128
 288.333333333 673 295 678 305 678 c 0
 307 678 307 678 309.5 678 c 128
 311.166666667 678 312.666666667 677.333333333 314 676 c 0
 326.666666667 667.333333333 339 663 351 663 c 0
 361 663 369.5 665.666666667 376.5 671 c 128
 383.5 676.333333333 389 681.833333333 393 687.5 c 128
 397 693.166666667 399.333333333 696.333333333 400 697 c 0
 402.666666667 703 407.666666667 706 415 706 c 0
 418.333333333 706 421 705.5 423 704.5 c 128
 425 703.5 427 702.333333333 429 701 c 0
 435 695 445.5 687.166666667 460.5 677.5 c 128
 475.5 667.833333333 496 663 522 663 c 0
 546 663 564.666666667 666.5 578 673.5 c 128
 591.333333333 680.5 600.666666667 687.666666667 606 695 c 128
 614 706 614 706 614 706 c 2
 617.333333333 714 623 718 631 718 c 0
 636.333333333 718 640.666666667 716.333333333 644 713 c 2
 644 713 644 713 659.5 700.5 c 128
 669.833333333 692.166666667 684.166666667 684 702.5 676 c 128
 720.833333333 668 741.666666667 664 765 664 c 0
 792.333333333 664 816.5 670.166666667 837.5 682.5 c 128
 858.5 694.833333333 875 711 887 731 c 128
 899 751 905 773 905 797 c 0
 905 837.666666667 893.333333333 870.166666667 870 894.5 c 128
 846.666666667 918.833333333 816.333333333 931 779 931 c 0
 751.666666667 931 730 927.166666667 714 919.5 c 128
 698 911.833333333 686.666666667 904 680 896 c 128
 673.333333333 888 669.666666667 883.333333333 669 882 c 0
 665.666666667 876 660.333333333 873 653 873 c 0
 647 873 642.333333333 875.333333333 639 880 c 0
 638.333333333 880.666666667 634.833333333 883.833333333 628.5 889.5 c 128
 622.166666667 895.166666667 612.166666667 900.666666667 598.5 906 c 128
 584.833333333 911.333333333 566.666666667 914 544 914 c 0
 517.333333333 914 496.833333333 909.5 482.5 900.5 c 128
 468.166666667 891.5 458.333333333 882.333333333 453 873 c 128
 447.666666667 863.666666667 444.666666667 858.333333333 444 857 c 0
 442 847.666666667 436 843 426 843 c 0
 424 843 421.666666667 843.666666667 419 845 c 0
 403 853 387.333333333 857 372 857 c 0
 348.666666667 857 330.5 852.5 317.5 843.5 c 128
 304.5 834.5 295.166666667 824 289.5 812 c 128
 283.833333333 800 280.5 789 279.5 779 c 128
 278.5 769 278 763 278 761 c 0
 278 756.333333333 276.166666667 752.166666667 272.5 748.5 c 128
 268.833333333 744.833333333 264.333333333 743 259 743 c 0
 257.666666667 743 256.166666667 743.166666667 254.5 743.5 c 128
 252.833333333 743.833333333 251.333333333 744 250 744 c 0
 237.333333333 744 225.333333333 739.333333333 214 730 c 128
 202.666666667 720.666666667 196.333333333 710.333333333 195 699 c 0
 194.333333333 696.333333333 194 693 194 689 c 0
 194 674.333333333 197.5 661.833333333 204.5 651.5 c 128
 211.5 641.166666667 217.666666667 633.333333333 223 628 c 1
EndSplineSet
Validated: 524289
EndChar

StartChar: G
Encoding: 71 71 38
Width: 1140
Flags: HW
LayerCount: 2
Fore
SplineSet
98 0 m 1
 98 83 l 2
 98 93 103 98 113 98 c 2
 117 98 l 1
 117 136 l 2
 117 147.333333333 122.666666667 153 134 153 c 2
 146 153 l 1
 146 179 l 2
 146 184.333333333 147.833333333 188.666666667 151.5 192 c 128
 155.166666667 195.333333333 159.333333333 197 164 197 c 2
 224 197 l 1
 235 500 l 1
 221 500 l 1
 221 523 l 1
 164 523 l 1
 164 578 l 1
 177 578 l 1
 177 656 l 1
 135 656 l 1
 135 692 l 1
 561 896 l 2
 563 896.666666667 565.333333333 897 568 897 c 0
 571.333333333 897 573.666666667 896.666666667 575 896 c 2
 1002 692 l 1
 1002 656 l 1
 962 656 l 1
 962 578 l 1
 974 578 l 1
 974 523 l 1
 919 523 l 1
 919 500 l 1
 907 500 l 1
 919 197 l 1
 976 197 l 2
 981.333333333 197 985.666666667 195.333333333 989 192 c 128
 992.333333333 188.666666667 994 184.333333333 994 179 c 2
 994 153 l 1
 1007 153 l 2
 1018.33333333 153 1024 147.333333333 1024 136 c 2
 1024 98 l 1
 1029 98 l 2
 1038.33333333 98 1043 93 1043 83 c 2
 1043 0 l 1
 98 0 l 1
375 725 m 2
 758 725 l 2
 762.666666667 725 765 727 765 731 c 0
 765 733.666666667 763.666666667 735.333333333 761 736 c 2
 574 827 l 2
 570.666666667 828.333333333 568.333333333 829 567 829 c 256
 565.666666667 829 563.666666667 828.333333333 561 827 c 2
 372 736 l 2
 370 735.333333333 369 733.666666667 369 731 c 0
 369 727 371 725 375 725 c 2
308 197 m 1
 427 197 l 1
 438 500 l 1
 423 500 l 1
 423 523 l 1
 311 523 l 1
 311 500 l 1
 296 500 l 1
 308 197 l 1
510 197 m 1
 629 197 l 1
 641 500 l 1
 626 500 l 1
 626 523 l 1
 514 523 l 1
 514 500 l 1
 499 500 l 1
 510 197 l 1
713 197 m 1
 836 197 l 1
 837.333333333 247.666666667 838.833333333 298.166666667 840.5 348.5 c 128
 842.166666667 398.833333333 843.666666667 449.333333333 845 500 c 1
 829 500 l 1
 829 523 l 1
 716 523 l 1
 716 500 l 1
 702 500 l 1
 713 197 l 1
EndSplineSet
Validated: 524289
EndChar

StartChar: H
Encoding: 72 72 39
Width: 1140
Flags: HW
LayerCount: 2
Fore
SplineSet
219 0 m 2
 208.333333333 0 199 4 191 12 c 128
 183 20 179 29.3333333333 179 40 c 2
 179 450 l 2
 179 461.333333333 182 473.666666667 188 487 c 128
 194 500.333333333 200.666666667 510.333333333 208 517 c 2
 542 820 l 2
 550 826.666666667 559.333333333 830 570 830 c 0
 582.666666667 830 592.666666667 826.666666667 600 820 c 2
 933 517 l 2
 940.333333333 510.333333333 947 500.333333333 953 487 c 128
 959 473.666666667 962 461.333333333 962 450 c 2
 962 40 l 2
 962 29.3333333333 958.166666667 20 950.5 12 c 128
 942.833333333 4 933.333333333 0 922 0 c 2
 553 0 l 1
 553 270 l 2
 553 279.333333333 550 286.833333333 544 292.5 c 128
 538 298.166666667 531 301 523 301 c 2
 402 301 l 2
 394 301 387 298.166666667 381 292.5 c 128
 375 286.833333333 372 279.333333333 372 270 c 2
 372 0 l 1
 219 0 l 2
662 299 m 1
 742 299 l 1
 742 384 l 1
 698 384 l 2
 688 384 679.5 380.666666667 672.5 374 c 128
 665.5 367.333333333 662 358.666666667 662 348 c 2
 662 299 l 1
776 299 m 1
 856 299 l 1
 856 348 l 2
 856 358.666666667 852.5 367.333333333 845.5 374 c 128
 838.5 380.666666667 830 384 820 384 c 2
 776 384 l 1
 776 299 l 1
698 190 m 2
 742 190 l 1
 742 264 l 1
 662 264 l 1
 662 228 l 2
 662 217.333333333 665.5 208.333333333 672.5 201 c 128
 679.5 193.666666667 688 190 698 190 c 2
776 190 m 1
 820 190 l 2
 830 190 838.5 193.666666667 845.5 201 c 128
 852.5 208.333333333 856 217.333333333 856 228 c 2
 856 264 l 1
 776 264 l 1
 776 190 l 1
261 -209 m 2
 249.666666667 -209 242.333333333 -205.666666667 239 -199 c 128
 235.666666667 -192.333333333 237.333333333 -184.333333333 244 -175 c 2
 373 0 l 1
 552 0 l 1
 674 -175 l 2
 680.666666667 -184.333333333 682.333333333 -192.333333333 679 -199 c 128
 675.666666667 -205.666666667 668.333333333 -209 657 -209 c 2
 261 -209 l 2
EndSplineSet
Validated: 524289
EndChar

StartChar: I
Encoding: 73 73 40
Width: 1140
Flags: HW
LayerCount: 2
Fore
SplineSet
622 -89 m 2
 558.666666667 -88.3333333333 496.5 -84.1666666667 435.5 -76.5 c 128
 374.5 -68.8333333333 319.333333333 -57.3333333333 270 -42 c 128
 220.666666667 -26.6666666667 181.333333333 -6.5 152 18.5 c 128
 122.666666667 43.5 108 73.6666666667 108 109 c 0
 108 131.666666667 117.333333333 152.5 136 171.5 c 128
 154.666666667 190.5 178.5 206.833333333 207.5 220.5 c 128
 236.5 234.166666667 267.666666667 244.833333333 301 252.5 c 128
 334.333333333 260.166666667 365.333333333 264 394 264 c 0
 402 264 402 264 410 264 c 128
 415.333333333 264 421 263.666666667 427 263 c 1
 489 400 l 1
 468.333333333 405.333333333 451.333333333 408.666666667 438 410 c 128
 424.666666667 411.333333333 417.666666667 412 417 412 c 0
 406.333333333 434 391.666666667 453.166666667 373 469.5 c 128
 354.333333333 485.833333333 335.333333333 499.333333333 316 510 c 128
 296.666666667 520.666666667 280.166666667 528.833333333 266.5 534.5 c 128
 246 543 246 543 246 543 c 1
 238 561 227.166666667 577 213.5 591 c 128
 199.833333333 605 186.166666667 617.166666667 172.5 627.5 c 128
 158.833333333 637.833333333 147.666666667 645.666666667 139 651 c 0
 131 656.333333333 127 662.333333333 127 669 c 0
 127 674.333333333 128.666666667 678.666666667 132 682 c 0
 171.333333333 725.333333333 219.833333333 758.5 277.5 781.5 c 128
 335.166666667 804.5 396.666666667 816 462 816 c 0
 496 816 530.5 812.833333333 565.5 806.5 c 128
 600.5 800.166666667 635.333333333 790.333333333 670 777 c 1
 687 820 l 2
 690.333333333 828 695.666666667 832 703 832 c 0
 708.333333333 832 712.333333333 830.5 715 827.5 c 128
 717.666666667 824.5 719 821.333333333 719 818 c 0
 719 813.333333333 718 809 716 805 c 2
 699 765 l 1
 769.666666667 733.666666667 829.666666667 693.5 879 644.5 c 128
 928.333333333 595.5 966.166666667 541.666666667 992.5 483 c 128
 1018.83333333 424.333333333 1032 364.666666667 1032 304 c 0
 1032 293.333333333 1027.66666667 288 1019 288 c 0
 1017 288 1014.5 288.5 1011.5 289.5 c 128
 1008.5 290.5 1005.33333333 291.333333333 1002 292 c 0
 998 293.333333333 993 294.333333333 987 295 c 128
 981 295.666666667 973.333333333 296 964 296 c 0
 931.333333333 296 900.333333333 288 871 272 c 1
 847 291.333333333 822.166666667 304 796.5 310 c 128
 770.833333333 316 747.333333333 319 726 319 c 0
 716 319 705.833333333 318.5 695.5 317.5 c 128
 685.166666667 316.5 674.666666667 314.666666667 664 312 c 1
 644 330 623 345.166666667 601 357.5 c 128
 579 369.833333333 557.333333333 379.333333333 536 386 c 1
 479 260 l 1
 489 259.333333333 499.333333333 258.166666667 510 256.5 c 128
 520.666666667 254.833333333 531.333333333 253 542 251 c 0
 565.333333333 246.333333333 586 238.5 604 227.5 c 128
 622 216.5 631 204 631 190 c 0
 631 182.666666667 627.833333333 177.333333333 621.5 174 c 128
 615.166666667 170.666666667 607.666666667 167.666666667 599 165 c 128
 590.333333333 162.333333333 582.833333333 158.666666667 576.5 154 c 128
 570.166666667 149.333333333 567 142.333333333 567 133 c 0
 567 119 573.166666667 109.5 585.5 104.5 c 128
 597.833333333 99.5 614.333333333 95 635 91 c 2
 651 88 l 1
 656.333333333 94.6666666667 663 101.166666667 671 107.5 c 128
 679 113.833333333 683.666666667 118.333333333 685 121 c 0
 684.333333333 124.333333333 682.666666667 128.5 680 133.5 c 128
 677.333333333 138.5 674.333333333 143.333333333 671 148 c 0
 668.333333333 152.666666667 665.5 158.5 662.5 165.5 c 128
 659.5 172.5 658 178.333333333 658 183 c 0
 658 190.333333333 660.5 196.166666667 665.5 200.5 c 128
 670.5 204.833333333 676.666666667 207 684 207 c 0
 690 207 696.166666667 205.5 702.5 202.5 c 128
 708.833333333 199.5 715.333333333 196 722 192 c 0
 725.333333333 190 729.333333333 187.666666667 734 185 c 128
 738.666666667 182.333333333 742.333333333 181 745 181 c 256
 747.666666667 181 750.833333333 183.166666667 754.5 187.5 c 128
 758.166666667 191.833333333 761.333333333 195.333333333 764 198 c 0
 770.666666667 204.666666667 777.166666667 210.666666667 783.5 216 c 128
 789.833333333 221.333333333 797 224 805 224 c 0
 812.333333333 224 818.333333333 221.333333333 823 216 c 128
 827.666666667 210.666666667 830 204 830 196 c 0
 830 191.333333333 829.333333333 186.333333333 828 181 c 128
 826.666666667 175.666666667 825.333333333 170.666666667 824 166 c 0
 822.666666667 160 821.5 155.166666667 820.5 151.5 c 128
 819.5 147.833333333 819 145 819 143 c 256
 819 141 821.666666667 138.833333333 827 136.5 c 128
 832.333333333 134.166666667 837 132 841 130 c 0
 850.333333333 125.333333333 859.333333333 120.666666667 868 116 c 128
 876.666666667 111.333333333 881 104.333333333 881 95 c 0
 881 85 877.833333333 78 871.5 74 c 128
 865.166666667 70 858.333333333 67.3333333333 851 66 c 1
 867 64 884.333333333 60.6666666667 903 56 c 128
 921.666666667 51.3333333333 937.5 45.5 950.5 38.5 c 128
 963.5 31.5 970 22.6666666667 970 12 c 0
 970 8.66666666667 966.5 2.33333333333 959.5 -7 c 128
 952.5 -16.3333333333 933.333333333 -28 902 -42 c 0
 860 -60.6666666667 817.166666667 -73.1666666667 773.5 -79.5 c 128
 729.833333333 -85.8333333333 685.333333333 -89 640 -89 c 2
 622 -89 l 2
435 459 m 1
 461 519 489 569.166666667 519 609.5 c 128
 549 649.833333333 577.166666667 682.166666667 603.5 706.5 c 128
 629.833333333 730.833333333 650.333333333 748 665 758 c 1
 664.333333333 758.666666667 664 759.666666667 664 761 c 0
 664 763 665 766.333333333 667 771 c 1
 651.666666667 771 628.666666667 769.166666667 598 765.5 c 128
 567.333333333 761.833333333 532.833333333 753.666666667 494.5 741 c 128
 456.166666667 728.333333333 417 708.666666667 377 682 c 128
 337 655.333333333 300.333333333 619.333333333 267 574 c 1
 267.666666667 574 273.666666667 572.333333333 285 569 c 128
 296.333333333 565.666666667 310.5 560 327.5 552 c 128
 344.5 544 362.5 532.5 381.5 517.5 c 128
 400.5 502.5 418.333333333 483 435 459 c 1
876 307 m 1
 878 326.333333333 879 345 879 363 c 0
 879 416.333333333 871.666666667 465 857 509 c 128
 842.333333333 553 824.5 592 803.5 626 c 128
 782.5 660 762.166666667 688.333333333 742.5 711 c 128
 722.833333333 733.666666667 707.666666667 750 697 760 c 1
 696 757 l 2
 694.666666667 753.666666667 693.333333333 751.666666667 692 751 c 0
 697.333333333 736.333333333 702.666666667 714.666666667 708 686 c 128
 713.333333333 657.333333333 716 622.666666667 716 582 c 0
 716 548.666666667 713 511.833333333 707 471.5 c 128
 701 431.166666667 690.333333333 388.333333333 675 343 c 1
 687 346.333333333 698.333333333 348.5 709 349.5 c 128
 719.666666667 350.5 730 351 740 351 c 0
 766.666666667 351 793 346.666666667 819 338 c 128
 845 329.333333333 864 319 876 307 c 1
769 14 m 0
 774.333333333 14 777.666666667 16.5 779 21.5 c 128
 780.333333333 26.5 781.333333333 32.3333333333 782 39 c 0
 783 50 783 50 784 61 c 128
 784.666666667 68.3333333333 786.666666667 73.3333333333 790 76 c 256
 793.333333333 78.6666666667 798 80.3333333333 804 81 c 128
 810 81.6666666667 816.333333333 82.3333333333 823 83 c 0
 830.333333333 83.6666666667 836.833333333 84.6666666667 842.5 86 c 128
 848.166666667 87.3333333333 851 90 851 94 c 256
 851 98 848.5 101.5 843.5 104.5 c 128
 838.5 107.5 832.666666667 110.333333333 826 113 c 0
 819.333333333 116.333333333 812.833333333 119.833333333 806.5 123.5 c 128
 800.166666667 127.166666667 797 132 797 138 c 0
 797 141.333333333 797.666666667 145.166666667 799 149.5 c 128
 800.333333333 153.833333333 801.666666667 158.333333333 803 163 c 0
 805.666666667 171 807 178 807 184 c 0
 807 188 806 190.666666667 804 192 c 128
 802 193.333333333 800.333333333 194 799 194 c 0
 795 194 790.833333333 192.166666667 786.5 188.5 c 128
 782.166666667 184.833333333 777.666666667 180.333333333 773 175 c 0
 768.333333333 170.333333333 763.666666667 166.166666667 759 162.5 c 128
 754.333333333 158.833333333 750.333333333 157 747 157 c 0
 743 157 738.333333333 158.5 733 161.5 c 128
 727.666666667 164.5 722.333333333 167.333333333 717 170 c 0
 713 172.666666667 709 175 705 177 c 128
 701 179 697.333333333 180 694 180 c 0
 688 180 685 177 685 171 c 0
 685.666666667 164.333333333 689.666666667 155.666666667 697 145 c 0
 700.333333333 140.333333333 703 135.666666667 705 131 c 128
 707 126.333333333 708 122.333333333 708 119 c 0
 708 114.333333333 705.166666667 109.166666667 699.5 103.5 c 128
 693.833333333 97.8333333333 688 92.3333333333 682 87 c 0
 678.666666667 84.3333333333 675.666666667 81.3333333333 673 78 c 128
 670.333333333 74.6666666667 669 71.6666666667 669 69 c 0
 669 63.6666666667 673 61 681 61 c 0
 687.666666667 61 695.166666667 62.1666666667 703.5 64.5 c 128
 711.833333333 66.8333333333 719.333333333 68 726 68 c 0
 732 68 737 65 741 59 c 128
 745 53 748.333333333 46.3333333333 751 39 c 0
 754.333333333 32.3333333333 757.333333333 26.5 760 21.5 c 128
 762.666666667 16.5 765.666666667 14 769 14 c 0
EndSplineSet
Validated: 524293
EndChar

StartChar: J
Encoding: 74 74 41
Width: 1140
Flags: HW
LayerCount: 2
Fore
SplineSet
188 -38 m 2
 159.333333333 -38 134.666666667 -27.6666666667 114 -7 c 128
 93.3333333333 13.6666666667 83 38.3333333333 83 67 c 2
 83 426 l 1
 84 428 l 2
 84 428.666666667 86.5 432.5 91.5 439.5 c 128
 96.5 446.5 106.166666667 453.5 120.5 460.5 c 128
 134.833333333 467.5 155.333333333 471 182 471 c 0
 196.666666667 471 208.5 469.833333333 217.5 467.5 c 128
 226.5 465.166666667 235 462.666666667 243 460 c 0
 251.666666667 457.333333333 261.333333333 454.666666667 272 452 c 128
 282.666666667 449.333333333 297.333333333 448 316 448 c 0
 332.666666667 448 345.166666667 449.166666667 353.5 451.5 c 128
 361.833333333 453.833333333 369.333333333 456.333333333 376 459 c 2
 381 461 l 1
 385 491.666666667 390.833333333 521 398.5 549 c 128
 406.166666667 577 417 602.333333333 431 625 c 1
 427 623.666666667 423 622 419 620 c 128
 413 617 413 617 407 614 c 0
 400.333333333 611.333333333 393.666666667 607.666666667 387 603 c 0
 384.333333333 601.666666667 381.666666667 600.5 379 599.5 c 128
 376.333333333 598.5 373.666666667 597.333333333 371 596 c 256
 368.333333333 594.666666667 366.666666667 594 366 594 c 0
 364 594 362.666666667 594.333333333 362 595 c 0
 360.666666667 599 359.333333333 602 358 604 c 0
 356.666666667 605.333333333 355.666666667 606.833333333 355 608.5 c 128
 354.333333333 610.166666667 353.333333333 612 352 614 c 0
 351.333333333 615.333333333 350.833333333 617 350.5 619 c 128
 350.166666667 621 349.666666667 622.333333333 349 623 c 0
 348 625 348 625 347 627 c 128
 346.333333333 628.333333333 345.333333333 629.333333333 344 630 c 2
 343 630 l 2
 341.666666667 630 341 629.166666667 341 627.5 c 128
 341 625.833333333 340.666666667 624.666666667 340 624 c 2
 340 617 l 2
 340 612.333333333 341 605.666666667 343 597 c 128
 345 588.333333333 346 583.333333333 346 582 c 1
 345.333333333 582 344.666666667 581.666666667 344 581 c 128
 343.333333333 580.333333333 342.333333333 579.666666667 341 579 c 0
 337 577.666666667 334 576.333333333 332 575 c 0
 331.333333333 575 330.333333333 574.5 329 573.5 c 128
 327.666666667 572.5 326.333333333 572 325 572 c 0
 324.333333333 572 323.833333333 572.5 323.5 573.5 c 128
 323.166666667 574.5 322.333333333 575.333333333 321 576 c 0
 317.666666667 579.333333333 314.333333333 584.333333333 311 591 c 0
 309 596 309 596 307 601 c 128
 305.666666667 604.333333333 304 607.333333333 302 610 c 0
 300.666666667 610 300 608 300 604 c 0
 299.333333333 602 299 600 299 598 c 128
 299 595 299 595 299 592 c 2
 298 585 l 2
 298 582.333333333 298.666666667 579 300 575 c 2
 303 557 l 1
 300.333333333 556.333333333 298.166666667 555.166666667 296.5 553.5 c 128
 294.833333333 551.833333333 293 550.333333333 291 549 c 0
 289.666666667 548.333333333 284.666666667 545.666666667 276 541 c 128
 267.333333333 536.333333333 263 533.666666667 263 533 c 1
 263 534.333333333 262.666666667 535.666666667 262 537 c 128
 261.333333333 538.333333333 261 539.333333333 261 540 c 0
 257 551.333333333 254.666666667 561.666666667 254 571 c 2
 254 584 l 2
 254 596.666666667 255.666666667 609.166666667 259 621.5 c 128
 262.333333333 633.833333333 268.333333333 644.333333333 277 653 c 0
 282.333333333 658.333333333 288.166666667 663.166666667 294.5 667.5 c 128
 300.833333333 671.833333333 307 675.333333333 313 678 c 0
 333 686 354.666666667 690 378 690 c 0
 393.333333333 690 409.333333333 688.333333333 426 685 c 1
 421.333333333 688.333333333 416.666666667 691.333333333 412 694 c 128
 407.333333333 696.666666667 402.333333333 699.333333333 397 702 c 0
 387.666666667 706.666666667 377 710.666666667 365 714 c 0
 361.666666667 715.333333333 360 717 360 719 c 0
 360 720.333333333 360.166666667 721.333333333 360.5 722 c 128
 360.833333333 722.666666667 361 723.333333333 361 724 c 0
 361.666666667 727.333333333 362.666666667 730.166666667 364 732.5 c 128
 365.333333333 734.833333333 366.666666667 737.333333333 368 740 c 0
 369.333333333 742 370.5 744.333333333 371.5 747 c 128
 372.5 749.666666667 373 752.333333333 373 755 c 2
 373 758 l 1
 371.666666667 758 369.833333333 757.333333333 367.5 756 c 128
 365.166666667 754.666666667 363.333333333 753.333333333 362 752 c 2
 350 744 l 2
 347 742 347 742 344 740 c 128
 342 738.666666667 340.333333333 737.333333333 339 736 c 0
 338 735 338 735 336 733 c 128
 334.666666667 731.666666667 333.333333333 730.666666667 332 730 c 2
 330 729 l 2
 328.666666667 729 327 729.5 325 730.5 c 128
 323 731.5 321 732.333333333 319 733 c 0
 317 734.333333333 316 735.666666667 316 737 c 0
 316.666666667 739.666666667 317.333333333 742.166666667 318 744.5 c 128
 318.666666667 746.833333333 319.333333333 749.333333333 320 752 c 0
 321.333333333 756 322 759.333333333 322 762 c 256
 322 764.666666667 321.666666667 766.666666667 321 768 c 0
 318.333333333 768 315.666666667 766.666666667 313 764 c 128
 309 760 309 760 307 758 c 2
 299 750 l 2
 298.333333333 749.333333333 297.666666667 748.333333333 297 747 c 128
 296.333333333 745.666666667 295 744.666666667 293 744 c 0
 292.333333333 744 291.5 744.333333333 290.5 745 c 128
 289.5 745.666666667 288.666666667 746 288 746 c 2
 280 749 l 2
 274 751.666666667 268.333333333 753.333333333 263 754 c 0
 259 755.333333333 257 756.666666667 257 758 c 0
 257 760 258 762 260 764 c 0
 261.333333333 766 262.666666667 767.833333333 264 769.5 c 128
 265.333333333 771.166666667 266.333333333 772.333333333 267 773 c 0
 271.666666667 779.666666667 278.5 786 287.5 792 c 128
 296.5 798 303.333333333 801.666666667 308 803 c 0
 324.666666667 807.666666667 338.666666667 810 350 810 c 0
 371.333333333 810 391.5 804.333333333 410.5 793 c 128
 429.5 781.666666667 444.333333333 766.666666667 455 748 c 1
 454.333333333 754 453.5 760 452.5 766 c 128
 451.5 772 450.333333333 778 449 784 c 0
 449 786 448.833333333 788 448.5 790 c 128
 448.166666667 792 447.666666667 794 447 796 c 0
 446.333333333 797.333333333 445.666666667 799 445 801 c 128
 444.333333333 803 444 805 444 807 c 0
 444 807.666666667 444.166666667 808.166666667 444.5 808.5 c 128
 444.833333333 808.833333333 445 809.333333333 445 810 c 0
 447 811.333333333 452.666666667 813 462 815 c 128
 471.333333333 817 476 819 476 821 c 0
 476 822.333333333 474.5 823.333333333 471.5 824 c 128
 468.5 824.666666667 465.666666667 825.333333333 463 826 c 0
 460 826 460 826 456 826 c 128
 453.333333333 826 451 826.333333333 449 827 c 2
 445 827 l 2
 441 827 438.333333333 827.666666667 437 829 c 0
 436.333333333 829.666666667 435.833333333 830.666666667 435.5 832 c 128
 435.166666667 833.333333333 434.666666667 834.666666667 434 836 c 0
 434 837.333333333 432.833333333 840.833333333 430.5 846.5 c 128
 428.166666667 852.166666667 425.833333333 858.166666667 423.5 864.5 c 128
 421.166666667 870.833333333 420 875.333333333 420 878 c 1
 428 878 l 2
 432 878 435 877.666666667 437 877 c 0
 440.333333333 877 444.666666667 876.333333333 450 875 c 0
 459.333333333 873 468.333333333 870 477 866 c 2
 490 859 l 2
 510 848.333333333 524 832.333333333 532 811 c 0
 534 804.333333333 535 797 535 789 c 0
 535 782.333333333 534.333333333 776 533 770 c 128
 531.666666667 764 530 757.666666667 528 751 c 1
 532 755 536.166666667 758.833333333 540.5 762.5 c 128
 544.833333333 766.166666667 549.333333333 769.333333333 554 772 c 0
 563.333333333 778.666666667 573.5 783.5 584.5 786.5 c 128
 595.5 789.5 606.333333333 791 617 791 c 0
 632.333333333 791 647.333333333 788.333333333 662 783 c 0
 668 780.333333333 674 777.333333333 680 774 c 128
 686 770.666666667 691.666666667 767.333333333 697 764 c 0
 701.666666667 760.666666667 707 755.5 713 748.5 c 128
 719 741.5 723.333333333 735 726 729 c 0
 726.666666667 728.333333333 727 727.333333333 727 726 c 128
 727 724.666666667 727.333333333 723.333333333 728 722 c 1
 727 722 l 2
 726.333333333 722 722.833333333 721.166666667 716.5 719.5 c 128
 710.166666667 717.833333333 703.666666667 716.166666667 697 714.5 c 128
 690.333333333 712.833333333 685.333333333 712 682 712 c 0
 679.333333333 712 678 712.333333333 678 713 c 0
 677.333333333 714.333333333 676.333333333 715.833333333 675 717.5 c 128
 673.666666667 719.166666667 672.333333333 721 671 723 c 0
 668.333333333 726.333333333 664 730.666666667 658 736 c 128
 652 741.333333333 646 744 640 744 c 0
 638 744 636.333333333 743.666666667 635 743 c 2
 635 742 l 2
 635 740.666666667 636.333333333 738.666666667 639 736 c 2
 645 725 l 2
 646.333333333 722.333333333 647.833333333 719.833333333 649.5 717.5 c 128
 651.166666667 715.166666667 652 712.333333333 652 709 c 1
 635 707 l 1
 621 704 l 2
 620.333333333 706 619.333333333 708.166666667 618 710.5 c 128
 616.666666667 712.833333333 615.333333333 714.666666667 614 716 c 0
 612.666666667 718.666666667 611.166666667 720.833333333 609.5 722.5 c 128
 607 725 607 725 604 728 c 0
 603.333333333 728.666666667 602 729.5 600 730.5 c 128
 598 731.5 596.666666667 732 596 732 c 256
 595.333333333 732 595 731 595 729 c 0
 595 726.333333333 595.666666667 722.333333333 597 717 c 128
 598.333333333 711.666666667 599 708.666666667 599 708 c 0
 599.666666667 706.666666667 600.333333333 705.166666667 601 703.5 c 128
 601.666666667 701.833333333 602 700.333333333 602 699 c 0
 598.666666667 697 593 695.166666667 585 693.5 c 128
 577 691.833333333 567.333333333 689.333333333 556 686 c 1
 575 686 l 2
 582 686 582 686 588.5 686 c 128
 592.833333333 686 597.333333333 685.333333333 602 684 c 0
 616 682 630.166666667 678.5 644.5 673.5 c 128
 658.833333333 668.5 671.666666667 661.333333333 683 652 c 256
 694.333333333 642.666666667 703.666666667 629.666666667 711 613 c 128
 718.333333333 596.333333333 722.666666667 581 724 567 c 0
 724.666666667 562.333333333 725 558.5 725 555.5 c 128
 725 551 725 551 725 543 c 0
 725 539.666666667 724.833333333 536 724.5 532 c 128
 724.166666667 528 723.333333333 524.333333333 722 521 c 0
 721.333333333 520.333333333 720.5 518.333333333 719.5 515 c 128
 718.5 511.666666667 716.666666667 510 714 510 c 0
 712.666666667 510 711.333333333 511.166666667 710 513.5 c 128
 708.666666667 515.833333333 707.333333333 517.666666667 706 519 c 2
 687 537 l 2
 686.333333333 538.333333333 684.333333333 540.333333333 681 543 c 128
 677.666666667 545.666666667 676 548.333333333 676 551 c 256
 676 553.666666667 676.166666667 556.166666667 676.5 558.5 c 128
 676.833333333 560.833333333 677 563.333333333 677 566 c 0
 677 574 676 581.333333333 674 588 c 2
 671 597 l 2
 670.333333333 597.666666667 669.5 598.666666667 668.5 600 c 128
 667.5 601.333333333 666.333333333 602 665 602 c 1
 665 588 l 2
 665 586.666666667 665.166666667 585.166666667 665.5 583.5 c 128
 665.833333333 581.833333333 666 580 666 578 c 256
 666 576 665.833333333 574 665.5 572 c 128
 665.166666667 570 664.666666667 568 664 566 c 0
 664 562 663.333333333 559.666666667 662 559 c 0
 662 558.333333333 661.333333333 558 660 558 c 0
 659.333333333 558 658.666666667 558.333333333 658 559 c 128
 657.333333333 559.666666667 656.666666667 560 656 560 c 2
 643 570 l 1
 638 575 l 1
 635 577 l 1
 635 582 l 2
 635 583.333333333 635.166666667 584.5 635.5 585.5 c 128
 635.833333333 586.5 636 587.666666667 636 589 c 0
 636 591.666666667 635.833333333 594.166666667 635.5 596.5 c 128
 635.166666667 598.833333333 634.666666667 601.333333333 634 604 c 0
 633.333333333 605.333333333 632.666666667 607.666666667 632 611 c 128
 631.333333333 614.333333333 630.333333333 616 629 616 c 0
 628.333333333 616 628 615 628 613 c 2
 628 605 l 2
 628 603 628 603 628 600 c 128
 628 598 627.666666667 596 627 594 c 0
 627 590 626.333333333 587.333333333 625 586 c 0
 625 584.666666667 624.333333333 584 623 584 c 0
 622.333333333 584 621.666666667 584.333333333 621 585 c 128
 620.333333333 585.666666667 619.333333333 586.333333333 618 587 c 0
 614.666666667 589.666666667 611.166666667 592.166666667 607.5 594.5 c 128
 603.833333333 596.833333333 600.333333333 599 597 601 c 2
 593 604 l 2
 591 605.333333333 589.166666667 606.333333333 587.5 607 c 128
 585.833333333 607.666666667 584.333333333 608.333333333 583 609 c 1
 587 605 590.5 600.666666667 593.5 596 c 128
 596.5 591.333333333 599.333333333 586.333333333 602 581 c 0
 608.666666667 566.333333333 612 552 612 538 c 0
 612 531.333333333 611.5 524.666666667 610.5 518 c 128
 609.5 511.333333333 607.666666667 505.333333333 605 500 c 0
 600.333333333 488 593.666666667 479.333333333 585 474 c 0
 584.333333333 473.333333333 583.666666667 473 583 473 c 0
 580.333333333 473 577.666666667 475.5 575 480.5 c 128
 572.333333333 485.5 570.333333333 488.666666667 569 490 c 0
 567.666666667 492 566.333333333 494.333333333 565 497 c 128
 563.666666667 499.666666667 562.333333333 502 561 504 c 0
 560.333333333 505.333333333 559.166666667 507.166666667 557.5 509.5 c 128
 555.833333333 511.833333333 555 514.333333333 555 517 c 2
 555 519 l 1
 558 525 l 2
 559.333333333 530.333333333 561 535.333333333 563 540 c 128
 565 544.666666667 566 549.666666667 566 555 c 0
 566 558.333333333 565.666666667 561 565 563 c 1
 563 562.333333333 562 560.333333333 562 557 c 0
 561.333333333 555.666666667 560.666666667 553.833333333 560 551.5 c 128
 559.333333333 549.166666667 558.333333333 547.333333333 557 546 c 0
 555.666666667 542 554 538.333333333 552 535 c 0
 551.333333333 534.333333333 550.666666667 533.333333333 550 532 c 128
 549.333333333 530.666666667 548.333333333 529.333333333 547 528 c 2
 545 528 l 2
 544.333333333 528 543.666666667 528.5 543 529.5 c 128
 542.333333333 530.5 541.666666667 531.333333333 541 532 c 0
 540.333333333 534 539.333333333 536 538 538 c 128
 536 541 536 541 534 544 c 0
 533.333333333 545.333333333 532.5 546.833333333 531.5 548.5 c 128
 530.5 550.166666667 529.333333333 551.666666667 528 553 c 0
 524 557 522 560.666666667 522 564 c 0
 522 565.333333333 522.333333333 566.5 523 567.5 c 128
 523.666666667 568.5 524 569.333333333 524 570 c 2
 527 580 l 1
 528 587 l 1
 528 592 l 1
 527.333333333 591.333333333 526.5 590.333333333 525.5 589 c 128
 524.5 587.666666667 523.333333333 586.333333333 522 585 c 0
 521.333333333 584.333333333 520.166666667 582.666666667 518.5 580 c 128
 516.833333333 577.333333333 515 576 513 576 c 0
 510.333333333 577.333333333 508.5 579 507.5 581 c 128
 506.5 583 505.333333333 584.666666667 504 586 c 0
 502 589.333333333 500.166666667 592.166666667 498.5 594.5 c 128
 496.833333333 596.833333333 495.333333333 599.333333333 494 602 c 0
 490.666666667 607.333333333 485.666666667 612.666666667 479 618 c 2
 473 625 l 1
 462.333333333 604.333333333 453.833333333 582.166666667 447.5 558.5 c 128
 441.166666667 534.833333333 438 512.666666667 438 492 c 0
 438 486 438 486 438 481 c 128
 438 477.666666667 438.333333333 474.333333333 439 471 c 1
 461.666666667 471 480.166666667 468.5 494.5 463.5 c 128
 508.833333333 458.5 521.833333333 453.5 533.5 448.5 c 128
 545.166666667 443.5 558.666666667 441 574 441 c 0
 590.666666667 441 605.5 443.5 618.5 448.5 c 128
 631.5 453.5 644.833333333 458.5 658.5 463.5 c 128
 672.166666667 468.5 688 471 706 471 c 0
 724.666666667 471 741.5 468.333333333 756.5 463 c 128
 771.5 457.666666667 786.333333333 452.166666667 801 446.5 c 128
 815.666666667 440.833333333 830.666666667 438 846 438 c 0
 862.666666667 438 876.333333333 440.833333333 887 446.5 c 128
 897.666666667 452.166666667 908.833333333 457.666666667 920.5 463 c 128
 932.166666667 468.333333333 947.666666667 471 967 471 c 0
 993.666666667 471 1015.33333333 465.166666667 1032 453.5 c 128
 1048.66666667 441.833333333 1057 429.333333333 1057 416 c 2
 1057 67 l 2
 1057 38.3333333333 1046.66666667 13.6666666667 1026 -7 c 128
 1005.33333333 -27.6666666667 980.333333333 -38 951 -38 c 2
 188 -38 l 2
188 -22 m 2
 951 -22 l 2
 975.666666667 -22 996.833333333 -13.3333333333 1014.5 4 c 128
 1032.16666667 21.3333333333 1041 42.3333333333 1041 67 c 2
 1041 416 l 2
 1041 423.333333333 1034.83333333 431.833333333 1022.5 441.5 c 128
 1010.16666667 451.166666667 991.666666667 456 967 456 c 0
 949 456 934.5 453.333333333 923.5 448 c 128
 912.5 442.666666667 901.5 437.166666667 890.5 431.5 c 128
 879.5 425.833333333 864.666666667 423 846 423 c 0
 828.666666667 423 812.666666667 425.833333333 798 431.5 c 128
 783.333333333 437.166666667 768.833333333 442.666666667 754.5 448 c 128
 740.166666667 453.333333333 724 456 706 456 c 0
 688.666666667 456 673.333333333 453.5 660 448.5 c 128
 640 441 640 441 620 433.5 c 128
 606.666666667 428.5 591.333333333 426 574 426 c 256
 556.666666667 426 542 428.5 530 433.5 c 128
 518 438.5 505.5 443.5 492.5 448.5 c 128
 479.5 453.5 462 456 440 456 c 1
 441 446 l 2
 441.666666667 436 442.833333333 426.166666667 444.5 416.5 c 128
 446.166666667 406.833333333 448 397.333333333 450 388 c 1
 453 388 l 2
 464.333333333 389.333333333 476.333333333 390.5 489 391.5 c 128
 501.666666667 392.5 515 393 529 393 c 0
 560.333333333 393 593.833333333 390.666666667 629.5 386 c 128
 665.166666667 381.333333333 699.833333333 373.166666667 733.5 361.5 c 128
 767.166666667 349.833333333 797.166666667 334 823.5 314 c 128
 849.833333333 294 870 268.666666667 884 238 c 0
 886 233.333333333 887.333333333 228.833333333 888 224.5 c 128
 888.666666667 220.166666667 889 215.333333333 889 210 c 1
 877.666666667 204 866 192 854 174 c 0
 848 164 836 159 818 159 c 0
 798 159 774.666666667 165.666666667 748 179 c 0
 744 181.666666667 740 183.333333333 736 184 c 128
 732 184.666666667 728.333333333 185 725 185 c 0
 712.333333333 185 699.5 181.666666667 686.5 175 c 128
 667 165 667 165 647.5 155 c 128
 634.5 148.333333333 620.666666667 145 606 145 c 0
 592 145 581.666666667 146.666666667 575 150 c 128
 568.333333333 153.333333333 562.666666667 157.5 558 162.5 c 128
 553.333333333 167.5 547.5 172.333333333 540.5 177 c 128
 533.5 181.666666667 522.333333333 185.333333333 507 188 c 0
 504.333333333 188.666666667 500.666666667 189 496 189 c 0
 480.666666667 189 464 185.666666667 446 179 c 128
 428 172.333333333 409.833333333 165.666666667 391.5 159 c 128
 373.166666667 152.333333333 355 149 337 149 c 0
 323.666666667 149 311 152 299 158 c 0
 285.666666667 165.333333333 273.666666667 170 263 172 c 128
 252.333333333 174 242.666666667 176.666666667 234 180 c 0
 225.333333333 184 219.5 189.5 216.5 196.5 c 128
 213.5 203.5 211.333333333 210.333333333 210 217 c 0
 214 247 225.166666667 272.166666667 243.5 292.5 c 128
 261.833333333 312.833333333 283.666666667 329.5 309 342.5 c 128
 334.333333333 355.5 358.333333333 365.333333333 381 372 c 1
 380.333333333 377.333333333 379.833333333 383.333333333 379.5 390 c 128
 379.166666667 396.666666667 379 403.333333333 379 410 c 0
 379 419 379 419 379 428 c 128
 379 434 379.333333333 439.333333333 380 444 c 1
 373.333333333 441.333333333 365.333333333 438.833333333 356 436.5 c 128
 346.666666667 434.166666667 333.333333333 433 316 433 c 0
 295.333333333 433 279.5 434.333333333 268.5 437 c 128
 257.5 439.666666667 247.333333333 442.666666667 238 446 c 0
 230 449.333333333 222 451.833333333 214 453.5 c 128
 206 455.166666667 195.333333333 456 182 456 c 0
 161.333333333 456 145.166666667 453.666666667 133.5 449 c 128
 121.833333333 444.333333333 113.5 439.333333333 108.5 434 c 128
 103.5 428.666666667 100.333333333 425 99 423 c 2
 99 67 l 2
 99 42.3333333333 107.666666667 21.3333333333 125 4 c 128
 142.333333333 -13.3333333333 163.333333333 -22 188 -22 c 2
EndSplineSet
Validated: 524289
EndChar

StartChar: K
Encoding: 75 75 42
Width: 1140
Flags: HW
LayerCount: 2
Fore
SplineSet
114 -18 m 1
 544 541 l 1
 266 541 l 1
 266 427 l 2
 266 417.666666667 261 413 251 413 c 256
 241 413 236 417.666666667 236 427 c 2
 236 541 l 1
 70 541 l 1
 70 631 l 1
 104 639 134.666666667 643 162 643 c 0
 169.333333333 643 179.5 642.5 192.5 641.5 c 128
 205.5 640.5 220 638.333333333 236 635 c 1
 236 698 l 1
 227 698 l 2
 217.666666667 698 213 703 213 713 c 0
 213 722.333333333 217.666666667 727 227 727 c 2
 236 727 l 1
 236 825 l 1
 227 825 l 2
 217.666666667 825 213 830 213 840 c 0
 213 849.333333333 217.666666667 854 227 854 c 2
 302 854 l 1
 304 864.666666667 309.166666667 873.5 317.5 880.5 c 128
 325.833333333 887.5 335.333333333 891 346 891 c 2
 804 891 l 2
 815.333333333 891 825 887.5 833 880.5 c 128
 841 873.5 846 864.666666667 848 854 c 1
 931 854 l 2
 934.333333333 854 937.5 852.666666667 940.5 850 c 128
 943.5 847.333333333 945 844 945 840 c 256
 945 836 943.5 832.5 940.5 829.5 c 128
 937.5 826.5 934.333333333 825 931 825 c 2
 914 825 l 1
 914 727 l 1
 931 727 l 2
 934.333333333 727 937.5 725.666666667 940.5 723 c 128
 943.5 720.333333333 945 717 945 713 c 256
 945 709 943.5 705.5 940.5 702.5 c 128
 937.5 699.5 934.333333333 698 931 698 c 2
 914 698 l 1
 914 636 l 1
 928 638.666666667 940.666666667 640.5 952 641.5 c 128
 963.333333333 642.5 972.333333333 643 979 643 c 0
 1004.33333333 643 1034.66666667 639.333333333 1070 632 c 1
 1070 541 l 1
 914 541 l 1
 914 427 l 2
 914 417.666666667 909 413 899 413 c 256
 889 413 884 417.666666667 884 427 c 2
 884 541 l 1
 603 541 l 1
 1026 -18 l 1
 114 -18 l 1
346 685 m 2
 804 685 l 2
 810 685 815.333333333 687.333333333 820 692 c 128
 824.666666667 696.666666667 827 702 827 708 c 2
 827 847 l 2
 827 853 824.666666667 858.166666667 820 862.5 c 128
 815.333333333 866.833333333 810 869 804 869 c 2
 346 869 l 2
 339.333333333 869 334 866.833333333 330 862.5 c 128
 326 858.166666667 324 853 324 847 c 2
 324 708 l 2
 324 702 326 696.666666667 330 692 c 128
 334 687.333333333 339.333333333 685 346 685 c 2
366 792 m 2
 360 792 357 795 357 801 c 2
 357 831 l 2
 357 837 360 840 366 840 c 2
 396 840 l 2
 402 840 405 837 405 831 c 2
 405 801 l 2
 405 795 402 792 396 792 c 2
 366 792 l 2
444 792 m 2
 438 792 435 795 435 801 c 2
 435 831 l 2
 435 837 438 840 444 840 c 2
 475 840 l 2
 480.333333333 840 483 837 483 831 c 2
 483 801 l 2
 483 795 480.333333333 792 475 792 c 2
 444 792 l 2
523 792 m 2
 517.666666667 792 515 795 515 801 c 2
 515 831 l 2
 515 837 517.666666667 840 523 840 c 2
 553 840 l 2
 559 840 562 837 562 831 c 2
 562 801 l 2
 562 795 559 792 553 792 c 2
 523 792 l 2
708 723 m 1
 708 766 l 1
 664 766 l 1
 720 838 l 1
 776 766 l 1
 732 766 l 1
 732 723 l 1
 708 723 l 1
266 727 m 1
 301 727 l 1
 301 825 l 1
 266 825 l 1
 266 727 l 1
849 727 m 1
 884 727 l 1
 884 825 l 1
 849 825 l 1
 849 727 l 1
363 713 m 2
 357.666666667 713 355 715.666666667 355 721 c 2
 355 732 l 2
 355 738 357.666666667 741 363 741 c 2
 439 741 l 2
 445 741 448 738 448 732 c 2
 448 721 l 2
 448 715.666666667 445 713 439 713 c 2
 363 713 l 2
481 713 m 2
 475 713 472 715.666666667 472 721 c 2
 472 732 l 2
 472 738 475 741 481 741 c 2
 493 741 l 2
 499 741 502 738 502 732 c 2
 502 721 l 2
 502 715.666666667 499 713 493 713 c 2
 481 713 l 2
570 550 m 1
 587.333333333 566 606.5 580.166666667 627.5 592.5 c 128
 648.5 604.833333333 669.5 614.333333333 690.5 621 c 128
 711.5 627.666666667 729.666666667 631 745 631 c 0
 754.333333333 631 766 629.833333333 780 627.5 c 128
 794 625.166666667 810.333333333 622.333333333 829 619 c 1
 838.333333333 621 847.666666667 623.166666667 857 625.5 c 128
 866.333333333 627.833333333 875.333333333 629.666666667 884 631 c 1
 884 698 l 1
 848 698 l 1
 845.333333333 688 840.166666667 679.666666667 832.5 673 c 128
 824.833333333 666.333333333 815.333333333 663 804 663 c 2
 346 663 l 2
 335.333333333 663 326 666.333333333 318 673 c 128
 310 679.666666667 304.666666667 688 302 698 c 1
 266 698 l 1
 266 629 l 1
 273.333333333 627.666666667 280.833333333 626.166666667 288.5 624.5 c 128
 296.166666667 622.833333333 304 621 312 619 c 1
 330 622.333333333 346.333333333 625.166666667 361 627.5 c 128
 375.666666667 629.833333333 387.333333333 631 396 631 c 0
 412 631 430.333333333 627.666666667 451 621 c 128
 471.666666667 614.333333333 492.5 604.833333333 513.5 592.5 c 128
 534.5 580.166666667 553.333333333 566 570 550 c 1
560 521 m 1
 567 521 l 1
 574 539 l 1
 580 521 l 1
 588 521 l 1
 579 541 l 1
 568 541 l 1
 560 521 l 1
539 477 m 1
 551 477 l 1
 560 503 l 1
 550 503 l 1
 539 477 l 1
596 477 m 1
 608 477 l 1
 597 503 l 1
 587 503 l 1
 596 477 l 1
503 402 m 1
 523 402 l 1
 540 449 l 1
 525 449 l 1
 503 402 l 1
624 402 m 1
 644 402 l 1
 622 449 l 1
 606 449 l 1
 624 402 l 1
447 280 m 1
 479 280 l 1
 507 358 l 1
 483 358 l 1
 447 280 l 1
668 280 m 1
 701 280 l 1
 664 358 l 1
 640 358 l 1
 668 280 l 1
322 12 m 1
 382 12 l 1
 454 211 l 1
 414 211 l 1
 322 12 l 1
766 12 m 1
 826 12 l 1
 733 211 l 1
 693 211 l 1
 766 12 l 1
EndSplineSet
Validated: 524289
EndChar

StartChar: L
Encoding: 76 76 43
Width: 964
Flags: HW
LayerCount: 2
Fore
SplineSet
805 -34 m 0
 795 -34 786 -30.6666666667 778 -24 c 2
 615 138 l 2
 611.666666667 141.333333333 609.166666667 145.666666667 607.5 151 c 128
 605.833333333 156.333333333 605 161.333333333 605 166 c 0
 605 178.666666667 609 191.333333333 617 204 c 1
 545 275 l 1
 518.333333333 254.333333333 488.833333333 238.833333333 456.5 228.5 c 128
 424.166666667 218.166666667 391.333333333 213 358 213 c 0
 314.666666667 213 274.333333333 221 237 237 c 128
 199.666666667 253 167.166666667 275.166666667 139.5 303.5 c 128
 111.833333333 331.833333333 90.1666666667 364.5 74.5 401.5 c 128
 58.8333333333 438.5 51 478 51 520 c 0
 51 562.666666667 59 602.5 75 639.5 c 128
 91 676.5 113.166666667 709 141.5 737 c 128
 169.833333333 765 202.5 787 239.5 803 c 128
 276.5 819 316.333333333 827 359 827 c 0
 402.333333333 827 442.5 819 479.5 803 c 128
 516.5 787 549 764.833333333 577 736.5 c 128
 605 708.166666667 626.833333333 675.5 642.5 638.5 c 128
 658.166666667 601.5 666 562.333333333 666 521 c 0
 666 488.333333333 660.833333333 455.666666667 650.5 423 c 128
 640.166666667 390.333333333 624.333333333 360.333333333 603 333 c 1
 673 263 l 1
 687 269 700 272 712 272 c 0
 724.666666667 272 734 269 740 263 c 2
 903 101 l 2
 909.666666667 94.3333333333 913 85 913 73 c 0
 913 57.6666666667 907.333333333 41.6666666667 896 25 c 128
 884.666666667 8.33333333333 870.666666667 -5.66666666667 854 -17 c 128
 837.333333333 -28.3333333333 821 -34 805 -34 c 0
359 277 m 0
 405 277 446.333333333 288.166666667 483 310.5 c 128
 519.666666667 332.833333333 548.666666667 362.5 570 399.5 c 128
 591.333333333 436.5 602 476.666666667 602 520 c 0
 602 564.666666667 591 605.333333333 569 642 c 128
 547 678.666666667 517.666666667 708 481 730 c 128
 444.333333333 752 403.666666667 763 359 763 c 0
 315 763 274.5 752 237.5 730 c 128
 200.5 708 170.833333333 678.666666667 148.5 642 c 128
 126.166666667 605.333333333 115 564.666666667 115 520 c 256
 115 475.333333333 126 434.666666667 148 398 c 128
 170 361.333333333 199.5 332 236.5 310 c 128
 273.5 288 314.333333333 277 359 277 c 0
EndSplineSet
Validated: 524289
EndChar

StartChar: M
Encoding: 77 77 44
Width: 1140
Flags: HW
LayerCount: 2
Fore
SplineSet
286 -84 m 0
 282 -84 278.333333333 -82.6666666667 275 -80 c 0
 267.666666667 -74.6666666667 259.333333333 -72 250 -72 c 0
 241.333333333 -72 234 -74 228 -78 c 0
 226.666666667 -79.3333333333 223.666666667 -80 219 -80 c 0
 217 -80 217 -80 214 -80 c 128
 212 -80 210.333333333 -79.6666666667 209 -79 c 0
 206.333333333 -77.6666666667 203.333333333 -75.8333333333 200 -73.5 c 128
 196.666666667 -71.1666666667 194 -68.6666666667 192 -66 c 0
 178.666666667 -45.3333333333 164.666666667 -31 150 -23 c 128
 135.333333333 -15 125.333333333 -9.66666666667 120 -7 c 0
 114 -3.66666666667 107.166666667 -1.66666666667 99.5 -1 c 128
 91.8333333333 -0.333333333333 85.3333333333 0 80 0 c 2
 70 0 l 1
 70 43 l 1
 238 402 l 2
 254.666666667 437.333333333 268.333333333 467.333333333 279 492 c 128
 289.666666667 516.666666667 299.333333333 537 308 553 c 0
 317.333333333 569.666666667 327.333333333 584.166666667 338 596.5 c 128
 348.666666667 608.833333333 362.333333333 615 379 615 c 0
 389 615 397.333333333 612.833333333 404 608.5 c 128
 410.666666667 604.166666667 417.333333333 602 424 602 c 0
 430 602 436 604.833333333 442 610.5 c 128
 448 616.166666667 453.666666667 622.666666667 459 630 c 0
 466.333333333 639.333333333 474.666666667 647.333333333 484 654 c 128
 493.333333333 660.666666667 505.333333333 664 520 664 c 0
 540.666666667 664 558 656.833333333 572 642.5 c 128
 586 628.166666667 602.333333333 602.333333333 621 565 c 2
 669 471 l 1
 724 553 l 2
 729.333333333 560.333333333 735.5 566 742.5 570 c 128
 749.5 574 758 576 768 576 c 256
 778 576 786.833333333 573.333333333 794.5 568 c 128
 802.166666667 562.666666667 808.333333333 556 813 548 c 0
 814.333333333 546 819.5 536.166666667 828.5 518.5 c 128
 837.5 500.833333333 849.333333333 477.833333333 864 449.5 c 128
 878.666666667 421.166666667 894.833333333 389.666666667 912.5 355 c 128
 930.166666667 320.333333333 948.5 284.666666667 967.5 248 c 128
 986.5 211.333333333 1004.83333333 176.166666667 1022.5 142.5 c 128
 1040.16666667 108.833333333 1056 78.6666666667 1070 52 c 1
 1070 -7 l 1
 1070 -5.66666666667 1068.66666667 -5 1066 -5 c 0
 1062.66666667 -5 1056.66666667 -7.5 1048 -12.5 c 128
 1039.33333333 -17.5 1030.5 -23.6666666667 1021.5 -31 c 128
 1012.5 -38.3333333333 1005.33333333 -45 1000 -51 c 0
 998 -53.6666666667 996.166666667 -56.1666666667 994.5 -58.5 c 128
 992.833333333 -60.8333333333 990.333333333 -62.3333333333 987 -63 c 0
 980.333333333 -63.6666666667 974.333333333 -65.5 969 -68.5 c 128
 963.666666667 -71.5 958.333333333 -75 953 -79 c 0
 950.333333333 -81.6666666667 946.333333333 -83 941 -83 c 0
 937.666666667 -83 934.333333333 -82 931 -80 c 0
 923.666666667 -66 913.166666667 -55.6666666667 899.5 -49 c 128
 885.833333333 -42.3333333333 870.333333333 -39 853 -39 c 0
 837.666666667 -39 822.833333333 -41.8333333333 808.5 -47.5 c 128
 794.166666667 -53.1666666667 783.333333333 -62.3333333333 776 -75 c 0
 772.666666667 -80.3333333333 768.333333333 -83 763 -83 c 0
 761 -83 758.666666667 -82.3333333333 756 -81 c 0
 748 -77 738.666666667 -75 728 -75 c 2
 726 -75 l 2
 718 -75 712.333333333 -71.3333333333 709 -64 c 0
 700.333333333 -44 687.166666667 -29.3333333333 669.5 -20 c 128
 651.833333333 -10.6666666667 631.333333333 -6 608 -6 c 0
 584 -6 561.833333333 -10.8333333333 541.5 -20.5 c 128
 521.166666667 -30.1666666667 508.333333333 -45.6666666667 503 -67 c 0
 502.333333333 -70.3333333333 500 -73.3333333333 496 -76 c 2
 491 -80 l 2
 488.333333333 -82 485 -83 481 -83 c 0
 478.333333333 -83 476 -82.3333333333 474 -81 c 0
 465.333333333 -77 456 -75 446 -75 c 0
 434.666666667 -75 424.666666667 -77.3333333333 416 -82 c 0
 413.333333333 -83.3333333333 411 -84 409 -84 c 0
 404.333333333 -84 400 -82 396 -78 c 0
 390 -72 382.833333333 -67 374.5 -63 c 128
 366.166666667 -59 357.333333333 -57 348 -57 c 0
 326 -57 309.333333333 -64.3333333333 298 -79 c 0
 295.333333333 -82.3333333333 291.333333333 -84 286 -84 c 0
516 335 m 0
 528 335 536.166666667 338.666666667 540.5 346 c 128
 544.833333333 353.333333333 548.333333333 361 551 369 c 0
 553.666666667 376.333333333 556.666666667 382.666666667 560 388 c 128
 563.333333333 393.333333333 568.666666667 396 576 396 c 256
 583.333333333 396 591.833333333 393.166666667 601.5 387.5 c 128
 611.166666667 381.833333333 617.333333333 379 620 379 c 0
 624 379 627.333333333 380.5 630 383.5 c 128
 632.666666667 386.5 634.333333333 389.333333333 635 392 c 0
 635.666666667 393.333333333 636 395.333333333 636 398 c 0
 636 406 630 421.333333333 618 444 c 2
 597 486 l 2
 582.333333333 516 570.666666667 539.666666667 562 557 c 128
 553.333333333 574.333333333 545.666666667 586.833333333 539 594.5 c 128
 532.333333333 602.166666667 524.666666667 606 516 606 c 0
 506 606 498 602.666666667 492 596 c 128
 486 589.333333333 480.333333333 582.333333333 475 575 c 0
 470.333333333 567 465.166666667 559.833333333 459.5 553.5 c 128
 453.833333333 547.166666667 445.666666667 544 435 544 c 0
 421.666666667 544 412.333333333 545.166666667 407 547.5 c 128
 401.666666667 549.833333333 394.333333333 551 385 551 c 0
 379.666666667 551 374.5 548.5 369.5 543.5 c 128
 364.5 538.5 357.5 526.166666667 348.5 506.5 c 128
 339.5 486.833333333 325.666666667 455 307 411 c 0
 305 406.333333333 303.333333333 402.166666667 302 398.5 c 128
 300.666666667 394.833333333 300 391 300 387 c 0
 300 378.333333333 303.666666667 371.5 311 366.5 c 128
 318.333333333 361.5 325.333333333 359 332 359 c 0
 341.333333333 359 349.666666667 361 357 365 c 128
 364.333333333 369 371 373.333333333 377 378 c 0
 383 383.333333333 389 387.833333333 395 391.5 c 128
 401 395.166666667 408 397 416 397 c 0
 425.333333333 397 433.5 394.166666667 440.5 388.5 c 128
 447.5 382.833333333 454.333333333 376.333333333 461 369 c 0
 469 361 477.666666667 353.333333333 487 346 c 128
 496.333333333 338.666666667 506 335 516 335 c 0
748 374 m 0
 749.333333333 373.333333333 751.5 374 754.5 376 c 128
 757.5 378 763.666666667 381.333333333 773 386 c 0
 781 390 786.166666667 392.666666667 788.5 394 c 128
 790.833333333 395.333333333 793.666666667 396 797 396 c 0
 801 396 805.333333333 395.333333333 810 394 c 128
 814.666666667 392.666666667 817.666666667 391.666666667 819 391 c 256
 820.333333333 390.333333333 823 389.666666667 827 389 c 128
 831 388.333333333 833.666666667 388 835 388 c 0
 843 388 847 390.666666667 847 396 c 0
 847 398 844.166666667 404.166666667 838.5 414.5 c 128
 832.833333333 424.833333333 826.166666667 436.5 818.5 449.5 c 128
 810.833333333 462.5 804 474.166666667 798 484.5 c 128
 792 494.833333333 788.666666667 500.333333333 788 501 c 0
 784.666666667 505.666666667 781.166666667 509.5 777.5 512.5 c 128
 773.833333333 515.5 769.333333333 517 764 517 c 0
 756 517 748.666666667 512.666666667 742 504 c 2
 695 439 l 1
 702.333333333 425.666666667 708.666666667 414.666666667 714 406 c 128
 719.333333333 397.333333333 724.333333333 390.666666667 729 386 c 0
 732.333333333 383.333333333 735.333333333 380.666666667 738 378 c 128
 740.666666667 375.333333333 744 374 748 374 c 0
EndSplineSet
Validated: 524289
EndChar

StartChar: N
Encoding: 78 78 45
Width: 1013
Flags: HW
LayerCount: 2
Fore
SplineSet
508 42 m 0
 438.666666667 42 377.166666667 50.5 323.5 67.5 c 128
 269.833333333 84.5 224.166666667 107.5 186.5 136.5 c 128
 148.833333333 165.5 119.333333333 198.333333333 98 235 c 1
 94 233 89.6666666667 232 85 232 c 0
 75.6666666667 232 68.5 235.5 63.5 242.5 c 128
 58.5 249.5 55.1666666667 257.166666667 53.5 265.5 c 128
 51.8333333333 273.833333333 51 280 51 284 c 0
 51 306 53 324.166666667 57 338.5 c 128
 61 352.833333333 66 367.666666667 72 383 c 0
 88.6666666667 426.333333333 112.5 465.166666667 143.5 499.5 c 128
 174.5 533.833333333 210 563 250 587 c 128
 290 611 332.166666667 629.333333333 376.5 642 c 128
 420.833333333 654.666666667 465 661 509 661 c 0
 600.333333333 661 681.333333333 639 752 595 c 128
 822.666666667 551 879.333333333 489.333333333 922 410 c 0
 930.666666667 394 939.5 377 948.5 359 c 128
 957.5 341 962 323.333333333 962 306 c 0
 962 297.333333333 960.333333333 289.666666667 957 283 c 128
 953.666666667 276.333333333 946.666666667 272.333333333 936 271 c 1
 918.666666667 229 891.166666667 190.666666667 853.5 156 c 128
 815.833333333 121.333333333 768.166666667 93.6666666667 710.5 73 c 128
 652.833333333 52.3333333333 585.333333333 42 508 42 c 0
451 327 m 0
 472.333333333 327 490.166666667 334.333333333 504.5 349 c 128
 518.833333333 363.666666667 526 381.333333333 526 402 c 256
 526 422.666666667 518.833333333 440.166666667 504.5 454.5 c 128
 490.166666667 468.833333333 472.333333333 476 451 476 c 0
 430.333333333 476 412.666666667 468.833333333 398 454.5 c 128
 383.333333333 440.166666667 376 422.666666667 376 402 c 256
 376 381.333333333 383.333333333 363.666666667 398 349 c 128
 412.666666667 334.333333333 430.333333333 327 451 327 c 0
508 79 m 0
 580 79 642.333333333 88.3333333333 695 107 c 128
 747.666666667 125.666666667 791.166666667 150.166666667 825.5 180.5 c 128
 859.833333333 210.833333333 885.333333333 244 902 280 c 1
 893.333333333 286.666666667 885.166666667 295.166666667 877.5 305.5 c 128
 869.833333333 315.833333333 861.166666667 325 851.5 333 c 128
 841.833333333 341 829.333333333 345 814 345 c 0
 802 345 792.5 339.333333333 785.5 328 c 128
 778.5 316.666666667 773 303.833333333 769 289.5 c 128
 765 275.166666667 761 263 757 253 c 0
 745.666666667 223 728.333333333 198.166666667 705 178.5 c 128
 681.666666667 158.833333333 655 144 625 134 c 128
 595 124 564.666666667 119 534 119 c 0
 496.666666667 119 460.166666667 126.166666667 424.5 140.5 c 128
 388.833333333 154.833333333 358.166666667 174.5 332.5 199.5 c 128
 306.833333333 224.5 290 253.333333333 282 286 c 0
 279.333333333 298.666666667 277.166666667 313.166666667 275.5 329.5 c 128
 273.833333333 345.833333333 271 360 267 372 c 128
 263 384 255.333333333 390 244 390 c 0
 231.333333333 390 221.5 386.666666667 214.5 380 c 128
 207.5 373.333333333 201.333333333 367.333333333 196 362 c 0
 186 351.333333333 175.666666667 335.5 165 314.5 c 128
 154.333333333 293.5 142.333333333 275.333333333 129 260 c 1
 147.666666667 227.333333333 173.833333333 197.166666667 207.5 169.5 c 128
 241.166666667 141.833333333 283 119.833333333 333 103.5 c 128
 383 87.1666666667 441.333333333 79 508 79 c 0
EndSplineSet
Validated: 524289
EndChar

StartChar: O
Encoding: 79 79 46
Width: 800
Flags: HW
LayerCount: 2
Fore
SplineSet
309 -175 m 0
 249 -175 200.666666667 -159.166666667 164 -127.5 c 128
 127.333333333 -95.8333333333 103.666666667 -56.6666666667 93 -10 c 1
 131 6 l 1
 148.333333333 -24.6666666667 171.666666667 -51.5 201 -74.5 c 128
 230.333333333 -97.5 266.333333333 -109 309 -109 c 0
 344.333333333 -109 376.833333333 -100.333333333 406.5 -83 c 128
 436.166666667 -65.6666666667 461.333333333 -42 482 -12 c 128
 502.666666667 18 516.666666667 52 524 90 c 0
 538 158.666666667 553.833333333 216.5 571.5 263.5 c 128
 589.166666667 310.5 604.666666667 349.333333333 618 380 c 256
 631.333333333 410.666666667 643.666666667 443 655 477 c 128
 666.333333333 511 672 544.666666667 672 578 c 0
 672 628 661.5 671.166666667 640.5 707.5 c 128
 619.5 743.833333333 590 771.833333333 552 791.5 c 128
 514 811.166666667 470 821 420 821 c 0
 372 821 330.5 812.166666667 295.5 794.5 c 128
 260.5 776.833333333 230.666666667 752.833333333 206 722.5 c 128
 181.333333333 692.166666667 161.166666667 657.666666667 145.5 619 c 128
 129.833333333 580.333333333 117.333333333 539.666666667 108 497 c 1
 62 503 l 1
 67.3333333333 577 84.8333333333 643 114.5 701 c 128
 144.166666667 759 184.833333333 804.5 236.5 837.5 c 128
 288.166666667 870.5 349.333333333 887 420 887 c 0
 483.333333333 887 538.833333333 874 586.5 848 c 128
 634.166666667 822 671.333333333 785.833333333 698 739.5 c 128
 724.666666667 693.166666667 738 639.333333333 738 578 c 0
 738 538.666666667 731.333333333 499.166666667 718 459.5 c 128
 704.666666667 419.833333333 691.333333333 384.333333333 678 353 c 0
 665.333333333 323 650.833333333 285.833333333 634.5 241.5 c 128
 618.166666667 197.166666667 603 143 589 79 c 0
 578.333333333 29 559.333333333 -15 532 -53 c 128
 504.666666667 -91 471.833333333 -120.833333333 433.5 -142.5 c 128
 395.166666667 -164.166666667 353.666666667 -175 309 -175 c 0
296 24 m 0
 258 24 230.333333333 36.8333333333 213 62.5 c 128
 195.666666667 88.1666666667 187 118 187 152 c 0
 187 170 188.833333333 188.333333333 192.5 207 c 128
 196.166666667 225.666666667 201.666666667 241 209 253 c 0
 217.666666667 267 225.333333333 282.5 232 299.5 c 128
 238.666666667 316.5 242 333.666666667 242 351 c 0
 242 363 237 379.333333333 227 400 c 0
 222.333333333 410.666666667 218.166666667 421.333333333 214.5 432 c 128
 210.833333333 442.666666667 209 456.666666667 209 474 c 0
 209 503.333333333 215.166666667 532.333333333 227.5 561 c 128
 239.833333333 589.666666667 256.5 615.666666667 277.5 639 c 128
 298.5 662.333333333 322.333333333 681 349 695 c 128
 375.666666667 709 403.333333333 716 432 716 c 0
 466 716 494.166666667 707.5 516.5 690.5 c 128
 538.833333333 673.5 555.666666667 650.666666667 567 622 c 128
 578.333333333 593.333333333 584 561.333333333 584 526 c 0
 584 520.666666667 582.333333333 516.5 579 513.5 c 128
 575.666666667 510.5 571.666666667 509 567 509 c 256
 562.333333333 509 558 509.833333333 554 511.5 c 128
 550 513.166666667 547.666666667 518 547 526 c 0
 545.666666667 544.666666667 540 563.333333333 530 582 c 128
 520 600.666666667 507.166666667 616.333333333 491.5 629 c 128
 475.833333333 641.666666667 458 648 438 648 c 0
 416 648 396 641.833333333 378 629.5 c 128
 360 617.166666667 345.5 601.166666667 334.5 581.5 c 128
 323.5 561.833333333 318 541 318 519 c 0
 318 511 319.5 503.333333333 322.5 496 c 128
 325.5 488.666666667 330.333333333 483.333333333 337 480 c 0
 362.333333333 467.333333333 383.166666667 453.5 399.5 438.5 c 128
 415.833333333 423.5 424 405.666666667 424 385 c 0
 424 380.333333333 422.333333333 375.166666667 419 369.5 c 128
 415.666666667 363.833333333 411 361 405 361 c 0
 400.333333333 361 396.666666667 362.666666667 394 366 c 128
 391.333333333 369.333333333 389 373.333333333 387 378 c 0
 384.333333333 384 379.5 390.333333333 372.5 397 c 128
 365.5 403.666666667 357 407 347 407 c 0
 333 407 326 401.666666667 326 391 c 0
 326 388.333333333 326.666666667 384.833333333 328 380.5 c 128
 329.333333333 376.166666667 330.666666667 372 332 368 c 256
 333.333333333 364 335 358.666666667 337 352 c 128
 339 345.333333333 340 338.333333333 340 331 c 0
 340 321.666666667 338.333333333 310.333333333 335 297 c 128
 331.666666667 283.666666667 324.666666667 269.666666667 314 255 c 256
 303.333333333 240.333333333 294.333333333 225.833333333 287 211.5 c 128
 279.666666667 197.166666667 276 181 276 163 c 0
 276 138.333333333 282 121.166666667 294 111.5 c 128
 306 101.833333333 320.333333333 97 337 97 c 0
 348.333333333 97 357.5 98.5 364.5 101.5 c 128
 371.5 104.5 377.333333333 107.333333333 382 110 c 0
 391.333333333 116 398 119 402 119 c 0
 408 119 413.166666667 116.333333333 417.5 111 c 128
 421.833333333 105.666666667 424 100 424 94 c 0
 424 88.6666666667 422.333333333 83.6666666667 419 79 c 0
 405 60.3333333333 386.333333333 46.5 363 37.5 c 128
 339.666666667 28.5 317.333333333 24 296 24 c 0
EndSplineSet
Validated: 524289
EndChar

StartChar: P
Encoding: 80 80 47
Width: 1140
Flags: HW
LayerCount: 2
Fore
SplineSet
191 0 m 1
 165 28 152 62.6666666667 152 104 c 0
 152 143.333333333 161.5 175.666666667 180.5 201 c 128
 199.5 226.333333333 223.666666667 247 253 263 c 128
 282.333333333 279 311.666666667 292.333333333 341 303 c 0
 365 311.666666667 387.166666667 320.5 407.5 329.5 c 128
 427.833333333 338.5 444.166666667 348.833333333 456.5 360.5 c 128
 468.833333333 372.166666667 475 385.666666667 475 401 c 0
 475 411 470.333333333 419.333333333 461 426 c 0
 453 428.666666667 444.666666667 431 436 433 c 128
 427.333333333 435 418 436.333333333 408 437 c 0
 390.666666667 437 373.5 434.666666667 356.5 430 c 128
 339.5 425.333333333 321.666666667 420.666666667 303 416 c 128
 284.333333333 411.333333333 262.666666667 409 238 409 c 0
 203.333333333 409 173.666666667 411.833333333 149 417.5 c 128
 124.333333333 423.166666667 109 427 103 429 c 2
 100 430 l 1
 104 438 108.666666667 447 114 457 c 128
 119.333333333 467 123.333333333 474.333333333 126 479 c 0
 135.333333333 494.333333333 146.333333333 513.5 159 536.5 c 128
 171.666666667 559.5 184 582.833333333 196 606.5 c 128
 208 630.166666667 217.333333333 649.666666667 224 665 c 0
 238.666666667 697.666666667 250.166666667 723.333333333 258.5 742 c 128
 266.833333333 760.666666667 277 772 289 776 c 0
 291 776.666666667 294 777 298 777 c 0
 301.333333333 777 304.333333333 776.666666667 307 776 c 128
 309.666666667 775.333333333 312 774.333333333 314 773 c 0
 316.666666667 771.666666667 319 771 321 771 c 0
 323.666666667 771 326 772 328 774 c 2
 328 775 l 2
 329.333333333 775.666666667 331.333333333 778 334 782 c 0
 335.333333333 785.333333333 337.666666667 789 341 793 c 128
 344.333333333 797 348.666666667 799.666666667 354 801 c 0
 357.333333333 801.666666667 360.5 802.166666667 363.5 802.5 c 128
 366.5 802.833333333 369.333333333 803 372 803 c 0
 388 803 401 795.333333333 411 780 c 0
 412 778 412 778 420.5 761 c 128
 426.166666667 749.666666667 432.166666667 738 438.5 726 c 128
 444.833333333 714 448.666666667 706 450 702 c 1
 479 745 l 2
 485 753 493 757 503 757 c 0
 507 757 511.166666667 755.5 515.5 752.5 c 128
 519.833333333 749.5 523.333333333 746.333333333 526 743 c 0
 527.333333333 741 533 730.166666667 543 710.5 c 128
 553 690.833333333 565.5 666.666666667 580.5 638 c 128
 595.5 609.333333333 610.333333333 580.666666667 625 552 c 1
 634.333333333 565.333333333 644.5 579.833333333 655.5 595.5 c 128
 666.5 611.166666667 676.666666667 624.833333333 686 636.5 c 128
 695.333333333 648.166666667 702.666666667 654 708 654 c 0
 716 654 725.333333333 648.833333333 736 638.5 c 128
 746.666666667 628.166666667 757.166666667 616.166666667 767.5 602.5 c 128
 777.833333333 588.833333333 786.333333333 577 793 567 c 1
 790.333333333 561.666666667 785.333333333 557 778 553 c 128
 770.666666667 549 763.833333333 544.5 757.5 539.5 c 128
 751.166666667 534.5 748 527.666666667 748 519 c 0
 748 509.666666667 751.333333333 503.333333333 758 500 c 128
 764.666666667 496.666666667 768 494 768 492 c 0
 768 491.333333333 765.333333333 489.666666667 760 487 c 128
 754.666666667 484.333333333 750 482.333333333 746 481 c 0
 735.333333333 477 727.833333333 472.5 723.5 467.5 c 128
 719.166666667 462.5 717 456.333333333 717 449 c 0
 717 440.333333333 719 434.166666667 723 430.5 c 128
 727 426.833333333 729 423.333333333 729 420 c 0
 729 418 727.833333333 416.666666667 725.5 416 c 128
 723.166666667 415.333333333 720.666666667 415 718 415 c 0
 690 415 660.833333333 414.333333333 630.5 413 c 128
 600.166666667 411.666666667 575.333333333 410.666666667 556 410 c 1
 557.333333333 407.333333333 558 404.333333333 558 401 c 0
 558 377.666666667 547.833333333 356.666666667 527.5 338 c 128
 507.166666667 319.333333333 484 300.666666667 458 282 c 0
 440 269.333333333 422.666666667 255.833333333 406 241.5 c 128
 389.333333333 227.166666667 375.666666667 211.833333333 365 195.5 c 128
 354.333333333 179.166666667 349 160.666666667 349 140 c 0
 349 107.333333333 357.833333333 79.6666666667 375.5 57 c 128
 393.166666667 34.3333333333 412.333333333 15.3333333333 433 0 c 1
 191 0 l 1
859 192 m 256
 850.333333333 192 842.666666667 192.666666667 836 194 c 128
 829.333333333 195.333333333 826 199.333333333 826 206 c 0
 826 213.333333333 827.666666667 220.833333333 831 228.5 c 128
 834.333333333 236.166666667 836 242.666666667 836 248 c 1
 832.666666667 248 830.333333333 249.166666667 829 251.5 c 128
 827.666666667 253.833333333 824.666666667 255 820 255 c 0
 816.666666667 255 811 252.666666667 803 248 c 128
 795 243.333333333 786.333333333 241 777 241 c 0
 772.333333333 241 767.666666667 241.833333333 763 243.5 c 128
 758.333333333 245.166666667 755.333333333 248.666666667 754 254 c 0
 751.333333333 264 747.666666667 269 743 269 c 0
 740.333333333 269 737.833333333 268.833333333 735.5 268.5 c 128
 733.166666667 268.166666667 730.666666667 268 728 268 c 0
 715.333333333 268 703.666666667 270.333333333 693 275 c 128
 682.333333333 279.666666667 677 287.333333333 677 298 c 0
 677 301.333333333 678.166666667 305.333333333 680.5 310 c 128
 682.833333333 314.666666667 688.333333333 318.333333333 697 321 c 0
 701.666666667 322.333333333 708.333333333 324.5 717 327.5 c 128
 725.666666667 330.5 733.666666667 333.833333333 741 337.5 c 128
 748.333333333 341.166666667 752 344 752 346 c 256
 752 348 750.333333333 349.333333333 747 350 c 128
 743.666666667 350.666666667 740 351 736 351 c 0
 727.333333333 351 719.833333333 353 713.5 357 c 128
 707.166666667 361 704 368 704 378 c 0
 704 385.333333333 710.666666667 391.666666667 724 397 c 0
 738.666666667 403 751 408.5 761 413.5 c 128
 771 418.5 776 421.666666667 776 423 c 256
 776 424.333333333 774.333333333 425.333333333 771 426 c 128
 767.666666667 426.666666667 764.666666667 427 762 427 c 0
 755.333333333 427 750 429.166666667 746 433.5 c 128
 742 437.833333333 740 443 740 449 c 0
 740 451.666666667 741 455 743 459 c 128
 745 463 749.333333333 466.333333333 756 469 c 0
 761.333333333 471 767.833333333 473.833333333 775.5 477.5 c 128
 783.166666667 481.166666667 790.166666667 485 796.5 489 c 128
 802.833333333 493 806 495.666666667 806 497 c 0
 806 499 802.333333333 500 795 500 c 0
 789.666666667 500 784.5 501.333333333 779.5 504 c 128
 774.5 506.666666667 772 511.666666667 772 519 c 0
 772 524.333333333 773.666666667 528.5 777 531.5 c 128
 780.333333333 534.5 785 537.666666667 791 541 c 0
 815 555 834.666666667 577 850 607 c 0
 853.333333333 613 856.333333333 616 859 616 c 0
 862.333333333 616 865.333333333 613 868 607 c 0
 883.333333333 577 903 555 927 541 c 0
 933 537.666666667 937.666666667 534.5 941 531.5 c 128
 944.333333333 528.5 946 524.333333333 946 519 c 0
 946 511.666666667 943.5 506.666666667 938.5 504 c 128
 933.5 501.333333333 928.333333333 500 923 500 c 0
 915.666666667 500 912 499 912 497 c 0
 912 495.666666667 915.166666667 493 921.5 489 c 128
 927.833333333 485 935 481.166666667 943 477.5 c 128
 951 473.833333333 957.333333333 471 962 469 c 0
 969.333333333 466.333333333 973.833333333 463 975.5 459 c 128
 977.166666667 455 978 451.666666667 978 449 c 0
 978 443 976.166666667 437.833333333 972.5 433.5 c 128
 968.833333333 429.166666667 963.333333333 427 956 427 c 0
 953.333333333 427 950.333333333 426.666666667 947 426 c 128
 943.666666667 425.333333333 942 424.333333333 942 423 c 256
 942 421.666666667 947 418.5 957 413.5 c 128
 967 408.5 979.333333333 403 994 397 c 0
 1007.33333333 391.666666667 1014 385.333333333 1014 378 c 0
 1014 368 1010.83333333 361 1004.5 357 c 128
 998.166666667 353 990.666666667 351 982 351 c 0
 978 351 974.333333333 350.666666667 971 350 c 128
 967.666666667 349.333333333 966 348 966 346 c 256
 966 344 969.666666667 341.166666667 977 337.5 c 128
 984.333333333 333.833333333 992.5 330.5 1001.5 327.5 c 128
 1015 323 1015 323 1021 321 c 0
 1030.33333333 318.333333333 1036 314.666666667 1038 310 c 128
 1040 305.333333333 1041 301.333333333 1041 298 c 0
 1041 287.333333333 1035.66666667 279.666666667 1025 275 c 128
 1014.33333333 270.333333333 1002.66666667 268 990 268 c 0
 987.333333333 268 984.833333333 268.166666667 982.5 268.5 c 128
 980.166666667 268.833333333 977.666666667 269 975 269 c 0
 971 269 967.333333333 264 964 254 c 0
 962.666666667 248.666666667 959.666666667 245.166666667 955 243.5 c 128
 950.333333333 241.833333333 945.666666667 241 941 241 c 0
 931.666666667 241 923 243.333333333 915 248 c 128
 907 252.666666667 901.333333333 255 898 255 c 0
 893.333333333 255 890.333333333 253.833333333 889 251.5 c 128
 887.666666667 249.166666667 885.333333333 248 882 248 c 1
 882 242.666666667 883.666666667 236.166666667 887 228.5 c 128
 890.333333333 220.833333333 892 213.333333333 892 206 c 0
 892 199.333333333 888.666666667 195.333333333 882 194 c 128
 875.333333333 192.666666667 867.666666667 192 859 192 c 256
831 514 m 0
 833 514 835 515.166666667 837 517.5 c 128
 839 519.833333333 840 522 840 524 c 0
 840 526.666666667 839 528 837 528 c 128
 835 528 834 529 834 531 c 0
 834 531.666666667 834.333333333 532.666666667 835 534 c 128
 835.666666667 535.333333333 836 536.666666667 836 538 c 0
 836 540.666666667 834.333333333 542 831 542 c 0
 828.333333333 542 825.5 540.333333333 822.5 537 c 128
 819.5 533.666666667 816 531 812 529 c 0
 810 528.333333333 807.666666667 527 805 525 c 128
 802.333333333 523 801 521 801 519 c 0
 801 516.333333333 803 515 807 515 c 0
 809 515 811 515.5 813 516.5 c 128
 815 517.5 817 518 819 518 c 256
 821 518 823.166666667 517.333333333 825.5 516 c 128
 827.833333333 514.666666667 829.666666667 514 831 514 c 0
814 438 m 0
 816.666666667 438 818.666666667 438.5 820 439.5 c 128
 821.333333333 440.5 823 441 825 441 c 0
 826.333333333 441 827.833333333 440.5 829.5 439.5 c 128
 831.166666667 438.5 832.666666667 438 834 438 c 0
 839.333333333 438 842.833333333 439.666666667 844.5 443 c 128
 846.166666667 446.333333333 847 448.666666667 847 450 c 0
 847 453.333333333 845 455 841 455 c 0
 840.333333333 455 839.666666667 454.833333333 839 454.5 c 128
 838.333333333 454.166666667 837.333333333 454 836 454 c 0
 835.333333333 454 834 455 832 457 c 0
 830.666666667 458.333333333 829.333333333 459 828 459 c 0
 827.333333333 459 826.333333333 458.833333333 825 458.5 c 128
 823.666666667 458.166666667 822.666666667 458 822 458 c 0
 820.666666667 458 820 458.666666667 820 460 c 256
 820 461.333333333 820.166666667 462.5 820.5 463.5 c 128
 820.833333333 464.5 821 465.333333333 821 466 c 0
 821 469.333333333 819 471 815 471 c 0
 812.333333333 471 807.833333333 469 801.5 465 c 128
 795.166666667 461 788.666666667 458 782 456 c 0
 780 455 780 455 777 453.5 c 128
 775 452.5 774 451 774 449 c 0
 774 446.333333333 775.333333333 444.666666667 778 444 c 128
 780.666666667 443.333333333 782.333333333 443 783 443 c 0
 785.666666667 443 789.333333333 443.666666667 794 445 c 128
 798.666666667 446.333333333 801.333333333 447 802 447 c 0
 804.666666667 447 806.333333333 445.5 807 442.5 c 128
 807.666666667 439.5 810 438 814 438 c 0
816 365 m 0
 820.666666667 365 825 366.333333333 829 369 c 0
 832.333333333 371 834 374 834 378 c 0
 834 382.666666667 832.333333333 385 829 385 c 0
 827.666666667 385 826.333333333 384.666666667 825 384 c 128
 823.666666667 383.333333333 822.333333333 383 821 383 c 256
 819.666666667 383 818.666666667 384.333333333 818 387 c 128
 817.333333333 389.666666667 816 391 814 391 c 0
 812.666666667 391 811.166666667 390.833333333 809.5 390.5 c 128
 807.833333333 390.166666667 806 390 804 390 c 0
 799.333333333 390 797.5 392.333333333 798.5 397 c 128
 799.5 401.666666667 797 404 791 404 c 0
 789 404 784.5 401.333333333 777.5 396 c 128
 770.5 390.666666667 763.333333333 387.333333333 756 386 c 0
 746 384 741 381 741 377 c 256
 741 373 744.333333333 371 751 371 c 2
 773 373 l 2
 775.666666667 373 778 372 780 370 c 0
 781.333333333 369.333333333 782.333333333 368.5 783 367.5 c 128
 783.666666667 366.5 785 366 787 366 c 0
 789.666666667 366 792.333333333 366.666666667 795 368 c 128
 797.666666667 369.333333333 800.333333333 370 803 370 c 256
 805.666666667 370 808 369.166666667 810 367.5 c 128
 812 365.833333333 814 365 816 365 c 0
794 280 m 0
 797.333333333 280 800.166666667 281.166666667 802.5 283.5 c 128
 804.833333333 285.833333333 807.333333333 287 810 287 c 0
 811.333333333 287 812.833333333 286.666666667 814.5 286 c 128
 816.166666667 285.333333333 817.666666667 285 819 285 c 0
 821 285 823.166666667 285.666666667 825.5 287 c 128
 827.833333333 288.333333333 829 292 829 298 c 0
 829 305.333333333 827 309 823 309 c 2
 815 308 l 2
 813 308 811 309.166666667 809 311.5 c 128
 807 313.833333333 805 315 803 315 c 0
 801.666666667 315 800.166666667 314.666666667 798.5 314 c 128
 796.833333333 313.333333333 795.333333333 313 794 313 c 0
 789.333333333 313 787.166666667 315.5 787.5 320.5 c 128
 787.833333333 325.5 785 328 779 328 c 0
 776.333333333 328 772.5 327 767.5 325 c 128
 760 322 760 322 755 320 c 256
 751.666666667 318.666666667 747.333333333 317.166666667 742 315.5 c 128
 736.666666667 313.833333333 732.333333333 312.333333333 729 311 c 0
 726.333333333 310.333333333 725 308 725 304 c 0
 725 298.666666667 732 296 746 296 c 0
 750 296 754 296.666666667 758 298 c 128
 762 299.333333333 765.666666667 300 769 300 c 2
 773 300 l 2
 777.666666667 300 780.333333333 298.333333333 781 295 c 128
 781.666666667 291.666666667 782.666666667 288.333333333 784 285 c 128
 785.333333333 281.666666667 788.666666667 280 794 280 c 0
EndSplineSet
Validated: 524289
EndChar

StartChar: Q
Encoding: 81 81 48
Width: 1140
Flags: HW
LayerCount: 2
Fore
SplineSet
484 -27 m 0
 479.333333333 -27 467.5 -24 448.5 -18 c 128
 429.5 -12 406.333333333 -4.16666666667 379 5.5 c 128
 351.666666667 15.1666666667 323.166666667 25.3333333333 293.5 36 c 128
 263.833333333 46.6666666667 235.5 57.1666666667 208.5 67.5 c 128
 181.5 77.8333333333 159.166666667 86.6666666667 141.5 94 c 128
 123.833333333 101.333333333 113.333333333 106 110 108 c 0
 99.3333333333 115.333333333 94 124.666666667 94 136 c 256
 94 147.333333333 100.333333333 156.333333333 113 163 c 1
 117.666666667 180.333333333 125 201.833333333 135 227.5 c 128
 145 253.166666667 158.666666667 280.333333333 176 309 c 128
 193.333333333 337.666666667 215.166666667 365 241.5 391 c 128
 267.833333333 417 299.333333333 439.166666667 336 457.5 c 128
 372.666666667 475.833333333 415.666666667 487.333333333 465 492 c 1
 465 499 l 1
 460.333333333 499 455 499.5 449 500.5 c 128
 443 501.5 435.333333333 503.333333333 426 506 c 0
 420.666666667 508 408.833333333 512 390.5 518 c 128
 372.166666667 524 352 530.833333333 330 538.5 c 128
 308 546.166666667 288 553.166666667 270 559.5 c 128
 252 565.833333333 240.333333333 570.333333333 235 573 c 0
 233 574.333333333 230.666666667 575.833333333 228 577.5 c 128
 225.333333333 579.166666667 224 581.666666667 224 585 c 0
 224 587 225.333333333 588.666666667 228 590 c 128
 232 592 232 592 234 593 c 0
 236 593.666666667 245.166666667 595.333333333 261.5 598 c 128
 277.833333333 600.666666667 297 603.666666667 319 607 c 128
 341 610.333333333 361.833333333 613.5 381.5 616.5 c 128
 401.166666667 619.5 415.333333333 621.666666667 424 623 c 0
 430 624.333333333 437 625.833333333 445 627.5 c 128
 453 629.166666667 457.666666667 630 459 630 c 256
 460.333333333 630 461.5 629.666666667 462.5 629 c 128
 463.5 628.333333333 464.333333333 627.666666667 465 627 c 1
 465 631 l 2
 465 635.666666667 466.333333333 639.666666667 469 643 c 128
 471.666666667 646.333333333 475 648 479 648 c 0
 482.333333333 648 485.5 646.333333333 488.5 643 c 128
 491.5 639.666666667 493 635.666666667 493 631 c 2
 493 491 l 1
 507 490.333333333 528.166666667 485.5 556.5 476.5 c 128
 584.833333333 467.5 616 448 650 418 c 1
 660 423 660 423 669 427.5 c 128
 675 430.5 680.333333333 433.333333333 685 436 c 2
 687 438 l 2
 687 439.333333333 686.666666667 440 686 440 c 128
 685.333333333 440 685 440.333333333 685 441 c 0
 680.333333333 441.666666667 676 442.333333333 672 443 c 128
 668 443.666666667 664.333333333 444.333333333 661 445 c 0
 650.333333333 447 642 451.333333333 636 458 c 128
 630 464.666666667 627 471.333333333 627 478 c 0
 627 492 635.666666667 501.666666667 653 507 c 0
 666.333333333 511 678.166666667 515.166666667 688.5 519.5 c 128
 698.833333333 523.833333333 707.666666667 528 715 532 c 0
 715.666666667 532.666666667 716 533.333333333 716 534 c 0
 716 536 715 537 713 537 c 0
 711.666666667 537 710 537.166666667 708 537.5 c 128
 706 537.833333333 704 538 702 538 c 0
 692.666666667 539.333333333 685.333333333 542.833333333 680 548.5 c 128
 674.666666667 554.166666667 672 560.333333333 672 567 c 0
 672 579 679 587.333333333 693 592 c 0
 704.333333333 596 715.333333333 601 726 607 c 128
 736.666666667 613 745.333333333 618.333333333 752 623 c 2
 754 625 l 2
 754 626.333333333 753 627 751 627 c 0
 749.666666667 627 748.166666667 626.833333333 746.5 626.5 c 128
 744.833333333 626.166666667 743 626 741 626 c 0
 737 626 732.333333333 627.166666667 727 629.5 c 128
 721.666666667 631.833333333 717 636.666666667 713 644 c 0
 712.333333333 645.333333333 712 648 712 652 c 0
 712 660 715.333333333 666.166666667 722 670.5 c 128
 728.666666667 674.833333333 734 678.333333333 738 681 c 0
 752 689.666666667 765.333333333 701 778 715 c 128
 790.666666667 729 800.666666667 744.666666667 808 762 c 0
 810.666666667 768.666666667 814.666666667 772 820 772 c 0
 824 772 828 768.666666667 832 762 c 0
 842.666666667 743.333333333 854.166666667 726.666666667 866.5 712 c 128
 878.833333333 697.333333333 893 685.333333333 909 676 c 0
 921.666666667 668.666666667 928 660.666666667 928 652 c 0
 928 649.333333333 927.333333333 646.666666667 926 644 c 0
 922.666666667 636.666666667 918.166666667 631.833333333 912.5 629.5 c 128
 906.833333333 627.166666667 902 626 898 626 c 0
 897 626 897 626 894.5 626 c 128
 892.833333333 626 891 626.333333333 889 627 c 0
 887 627 886 626.333333333 886 625 c 0
 886 624.333333333 886.333333333 623.666666667 887 623 c 0
 894.333333333 618.333333333 903.5 613 914.5 607 c 128
 925.5 601 936.666666667 595.666666667 948 591 c 0
 956.666666667 587.666666667 962.166666667 583.5 964.5 578.5 c 128
 966.833333333 573.5 968 569.333333333 968 566 c 0
 968 552 957.666666667 542.666666667 937 538 c 0
 935.666666667 538 934 537.833333333 932 537.5 c 128
 930 537.166666667 927.666666667 536.666666667 925 536 c 0
 923.666666667 536 923 535.666666667 923 535 c 256
 923 534.333333333 924.333333333 533 927 531 c 0
 933 527 941.333333333 523 952 519 c 128
 962.666666667 515 974.333333333 511 987 507 c 0
 998.333333333 503.666666667 1005.33333333 498.833333333 1008 492.5 c 128
 1010.66666667 486.166666667 1012 481.333333333 1012 478 c 0
 1012 461.333333333 1000.66666667 450.333333333 978 445 c 0
 975.333333333 444.333333333 972.166666667 443.666666667 968.5 443 c 128
 964.833333333 442.333333333 960.666666667 441.666666667 956 441 c 0
 954 440.333333333 953 439.333333333 953 438 c 2
 953 438 953 438 955 436 c 0
 963 431.333333333 972.333333333 426.333333333 983 421 c 128
 993.666666667 415.666666667 1006 411.333333333 1020 408 c 0
 1037.33333333 404 1046 394.333333333 1046 379 c 0
 1046 372.333333333 1043.16666667 365.5 1037.5 358.5 c 128
 1031.83333333 351.5 1023.33333333 347.333333333 1012 346 c 0
 1008.66666667 345.333333333 1004.66666667 344.666666667 1000 344 c 128
 995.333333333 343.333333333 990.333333333 343 985 343 c 0
 982.333333333 343 979.166666667 343.166666667 975.5 343.5 c 128
 971.833333333 343.833333333 968 344 964 344 c 0
 960.666666667 344 958.333333333 343.666666667 957 343 c 256
 955.666666667 342.333333333 954.833333333 340.833333333 954.5 338.5 c 128
 954.166666667 336.166666667 953.666666667 334.333333333 953 333 c 0
 952.333333333 332.333333333 951.833333333 331.166666667 951.5 329.5 c 128
 951.166666667 327.833333333 950.333333333 326.333333333 949 325 c 0
 946.333333333 319 942.5 314.833333333 937.5 312.5 c 128
 932.5 310.166666667 927.333333333 309 922 309 c 0
 908 309 893.666666667 314 879 324 c 0
 877 325.333333333 875.5 326.166666667 874.5 326.5 c 128
 873.5 326.833333333 871.666666667 327 869 327 c 0
 864.333333333 327 860.833333333 325.666666667 858.5 323 c 128
 856.166666667 320.333333333 853.333333333 318.333333333 850 317 c 1
 850 311 851 304.333333333 853 297 c 0
 854.333333333 292.333333333 856.166666667 287.166666667 858.5 281.5 c 128
 860.833333333 275.833333333 862 270.666666667 862 266 c 0
 862 256.666666667 857.666666667 251.666666667 849 251 c 0
 844.333333333 250.333333333 839.666666667 249.833333333 835 249.5 c 128
 830.333333333 249.166666667 825.333333333 249 820 249 c 0
 815.333333333 249 810.5 249.166666667 805.5 249.5 c 128
 800.5 249.833333333 795.666666667 250.666666667 791 252 c 0
 782.333333333 254.666666667 778 259 778 265 c 0
 778 270.333333333 779.5 276 782.5 282 c 128
 785.5 288 787.333333333 293.333333333 788 298 c 2
 791 326 l 2
 790.333333333 326.666666667 789.166666667 327.333333333 787.5 328 c 128
 785.833333333 328.666666667 783.333333333 329 780 329 c 0
 778 329 776.166666667 328.666666667 774.5 328 c 128
 772.833333333 327.333333333 771.333333333 326.666666667 770 326 c 0
 759.333333333 318 748.333333333 313 737 311 c 1
 749.666666667 289.666666667 762.333333333 265.833333333 775 239.5 c 128
 787.666666667 213.166666667 799.666666667 184 811 152 c 0
 814.333333333 149.333333333 816.666666667 145.666666667 818 141 c 128
 819.333333333 136.333333333 820 132 820 128 c 0
 820 121.333333333 817.333333333 115.333333333 812 110 c 0
 807.333333333 105.333333333 800.666666667 100.5 792 95.5 c 128
 783.333333333 90.5 771.333333333 85 756 79 c 0
 716.666666667 63.6666666667 678.166666667 47.6666666667 640.5 31 c 128
 602.833333333 14.3333333333 570 0.5 542 -10.5 c 128
 514 -21.5 494.666666667 -27 484 -27 c 0
370 36 m 1
 372 50.6666666667 373.833333333 63.5 375.5 74.5 c 128
 377.166666667 85.5 378.5 97.5 379.5 110.5 c 128
 380.5 123.5 381 140.333333333 381 161 c 0
 381 180.333333333 379.5 199.833333333 376.5 219.5 c 128
 373.5 239.166666667 368 255.666666667 360 269 c 128
 352 282.333333333 339.666666667 289 323 289 c 0
 305 289 289.333333333 281.333333333 276 266 c 128
 262.666666667 250.666666667 251.333333333 231.833333333 242 209.5 c 128
 232.666666667 187.166666667 225 165.166666667 219 143.5 c 128
 213 121.833333333 208.333333333 104.666666667 205 92 c 1
 370 36 l 1
EndSplineSet
Validated: 524289
EndChar

